{
.appVersion = "911";
DisplayStrings = (
"O/I.ss01 O/I.ss01/I.ss01/H.ss01/I.ss01/I.ss01/I.ss01"
);
copyright = "Copyright (c) 2011 by Vernon Adams. All rights reserved.";
customParameters = (
{
name = description;
value = "Copyright (c) 2011 by vernon adams. All rights reserved.";
},
{
name = license;
value = "SIL Open Font License, Version 1.1\012\012This Font Software is licensed under the SIL Open Font License, Version 1.1.\012\012This license is available with a FAQ at: http://scripts.sil.org/OFL";
},
{
name = licenseURL;
value = "http://scripts.sil.org/OFL";
},
{
name = vendorID;
value = newt;
}
);
date = "2016-07-26 07:59:01 +0000";
designer = "Vernon Adams";
familyName = Pacifico;
featurePrefixes = (
{
automatic = 1;
code = "languagesystem DFLT dflt;\012";
name = Languagesystems;
}
);
features = (
{
automatic = 1;
code = "feature sups;\012feature frac;\012feature ordn;\012feature fina;\012feature salt;\012feature ss01;\012";
name = aalt;
},
{
automatic = 1;
code = "sub one by onesuperior;\012sub two by twosuperior;\012sub three by threesuperior;\012sub four by foursuperior;\012";
name = sups;
},
{
automatic = 1;
code = "sub one slash four by onequarter;\012sub one slash two by onehalf;\012sub three slash four by threequarters;\012";
name = frac;
},
{
automatic = 1;
code = "sub [zero one two three four five six seven eight nine] [A a]' by ordfeminine;\012sub [zero one two three four five six seven eight nine] [O o]' by ordmasculine;\012";
name = ordn;
},
{
automatic = 1;
code = "sub eth by eth.fina;\012sub o by o.fina;\012sub p by p.fina;\012sub q by q.fina;\012sub r by r.fina;\012sub s by s.fina;\012sub schwa by schwa.fina;\012sub v by v.fina;\012sub w by w.fina;\012";
name = fina;
},
{
automatic = 1;
code = "sub lslash lslash by lslash_lslash;\012sub t t by t_t;\012";
name = dlig;
},
{
automatic = 1;
code = "sub f i by fi;\012sub f l by fl;\012";
name = liga;
},
{
automatic = 1;

glyphs = (
{
color = 3;
glyphname = A;
lastChange = "2016-07-27 14:56:24 +0000";
layers = (
{
background = {
paths = (
{
closed = 1;
nodes = (
"1339 -5 OFFCURVE",
"1417 83 OFFCURVE",
"1470 237 CURVE",
"1573 606 LINE",
"1499 628 LINE",
"1423 247 OFFCURVE",
"1358 116 OFFCURVE",
"1239 116 CURVE SMOOTH",
"1171 116 OFFCURVE",
"1118 167 OFFCURVE",
"1118 290 CURVE SMOOTH",
"1118 514 OFFCURVE",
"1247 728 OFFCURVE",
"1519 728 CURVE SMOOTH",
"1566 728 OFFCURVE",
"1612 722 OFFCURVE",
"1676 705 CURVE SMOOTH",
"1767 681 OFFCURVE",
"1794 791 OFFCURVE",
"1734 814 CURVE SMOOTH",
"1669 839 OFFCURVE",
"1598 848 OFFCURVE",
"1531 848 CURVE SMOOTH",
"1156 848 OFFCURVE",
"966 576 OFFCURVE",
"966 280 CURVE SMOOTH",
"966 102 OFFCURVE",
"1067 -5 OFFCURVE",
"1213 -5 CURVE SMOOTH"
);
},
{
closed = 1;
nodes = (
"1681 -4 OFFCURVE",
"1749 40 OFFCURVE",
"1806 120 CURVE SMOOTH",
"1855 189 OFFCURVE",
"1814 262 OFFCURVE",
"1770 209 CURVE SMOOTH",
"1714 142 OFFCURVE",
"1680 114 OFFCURVE",
"1637 114 CURVE SMOOTH",
"1597 114 OFFCURVE",
"1575 144 OFFCURVE",
"1575 217 CURVE SMOOTH",
"1575 305 OFFCURVE",
"1615 496 OFFCURVE",
"1644 610 CURVE SMOOTH",
"1658 665 OFFCURVE",
"1620 682 OFFCURVE",
"1579 682 CURVE SMOOTH",
"1539 682 OFFCURVE",
"1507 669 OFFCURVE",
"1499 628 CURVE",
"1428 207 LINE",
"1425 80 OFFCURVE",
"1479 -6 OFFCURVE",
"1598 -5 CURVE SMOOTH"
);
},
{
closed = 1;
nodes = (
"636 466 OFFCURVE",
"540 410 OFFCURVE",
"469 226 CURVE",
"475 294 OFFCURVE",
"487 338 OFFCURVE",
"495 370 CURVE SMOOTH",
"503 400 OFFCURVE",
"510 432 OFFCURVE",
"510 442 CURVE SMOOTH",
"510 460 OFFCURVE",
"501 466 OFFCURVE",
"474 466 CURVE SMOOTH",
"423 466 OFFCURVE",
"399 448 OFFCURVE",
"387 410 CURVE SMOOTH",
"361 328 OFFCURVE",
"350 243 OFFCURVE",
"350 163 CURVE SMOOTH",
"350 49 OFFCURVE",
"367 -5 OFFCURVE",
"419 -5 CURVE SMOOTH",
"460 -5 OFFCURVE",
"475 12 OFFCURVE",
"490 75 CURVE SMOOTH",
"521 204 OFFCURVE",
"589 313 OFFCURVE",
"614 313 CURVE SMOOTH",
"621 313 OFFCURVE",
"625 308 OFFCURVE",
"625 297 CURVE SMOOTH",
"625 254 OFFCURVE",
"598 160 OFFCURVE",
"598 110 CURVE SMOOTH",
"598 37 OFFCURVE",
"632 -5 OFFCURVE",
"701 -5 CURVE SMOOTH",
"794 -5 OFFCURVE",
"861 61 OFFCURVE",
"906 116 CURVE",
"870 209 LINE",
"814 142 OFFCURVE",
"778 105 OFFCURVE",
"749 105 CURVE SMOOTH",
"731 105 OFFCURVE",
"720 118 OFFCURVE",
"720 145 CURVE SMOOTH",
"720 200 OFFCURVE",
"761 332 OFFCURVE",
"761 401 CURVE SMOOTH",
"761 443 OFFCURVE",
"740 466 OFFCURVE",
"696 466 CURVE SMOOTH"
);
}
);
};
layerId = "ECEFE970-1BBB-4E0A-A452-CEB55884B4A3";
paths = (
{
closed = 1;
nodes = (
"817 142 OFFCURVE",
"783 114 OFFCURVE",
"739 114 CURVE SMOOTH",
"697 114 OFFCURVE",
"675 144 OFFCURVE",
"675 217 CURVE SMOOTH",
"675 305 OFFCURVE",
"715 496 OFFCURVE",
"744 610 CURVE SMOOTH",
"758 663 OFFCURVE",
"720 680 OFFCURVE",
"675 680 CURVE SMOOTH",
"636 680 OFFCURVE",
"607 669 OFFCURVE",
"599 628 CURVE SMOOTH",
"523 247 OFFCURVE",
"458 116 OFFCURVE",
"337 116 CURVE SMOOTH",
"271 116 OFFCURVE",
"220 177 OFFCURVE",
"220 290 CURVE SMOOTH",
"220 516 OFFCURVE",
"347 728 OFFCURVE",
"609 728 CURVE SMOOTH",
"666 728 OFFCURVE",
"712 720 OFFCURVE",
"776 705 CURVE SMOOTH",
"849 688 OFFCURVE",
"894 800 OFFCURVE",
"825 820 CURVE SMOOTH",
"764 838 OFFCURVE",
"698 848 OFFCURVE",
"631 848 CURVE SMOOTH",
"260 848 OFFCURVE",
"69 576 OFFCURVE",
"69 280 CURVE SMOOTH",
"69 100 OFFCURVE",
"175 -5 OFFCURVE",
"315 -5 CURVE SMOOTH",
"421 -5 OFFCURVE",
"496 61 OFFCURVE",
"546 184 CURVE",
"528 187 LINE",
"532 68 OFFCURVE",
"592 -5 OFFCURVE",
"698 -5 CURVE SMOOTH",
"797 -5 OFFCURVE",
"854 49 OFFCURVE",
"909 116 CURVE",
"873 209 LINE"
);
}
);
width = 794;
}
);
note = A;
unicode = 0041;
},
{
color = 3;
glyphname = AE;
lastChange = "2016-07-27 18:06:48 +0000";
layers = (
{
background = {
paths = (
{
closed = 1;
nodes = (
"1342 -4 OFFCURVE",
"1433 64 OFFCURVE",
"1487 237 CURVE",
"1583 626 LINE",
"1460 431 LINE",
"1402 220 OFFCURVE",
"1338 117 OFFCURVE",
"1240 117 CURVE SMOOTH",
"1174 117 OFFCURVE",
"1121 167 OFFCURVE",
"1121 290 CURVE SMOOTH",
"1121 514 OFFCURVE",
"1241 698 OFFCURVE",
"1472 726 CURVE SMOOTH",
"1529 733 OFFCURVE",
"1551 857 OFFCURVE",
"1434 843 CURVE SMOOTH",
"1150 809 OFFCURVE",
"969 576 OFFCURVE",
"969 280 CURVE SMOOTH",
"969 97 OFFCURVE",
"1070 -4 OFFCURVE",
"1219 -4 CURVE SMOOTH"
);
},
{
closed = 1;
nodes = (
"1963 720 OFFCURVE",
"1993 751 OFFCURVE",
"1993 787 CURVE SMOOTH",
"1993 824 OFFCURVE",
"1968 849 OFFCURVE",
"1909 849 CURVE SMOOTH",
"1833 849 OFFCURVE",
"1763 845 OFFCURVE",
"1709 842 CURVE SMOOTH",
"1622 837 OFFCURVE",
"1561 801 OFFCURVE",
"1531 691 CURVE SMOOTH",
"1460 431 LINE",
"1451 264 LINE",
"1445 121 OFFCURVE",
"1527 -5 OFFCURVE",
"1752 -5 CURVE SMOOTH",
"1843 -5 OFFCURVE",
"1926 20 OFFCURVE",
"2002 59 CURVE SMOOTH",
"2086 102 OFFCURVE",
"2083 200 OFFCURVE",
"2004 174 CURVE SMOOTH",
"1933 151 OFFCURVE",
"1859 120 OFFCURVE",
"1775 120 CURVE SMOOTH",
"1608 120 OFFCURVE",
"1572 212 OFFCURVE",
"1606 361 CURVE",
"1715 363 OFFCURVE",
"1763 365 OFFCURVE",
"1841 367 CURVE SMOOTH",
"1904 369 OFFCURVE",
"1927 396 OFFCURVE",
"1927 436 CURVE SMOOTH",
"1927 464 OFFCURVE",
"1912 490 OFFCURVE",
"1863 490 CURVE SMOOTH",
"1792 490 OFFCURVE",
"1719 486 OFFCURVE",
"1630 483 CURVE",
"1646 556 OFFCURVE",
"1668 651 OFFCURVE",
"1688 713 CURVE",
"1729 716 OFFCURVE",
"1829 720 OFFCURVE",
"1881 720 CURVE SMOOTH"
);
},
{
closed = 1;
nodes = (
"817 142 OFFCURVE",
"783 114 OFFCURVE",
"739 114 CURVE SMOOTH",
"697 114 OFFCURVE",
"675 144 OFFCURVE",
"675 217 CURVE SMOOTH",
"675 305 OFFCURVE",
"714 496 OFFCURVE",
"744 610 CURVE SMOOTH",
"758 663 OFFCURVE",
"720 680 OFFCURVE",
"675 680 CURVE SMOOTH",
"636 680 OFFCURVE",
"607 669 OFFCURVE",
"599 628 CURVE SMOOTH",
"525 247 OFFCURVE",
"458 116 OFFCURVE",
"337 116 CURVE SMOOTH",
"271 116 OFFCURVE",
"220 177 OFFCURVE",
"220 290 CURVE SMOOTH",
"220 516 OFFCURVE",
"347 728 OFFCURVE",
"609 728 CURVE SMOOTH",
"666 728 OFFCURVE",
"712 720 OFFCURVE",
"776 705 CURVE SMOOTH",
"849 688 OFFCURVE",
"894 800 OFFCURVE",
"825 820 CURVE SMOOTH",
"764 838 OFFCURVE",
"698 848 OFFCURVE",
"631 848 CURVE SMOOTH",
"260 848 OFFCURVE",
"69 576 OFFCURVE",
"69 280 CURVE SMOOTH",
"69 100 OFFCURVE",
"175 -5 OFFCURVE",
"315 -5 CURVE SMOOTH",
"421 -5 OFFCURVE",
"496 61 OFFCURVE",
"546 184 CURVE",
"528 187 LINE",
"532 68 OFFCURVE",
"592 -5 OFFCURVE",
"698 -5 CURVE SMOOTH",
"797 -5 OFFCURVE",
"854 49 OFFCURVE",
"909 116 CURVE",
"873 209 LINE"
);
}
);
};
guideLines = (
{
angle = 254.6088;
position = "{607, 602}";
}
);
layerId = "ECEFE970-1BBB-4E0A-A452-CEB55884B4A3";
paths = (
{
closed = 1;
nodes = (
"438 -5 OFFCURVE",
"533 64 OFFCURVE",
"587 237 CURVE",
"683 626 LINE",
"560 431 LINE",
"512 257 OFFCURVE",
"458 116 OFFCURVE",
"337 116 CURVE SMOOTH",
"271 116 OFFCURVE",
"220 177 OFFCURVE",
"220 290 CURVE SMOOTH",
"220 514 OFFCURVE",
"340 698 OFFCURVE",
"572 726 CURVE SMOOTH",
"599 729 OFFCURVE",
"610 750 OFFCURVE",
"610 779 CURVE SMOOTH",
"610 821 OFFCURVE",
"591 850 OFFCURVE",
"524 842 CURVE SMOOTH",
"260 810 OFFCURVE",
"69 576 OFFCURVE",
"69 280 CURVE SMOOTH",
"69 100 OFFCURVE",
"175 -5 OFFCURVE",
"325 -5 CURVE SMOOTH"
);
},
{
closed = 1;
nodes = (
"1073 720 OFFCURVE",
"1093 759 OFFCURVE",
"1093 795 CURVE SMOOTH",
"1093 832 OFFCURVE",
"1078 849 OFFCURVE",
"1029 849 CURVE SMOOTH",
"933 849 OFFCURVE",
"863 844 OFFCURVE",
"779 840 CURVE SMOOTH",
"712 837 OFFCURVE",
"661 801 OFFCURVE",
"641 727 CURVE SMOOTH",
"560 431 LINE",
"551 264 LINE",
"545 121 OFFCURVE",
"627 -5 OFFCURVE",
"852 -5 CURVE SMOOTH",
"943 -5 OFFCURVE",
"1046 22 OFFCURVE",
"1112 69 CURVE",
"1104 182 LINE",
"1033 147 OFFCURVE",
"947 121 OFFCURVE",
"875 121 CURVE SMOOTH",
"708 121 OFFCURVE",
"668 212 OFFCURVE",
"702 361 CURVE",
"811 363 OFFCURVE",
"862 366 OFFCURVE",
"957 368 CURVE SMOOTH",
"1000 369 OFFCURVE",
"1023 401 OFFCURVE",
"1023 441 CURVE SMOOTH",
"1023 471 OFFCURVE",
"1012 490 OFFCURVE",
"970 490 CURVE SMOOTH",
"892 490 OFFCURVE",
"815 486 OFFCURVE",
"726 483 CURVE",
"742 556 OFFCURVE",
"764 650 OFFCURVE",
"784 710 CURVE",
"825 715 OFFCURVE",
"929 720 OFFCURVE",
"1021 720 CURVE SMOOTH"
);
}
);
width = 1033;
}
);
leftMetricsKey = A;
note = AE;
unicode = 00C6;
},
{
color = 3;
glyphname = B;
lastChange = "2016-07-27 18:09:11 +0000";
layers = (
{
background = {
paths = (
{
closed = 1;
nodes = (
"226 7 LINE",
"244 6 OFFCURVE",
"262 3 OFFCURVE",
"321 3 CURVE SMOOTH",
"612 3 OFFCURVE",
"764 104 OFFCURVE",
"764 251 CURVE SMOOTH",
"764 338 OFFCURVE",
"703 394 OFFCURVE",
"597 414 CURVE",
"596 395 LINE",
"775 423 OFFCURVE",
"874 516 OFFCURVE",
"874 640 CURVE SMOOTH",
"874 765 OFFCURVE",
"754 862 OFFCURVE",
"514 862 CURVE SMOOTH",
"357 862 OFFCURVE",
"198 825 OFFCURVE",
"93 764 CURVE SMOOTH",
"43 735 OFFCURVE",
"25 704 OFFCURVE",
"25 675 CURVE SMOOTH",
"25 638 OFFCURVE",
"64 616 OFFCURVE",
"123 651 CURVE SMOOTH",
"202 698 OFFCURVE",
"341 744 OFFCURVE",
"493 744 CURVE SMOOTH",
"650 744 OFFCURVE",
"715 692 OFFCURVE",
"715 623 CURVE SMOOTH",
"715 529 OFFCURVE",
"607 474 OFFCURVE",
"473 470 CURVE SMOOTH",
"434 469 OFFCURVE",
"415 438 OFFCURVE",
"414 406 CURVE SMOOTH",
"413 375 OFFCURVE",
"423 362 OFFCURVE",
"453 361 CURVE SMOOTH",
"573 357 OFFCURVE",
"606 307 OFFCURVE",
"606 260 CURVE SMOOTH",
"606 181 OFFCURVE",
"536 112 OFFCURVE",
"325 112 CURVE SMOOTH",
"301 112 OFFCURVE",
"253 117 OFFCURVE",
"228 119 CURVE"
);
},
{
closed = 1;
nodes = (
"226 -52 OFFCURVE",
"273 -33 OFFCURVE",
"273 18 CURVE SMOOTH",
"273 25 OFFCURVE",
"274 20 OFFCURVE",
"275 47 CURVE SMOOTH",
"282 227 OFFCURVE",
"331 472 OFFCURVE",
"371 591 CURVE SMOOTH",
"373 597 OFFCURVE",
"374 603 OFFCURVE",
"374 608 CURVE SMOOTH",
"374 641 OFFCURVE",
"337 652 OFFCURVE",
"307 652 CURVE SMOOTH",
"270 652 OFFCURVE",
"228 639 OFFCURVE",
"218 603 CURVE SMOOTH",
"165 411 OFFCURVE",
"129 199 OFFCURVE",
"117 13 CURVE SMOOTH",
"114 -26 OFFCURVE",
"132 -52 OFFCURVE",
"184 -52 CURVE SMOOTH"
);
}
);
};
layerId = "ECEFE970-1BBB-4E0A-A452-CEB55884B4A3";
paths = (
{
closed = 1;
nodes = (
"226 9 LINE",
"244 7 OFFCURVE",
"282 3 OFFCURVE",
"341 3 CURVE SMOOTH",
"612 3 OFFCURVE",
"764 104 OFFCURVE",
"764 261 CURVE SMOOTH",
"764 338 OFFCURVE",
"707 402 OFFCURVE",
"587 414 CURVE",
"586 395 LINE",
"775 423 OFFCURVE",
"873 516 OFFCURVE",
"873 640 CURVE SMOOTH",
"873 765 OFFCURVE",
"767 862 OFFCURVE",
"514 862 CURVE SMOOTH",
"357 862 OFFCURVE",
"198 825 OFFCURVE",
"93 764 CURVE SMOOTH",
"28 726 OFFCURVE",
"25 704 OFFCURVE",
"25 675 CURVE SMOOTH",
"25 638 OFFCURVE",
"49 607 OFFCURVE",
"123 651 CURVE SMOOTH",
"202 698 OFFCURVE",
"341 744 OFFCURVE",
"493 744 CURVE SMOOTH",
"653 744 OFFCURVE",
"721 692 OFFCURVE",
"721 623 CURVE SMOOTH",
"721 529 OFFCURVE",
"610 471 OFFCURVE",
"473 468 CURVE SMOOTH",
"428 467 OFFCURVE",
"418 438 OFFCURVE",
"417 406 CURVE SMOOTH",
"416 377 OFFCURVE",
"425 364 OFFCURVE",
"453 363 CURVE SMOOTH",
"577 359 OFFCURVE",
"613 307 OFFCURVE",
"613 256 CURVE SMOOTH",
"613 179 OFFCURVE",
"540 112 OFFCURVE",
"345 112 CURVE SMOOTH",
"301 112 OFFCURVE",
"253 117 OFFCURVE",
"228 119 CURVE"
);
},
{
closed = 1;
nodes = (
"230 -52 OFFCURVE",
"267 -33 OFFCURVE",
"267 8 CURVE SMOOTH",
"267 25 OFFCURVE",
"268 20 OFFCURVE",
"269 47 CURVE SMOOTH",
"276 227 OFFCURVE",
"325 472 OFFCURVE",
"362 582 CURVE SMOOTH",
"367 597 OFFCURVE",
"368 603 OFFCURVE",
"368 614 CURVE SMOOTH",
"368 641 OFFCURVE",
"341 650 OFFCURVE",
"304 650 CURVE SMOOTH",
"260 650 OFFCURVE",
"228 639 OFFCURVE",
"218 603 CURVE SMOOTH",
"165 411 OFFCURVE",
"129 199 OFFCURVE",
"117 13 CURVE SMOOTH",
"114 -26 OFFCURVE",
"127 -52 OFFCURVE",
"181 -52 CURVE SMOOTH"
);
}
);
width = 827;
}
);
note = B;
unicode = 0042;
},
{
color = 3;
glyphname = C;
lastChange = "2016-07-27 17:56:49 +0000";
layers = (
{
background = {
paths = (
{
closed = 1;
nodes = (
"1210 119 OFFCURVE",
"1120 221 OFFCURVE",
"1120 383 CURVE SMOOTH",
"1120 604 OFFCURVE",
"1257 730 OFFCURVE",
"1377 730 CURVE SMOOTH",
"1442 730 OFFCURVE",
"1469 694 OFFCURVE",
"1469 635 CURVE SMOOTH",
"1469 611 OFFCURVE",
"1459 584 OFFCURVE",
"1459 562 CURVE SMOOTH",
"1459 526 OFFCURVE",
"1483 506 OFFCURVE",
"1519 506 CURVE SMOOTH",
"1586 506 OFFCURVE",
"1614 567 OFFCURVE",
"1614 646 CURVE SMOOTH",
"1614 762 OFFCURVE",
"1542 848 OFFCURVE",
"1390 848 CURVE SMOOTH",
"1152 848 OFFCURVE",
"969 641 OFFCURVE",
"969 361 CURVE SMOOTH",
"969 146 OFFCURVE",
"1110 -5 OFFCURVE",
"1345 -5 CURVE SMOOTH",
"1458 -5 OFFCURVE",
"1588 29 OFFCURVE",
"1704 121 CURVE SMOOTH",
"1762 167 OFFCURVE",
"1735 265 OFFCURVE",
"1667 218 CURVE SMOOTH",
"1572 152 OFFCURVE",
"1468 119 OFFCURVE",
"1368 119 CURVE SMOOTH"
);
},
{
closed = 1;
nodes = (
"-383 -5 OFFCURVE",
"-197 194 OFFCURVE",
"-197 505 CURVE SMOOTH",
"-197 729 OFFCURVE",
"-339 848 OFFCURVE",
"-513 848 CURVE SMOOTH",
"-745 848 OFFCURVE",
"-931 649 OFFCURVE",
"-931 338 CURVE SMOOTH",
"-931 114 OFFCURVE",
"-789 -5 OFFCURVE",
"-615 -5 CURVE SMOOTH"
);
},
{
closed = 1;
nodes = (
"-702 117 OFFCURVE",
"-780 192 OFFCURVE",
"-780 356 CURVE SMOOTH",
"-780 570 OFFCURVE",
"-676 726 OFFCURVE",
"-524 726 CURVE SMOOTH",
"-426 726 OFFCURVE",
"-348 651 OFFCURVE",
"-348 487 CURVE SMOOTH",
"-348 273 OFFCURVE",
"-452 117 OFFCURVE",
"-604 117 CURVE SMOOTH"
);
},
{
closed = 1;
nodes = (
"98 -5 OFFCURVE",
"193 64 OFFCURVE",
"247 237 CURVE",
"343 626 LINE",
"220 431 LINE",
"172 257 OFFCURVE",
"118 116 OFFCURVE",
"-3 116 CURVE SMOOTH",
"-69 116 OFFCURVE",
"-120 177 OFFCURVE",
"-120 290 CURVE SMOOTH",
"-120 514 OFFCURVE",
"0 700 OFFCURVE",
"232 726 CURVE SMOOTH",
"259 729 OFFCURVE",
"270 750 OFFCURVE",
"270 779 CURVE SMOOTH",
"270 821 OFFCURVE",
"251 850 OFFCURVE",
"184 842 CURVE SMOOTH",
"-80 810 OFFCURVE",
"-271 576 OFFCURVE",
"-271 280 CURVE SMOOTH",
"-271 100 OFFCURVE",
"-165 -5 OFFCURVE",
"-15 -5 CURVE SMOOTH"
);
},
{
closed = 1;
nodes = (
"733 720 OFFCURVE",
"753 759 OFFCURVE",
"753 795 CURVE SMOOTH",
"753 832 OFFCURVE",
"738 849 OFFCURVE",
"689 849 CURVE SMOOTH",
"593 849 OFFCURVE",
"523 844 OFFCURVE",
"439 840 CURVE SMOOTH",
"372 837 OFFCURVE",
"321 801 OFFCURVE",
"301 727 CURVE SMOOTH",
"220 431 LINE",
"211 264 LINE",
"205 121 OFFCURVE",
"287 -5 OFFCURVE",
"512 -5 CURVE SMOOTH",
"603 -5 OFFCURVE",
"706 22 OFFCURVE",
"772 69 CURVE",
"764 182 LINE",
"693 147 OFFCURVE",
"607 121 OFFCURVE",
"535 121 CURVE SMOOTH",
"368 121 OFFCURVE",
"328 212 OFFCURVE",
"362 361 CURVE",
"471 363 OFFCURVE",
"522 366 OFFCURVE",
"617 368 CURVE SMOOTH",
"660 369 OFFCURVE",
"683 401 OFFCURVE",
"683 441 CURVE SMOOTH",
"683 471 OFFCURVE",
"672 490 OFFCURVE",
"630 490 CURVE SMOOTH",
"552 490 OFFCURVE",
"475 486 OFFCURVE",
"386 483 CURVE",
"402 556 OFFCURVE",
"424 650 OFFCURVE",
"444 710 CURVE",
"485 715 OFFCURVE",
"589 720 OFFCURVE",
"681 720 CURVE SMOOTH"
);
}
);
};
layerId = "ECEFE970-1BBB-4E0A-A452-CEB55884B4A3";
paths = (
{
closed = 1;
nodes = (
"308 119 OFFCURVE",
"220 212 OFFCURVE",
"220 366 CURVE SMOOTH",
"220 606 OFFCURVE",
"352 730 OFFCURVE",
"476 730 CURVE SMOOTH",
"542 730 OFFCURVE",
"569 694 OFFCURVE",
"569 643 CURVE SMOOTH",
"569 611 OFFCURVE",
"559 584 OFFCURVE",
"559 562 CURVE SMOOTH",
"559 528 OFFCURVE",
"583 510 OFFCURVE",
"619 510 CURVE SMOOTH",
"677 510 OFFCURVE",
"706 567 OFFCURVE",
"706 646 CURVE SMOOTH",
"706 762 OFFCURVE",
"635 848 OFFCURVE",
"486 848 CURVE SMOOTH",
"254 848 OFFCURVE",
"69 649 OFFCURVE",
"69 348 CURVE SMOOTH",
"69 134 OFFCURVE",
"217 -5 OFFCURVE",
"458 -5 CURVE SMOOTH",
"561 -5 OFFCURVE",
"669 15 OFFCURVE",
"781 69 CURVE",
"772 190 LINE",
"677 146 OFFCURVE",
"571 119 OFFCURVE",
"481 119 CURVE SMOOTH"
);
}
);
width = 671;
}
);
note = C;
unicode = 0043;
},
{
color = 3;
glyphname = D;
lastChange = "2016-07-27 18:06:27 +0000";
layers = (
{
background = {
paths = (
{
closed = 1;
nodes = (
"1227 860 OFFCURVE",
"1098 830 OFFCURVE",
"993 764 CURVE SMOOTH",
"888 698 OFFCURVE",
"916 582 OFFCURVE",
"1023 651 CURVE SMOOTH",
"1102 702 OFFCURVE",
"1211 742 OFFCURVE",
"1333 742 CURVE SMOOTH",
"1489 742 OFFCURVE",
"1581 655 OFFCURVE",
"1581 476 CURVE SMOOTH",
"1581 247 OFFCURVE",
"1442 112 OFFCURVE",
"1235 112 CURVE SMOOTH",
"1219 112 OFFCURVE",
"1198 113 OFFCURVE",
"1178 115 CURVE",
"1194 283 OFFCURVE",
"1237 488 OFFCURVE",
"1271 591 CURVE SMOOTH",
"1273 597 OFFCURVE",
"1274 603 OFFCURVE",
"1274 608 CURVE SMOOTH",
"1274 641 OFFCURVE",
"1237 652 OFFCURVE",
"1217 652 CURVE SMOOTH",
"1170 652 OFFCURVE",
"1128 639 OFFCURVE",
"1118 603 CURVE SMOOTH",
"1065 411 OFFCURVE",
"1038 244 OFFCURVE",
"1024 78 CURVE SMOOTH",
"1020 29 OFFCURVE",
"1037 12 OFFCURVE",
"1090 5 CURVE SMOOTH",
"1141 -2 OFFCURVE",
"1170 -5 OFFCURVE",
"1221 -5 CURVE SMOOTH",
"1541 -5 OFFCURVE",
"1730 209 OFFCURVE",
"1730 491 CURVE SMOOTH",
"1730 704 OFFCURVE",
"1603 860 OFFCURVE",
"1334 860 CURVE SMOOTH"
);
},
{
closed = 1;
nodes = (
"644 -5 OFFCURVE",
"830 194 OFFCURVE",
"830 505 CURVE SMOOTH",
"830 729 OFFCURVE",
"688 848 OFFCURVE",
"514 848 CURVE SMOOTH",
"282 848 OFFCURVE",
"96 649 OFFCURVE",
"96 338 CURVE SMOOTH",
"96 114 OFFCURVE",
"238 -5 OFFCURVE",
"412 -5 CURVE SMOOTH"
);
},
{
closed = 1;
nodes = (
"325 117 OFFCURVE",
"247 192 OFFCURVE",
"247 356 CURVE SMOOTH",
"247 570 OFFCURVE",
"351 726 OFFCURVE",
"503 726 CURVE SMOOTH",
"601 726 OFFCURVE",
"679 651 OFFCURVE",
"679 487 CURVE SMOOTH",
"679 273 OFFCURVE",
"575 117 OFFCURVE",
"423 117 CURVE SMOOTH"
);
}
);
};
layerId = "ECEFE970-1BBB-4E0A-A452-CEB55884B4A3";
paths = (
{
closed = 1;
nodes = (
"327 860 OFFCURVE",
"190 830 OFFCURVE",
"93 764 CURVE SMOOTH",
"26 718 OFFCURVE",
"45 600 OFFCURVE",
"123 651 CURVE SMOOTH",
"202 702 OFFCURVE",
"311 742 OFFCURVE",
"423 742 CURVE SMOOTH",
"585 742 OFFCURVE",
"679 651 OFFCURVE",
"679 497 CURVE SMOOTH",
"679 273 OFFCURVE",
"575 117 OFFCURVE",
"335 112 CURVE SMOOTH",
"319 112 OFFCURVE",
"293 113 OFFCURVE",
"273 115 CURVE",
"288 283 OFFCURVE",
"328 479 OFFCURVE",
"362 582 CURVE SMOOTH",
"367 597 OFFCURVE",
"368 603 OFFCURVE",
"368 614 CURVE SMOOTH",
"368 641 OFFCURVE",
"341 650 OFFCURVE",
"304 650 CURVE SMOOTH",
"260 650 OFFCURVE",
"228 639 OFFCURVE",
"218 603 CURVE SMOOTH",
"165 411 OFFCURVE",
"131 199 OFFCURVE",
"122 78 CURVE SMOOTH",
"119 29 OFFCURVE",
"137 12 OFFCURVE",
"190 5 CURVE SMOOTH",
"241 -2 OFFCURVE",
"270 -5 OFFCURVE",
"321 -5 CURVE SMOOTH",
"644 -5 OFFCURVE",
"830 194 OFFCURVE",
"830 495 CURVE SMOOTH",
"830 729 OFFCURVE",
"678 860 OFFCURVE",
"434 860 CURVE SMOOTH"
);
}
);
width = 840;
}
);
note = D;
rightMetricsKey = O;
unicode = 0044;
},
{
color = 3;
glyphname = Eth;
lastChange = "2016-07-27 18:06:24 +0000";
layers = (
{
background = {
paths = (
{
closed = 1;
nodes = (
"1626 -5 OFFCURVE",
"1818 209 OFFCURVE",
"1818 494 CURVE SMOOTH",
"1818 714 OFFCURVE",
"1679 860 OFFCURVE",
"1439 860 CURVE SMOOTH",
"1387 860 OFFCURVE",
"1343 857 OFFCURVE",
"1306 848 CURVE SMOOTH",
"1278 841 OFFCURVE",
"1257 823 OFFCURVE",
"1249 798 CURVE SMOOTH",
"1179 578 OFFCURVE",
"1123 314 OFFCURVE",
"1104 78 CURVE SMOOTH",
"1100 29 OFFCURVE",
"1117 12 OFFCURVE",
"1170 5 CURVE SMOOTH",
"1221 -2 OFFCURVE",
"1250 -5 OFFCURVE",
"1306 -5 CURVE SMOOTH"
);
},
{
closed = 1;
nodes = (
"1506 381 OFFCURVE",
"1515 414 OFFCURVE",
"1515 448 CURVE SMOOTH",
"1515 484 OFFCURVE",
"1496 503 OFFCURVE",
"1406 503 CURVE SMOOTH",
"1322 503 OFFCURVE",
"1295 505 OFFCURVE",
"1153 505 CURVE SMOOTH",
"1069 505 OFFCURVE",
"1030 484 OFFCURVE",
"1030 429 CURVE SMOOTH",
"1030 404 OFFCURVE",
"1042 383 OFFCURVE",
"1080 383 CURVE SMOOTH",
"1136 383 OFFCURVE",
"1158 384 OFFCURVE",
"1250 384 CURVE SMOOTH",
"1304 384 OFFCURVE",
"1397 381 OFFCURVE",
"1452 381 CURVE SMOOTH"
);
},
{
closed = 1;
nodes = (
"1301 110 OFFCURVE",
"1281 111 OFFCURVE",
"1260 113 CURVE",
"1276 305 OFFCURVE",
"1337 579 OFFCURVE",
"1388 743 CURVE",
"1399 744 OFFCURVE",
"1410 744 OFFCURVE",
"1426 744 CURVE SMOOTH",
"1569 744 OFFCURVE",
"1669 667 OFFCURVE",
"1669 479 CURVE SMOOTH",
"1669 247 OFFCURVE",
"1527 110 OFFCURVE",
"1322 110 CURVE SMOOTH"
);
},
{
closed = 1;
nodes = (
"371 860 OFFCURVE",
"310 850 OFFCURVE",
"265 834 CURVE SMOOTH",
"196 810 OFFCURVE",
"178 788 OFFCURVE",
"178 745 CURVE SMOOTH",
"178 718 OFFCURVE",
"191 693 OFFCURVE",
"244 710 CURVE SMOOTH",
"325 736 OFFCURVE",
"373 742 OFFCURVE",
"425 742 CURVE SMOOTH",
"556 742 OFFCURVE",
"661 665 OFFCURVE",
"661 489 CURVE SMOOTH",
"661 276 OFFCURVE",
"557 112 OFFCURVE",
"317 112 CURVE SMOOTH",
"301 112 OFFCURVE",
"276 113 OFFCURVE",
"255 115 CURVE",
"270 283 OFFCURVE",
"310 479 OFFCURVE",
"344 582 CURVE SMOOTH",
"349 597 OFFCURVE",
"350 603 OFFCURVE",
"350 614 CURVE SMOOTH",
"350 642 OFFCURVE",
"323 650 OFFCURVE",
"286 650 CURVE SMOOTH",
"242 650 OFFCURVE",
"210 639 OFFCURVE",
"200 603 CURVE SMOOTH",
"147 411 OFFCURVE",
"114 199 OFFCURVE",
"104 78 CURVE SMOOTH",
"100 29 OFFCURVE",
"119 12 OFFCURVE",
"172 5 CURVE SMOOTH",
"223 -2 OFFCURVE",
"252 -5 OFFCURVE",
"303 -5 CURVE SMOOTH",
"626 -5 OFFCURVE",
"812 194 OFFCURVE",
"812 494 CURVE SMOOTH",
"812 714 OFFCURVE",
"675 860 OFFCURVE",
"436 860 CURVE SMOOTH"
);
}
);
};
layerId = "ECEFE970-1BBB-4E0A-A452-CEB55884B4A3";
paths = (
{
closed = 1;
nodes = (
"632 -5 OFFCURVE",
"818 209 OFFCURVE",
"818 494 CURVE SMOOTH",
"818 714 OFFCURVE",
"681 860 OFFCURVE",
"439 860 CURVE SMOOTH",
"387 860 OFFCURVE",
"343 857 OFFCURVE",
"306 848 CURVE SMOOTH",
"278 841 OFFCURVE",
"266 823 OFFCURVE",
"258 798 CURVE SMOOTH",
"186 579 OFFCURVE",
"125 314 OFFCURVE",
"104 78 CURVE SMOOTH",
"100 29 OFFCURVE",
"119 12 OFFCURVE",
"170 5 CURVE SMOOTH",
"221 -2 OFFCURVE",
"253 -5 OFFCURVE",
"309 -5 CURVE SMOOTH"
);
},
{
closed = 1;
nodes = (
"506 381 OFFCURVE",
"515 414 OFFCURVE",
"515 448 CURVE SMOOTH",
"515 484 OFFCURVE",
"496 503 OFFCURVE",
"406 503 CURVE SMOOTH",
"322 503 OFFCURVE",
"295 505 OFFCURVE",
"153 505 CURVE SMOOTH",
"69 505 OFFCURVE",
"30 484 OFFCURVE",
"30 429 CURVE SMOOTH",
"30 404 OFFCURVE",
"42 383 OFFCURVE",
"80 383 CURVE SMOOTH",
"136 383 OFFCURVE",
"158 384 OFFCURVE",
"250 384 CURVE SMOOTH",
"304 384 OFFCURVE",
"397 381 OFFCURVE",
"452 381 CURVE SMOOTH"
);
},
{
closed = 1;
nodes = (
"301 112 OFFCURVE",
"276 113 OFFCURVE",
"255 115 CURVE",
"270 283 OFFCURVE",
"322 543 OFFCURVE",
"388 743 CURVE",
"399 744 OFFCURVE",
"410 744 OFFCURVE",
"426 744 CURVE SMOOTH",
"562 744 OFFCURVE",
"667 665 OFFCURVE",
"667 489 CURVE SMOOTH",
"667 286 OFFCURVE",
"563 112 OFFCURVE",
"322 112 CURVE SMOOTH"
);
}
);
width = 828;
}
);
note = Eth;
rightMetricsKey = O;
unicode = 00D0;
},
{
color = 3;
glyphname = E;
lastChange = "2016-07-27 18:14:44 +0000";
layers = (
{
background = {
paths = (
{
closed = 1;
nodes = (
"1326 733 OFFCURVE",
"1368 705 OFFCURVE",
"1384 656 CURVE SMOOTH",
"1398 614 OFFCURVE",
"1425 596 OFFCURVE",
"1462 596 CURVE SMOOTH",
"1506 596 OFFCURVE",
"1530 625 OFFCURVE",
"1530 664 CURVE SMOOTH",
"1530 754 OFFCURVE",
"1442 848 OFFCURVE",
"1263 848 CURVE SMOOTH",
"1081 848 OFFCURVE",
"937 753 OFFCURVE",
"937 603 CURVE SMOOTH",
"937 527 OFFCURVE",
"996 450 OFFCURVE",
"1105 441 CURVE",
"1106 460 LINE",
"934 432 OFFCURVE",
"840 341 OFFCURVE",
"840 215 CURVE SMOOTH",
"840 90 OFFCURVE",
"959 -5 OFFCURVE",
"1203 -5 CURVE SMOOTH",
"1345 -5 OFFCURVE",
"1496 46 OFFCURVE",
"1591 121 CURVE SMOOTH",
"1649 167 OFFCURVE",
"1622 265 OFFCURVE",
"1554 218 CURVE SMOOTH",
"1478 166 OFFCURVE",
"1355 121 OFFCURVE",
"1214 121 CURVE SMOOTH",
"1065 121 OFFCURVE",
"999 165 OFFCURVE",
"999 239 CURVE SMOOTH",
"999 309 OFFCURVE",
"1061 380 OFFCURVE",
"1230 384 CURVE SMOOTH",
"1269 385 OFFCURVE",
"1288 417 OFFCURVE",
"1289 449 CURVE SMOOTH",
"1290 480 OFFCURVE",
"1280 494 OFFCURVE",
"1250 495 CURVE SMOOTH",
"1126 499 OFFCURVE",
"1091 548 OFFCURVE",
"1091 600 CURVE SMOOTH",
"1091 677 OFFCURVE",
"1158 733 OFFCURVE",
"1256 733 CURVE SMOOTH"
);
},
{
closed = 1;
nodes = (
"224 119 OFFCURVE",
"136 212 OFFCURVE",
"136 366 CURVE SMOOTH",
"136 606 OFFCURVE",
"268 730 OFFCURVE",
"392 730 CURVE SMOOTH",
"458 730 OFFCURVE",
"485 694 OFFCURVE",
"485 643 CURVE SMOOTH",
"485 611 OFFCURVE",
"475 584 OFFCURVE",
"475 562 CURVE SMOOTH",
"475 528 OFFCURVE",
"499 510 OFFCURVE",
"535 510 CURVE SMOOTH",
"593 510 OFFCURVE",
"622 567 OFFCURVE",
"622 646 CURVE SMOOTH",
"622 762 OFFCURVE",
"551 848 OFFCURVE",
"402 848 CURVE SMOOTH",
"170 848 OFFCURVE",
"-15 649 OFFCURVE",
"-15 348 CURVE SMOOTH",
"-15 134 OFFCURVE",
"133 -5 OFFCURVE",
"374 -5 CURVE SMOOTH",
"477 -5 OFFCURVE",
"585 15 OFFCURVE",
"697 69 CURVE",
"688 190 LINE",
"593 146 OFFCURVE",
"487 119 OFFCURVE",
"397 119 CURVE SMOOTH"
);
}
);
};
layerId = "ECEFE970-1BBB-4E0A-A452-CEB55884B4A3";
paths = (
{
closed = 1;
nodes = (
"558 733 OFFCURVE",
"585 694 OFFCURVE",
"585 656 CURVE SMOOTH",
"585 621 OFFCURVE",
"575 603 OFFCURVE",
"575 574 CURVE SMOOTH",
"575 540 OFFCURVE",
"599 522 OFFCURVE",
"635 522 CURVE SMOOTH",
"693 522 OFFCURVE",
"722 579 OFFCURVE",
"722 656 CURVE SMOOTH",
"722 762 OFFCURVE",
"647 848 OFFCURVE",
"474 848 CURVE SMOOTH",
"291 848 OFFCURVE",
"137 753 OFFCURVE",
"137 605 CURVE SMOOTH",
"137 527 OFFCURVE",
"192 450 OFFCURVE",
"305 441 CURVE",
"316 460 LINE",
"131 432 OFFCURVE",
"40 341 OFFCURVE",
"40 215 CURVE SMOOTH",
"40 92 OFFCURVE",
"159 -5 OFFCURVE",
"419 -5 CURVE SMOOTH",
"537 -5 OFFCURVE",
"677 15 OFFCURVE",
"789 69 CURVE",
"780 190 LINE",
"685 146 OFFCURVE",
"547 119 OFFCURVE",
"430 119 CURVE SMOOTH",
"260 119 OFFCURVE",
"191 164 OFFCURVE",
"191 240 CURVE SMOOTH",
"191 309 OFFCURVE",
"256 382 OFFCURVE",
"429 386 CURVE SMOOTH",
"477 387 OFFCURVE",
"488 417 OFFCURVE",
"489 449 CURVE SMOOTH",
"490 480 OFFCURVE",
"480 492 OFFCURVE",
"449 493 CURVE SMOOTH",
"326 497 OFFCURVE",
"287 548 OFFCURVE",
"287 604 CURVE SMOOTH",
"287 681 OFFCURVE",
"361 733 OFFCURVE",
"472 733 CURVE SMOOTH"
);
}
);
width = 679;
}
);
note = E;
unicode = 0045;
},
{
color = 3;
glyphname = F;
lastChange = "2016-07-27 18:30:03 +0000";
layers = (
{
background = {
paths = (
{
closed = 1;
nodes = (
"367 -8 OFFCURVE",
"468 89 OFFCURVE",
"502 297 CURVE SMOOTH",
"539 521 OFFCURVE",
"539 593 OFFCURVE",
"555 765 CURVE",
"405 754 LINE",
"392 601 OFFCURVE",
"387 525 OFFCURVE",
"352 285 CURVE SMOOTH",
"333 158 OFFCURVE",
"274 97 OFFCURVE",
"214 96 CURVE SMOOTH",
"160 95 OFFCURVE",
"117 124 OFFCURVE",
"86 166 CURVE SMOOTH",
"35 235 OFFCURVE",
"-17 143 OFFCURVE",
"15 93 CURVE SMOOTH",
"49 40 OFFCURVE",
"129 -8 OFFCURVE",
"224 -8 CURVE SMOOTH"
);
},
{
closed = 1;
nodes = (
"180 455 OFFCURVE",
"264 497 OFFCURVE",
"231 548 CURVE SMOOTH",
"222 562 OFFCURVE",
"211 585 OFFCURVE",
"211 613 CURVE SMOOTH",
"211 695 OFFCURVE",
"299 724 OFFCURVE",
"582 724 CURVE SMOOTH",
"701 724 OFFCURVE",
"763 719 OFFCURVE",
"867 711 CURVE SMOOTH",
"921 707 OFFCURVE",
"944 730 OFFCURVE",
"944 774 CURVE SMOOTH",
"944 798 OFFCURVE",
"926 822 OFFCURVE",
"882 830 CURVE SMOOTH",
"818 842 OFFCURVE",
"740 847 OFFCURVE",
"632 847 CURVE SMOOTH",
"267 847 OFFCURVE",
"92 781 OFFCURVE",
"92 611 CURVE SMOOTH",
"92 556 OFFCURVE",
"112 513 OFFCURVE",
"138 491 CURVE SMOOTH"
);
},
{
closed = 1;
nodes = (
"345 336 OFFCURVE",
"448 341 OFFCURVE",
"493 341 CURVE SMOOTH",
"530 341 OFFCURVE",
"634 340 OFFCURVE",
"679 340 CURVE SMOOTH",
"730 340 OFFCURVE",
"756 369 OFFCURVE",
"756 413 CURVE SMOOTH",
"756 438 OFFCURVE",
"729 461 OFFCURVE",
"694 461 CURVE SMOOTH",
"651 461 OFFCURVE",
"362 454 OFFCURVE",
"328 454 CURVE SMOOTH",
"285 454 OFFCURVE",
"260 425 OFFCURVE",
"260 381 CURVE SMOOTH",
"260 337 OFFCURVE",
"290 333 OFFCURVE",
"311 334 CURVE SMOOTH"
);
}
);
};
layerId = "ECEFE970-1BBB-4E0A-A452-CEB55884B4A3";
paths = (
{
closed = 1;
nodes = (
"377 -8 OFFCURVE",
"473 69 OFFCURVE",
"502 297 CURVE SMOOTH",
"531 521 OFFCURVE",
"536 593 OFFCURVE",
"550 765 CURVE",
"405 754 LINE",
"392 601 OFFCURVE",
"384 525 OFFCURVE",
"356 285 CURVE SMOOTH",
"340 148 OFFCURVE",
"284 94 OFFCURVE",
"218 93 CURVE SMOOTH",
"156 92 OFFCURVE",
"117 129 OFFCURVE",
"97 155 CURVE SMOOTH",
"72 187 OFFCURVE",
"59 194 OFFCURVE",
"44 194 CURVE SMOOTH",
"9 194 OFFCURVE",
"-10 132 OFFCURVE",
"15 93 CURVE SMOOTH",
"49 40 OFFCURVE",
"129 -8 OFFCURVE",
"224 -8 CURVE SMOOTH"
);
},
{
closed = 1;
nodes = (
"174 460 OFFCURVE",
"259 504 OFFCURVE",
"231 548 CURVE SMOOTH",
"222 562 OFFCURVE",
"211 585 OFFCURVE",
"211 613 CURVE SMOOTH",
"211 695 OFFCURVE",
"299 725 OFFCURVE",
"592 725 CURVE SMOOTH",
"701 725 OFFCURVE",
"763 719 OFFCURVE",
"867 711 CURVE SMOOTH",
"921 707 OFFCURVE",
"944 734 OFFCURVE",
"944 778 CURVE SMOOTH",
"944 802 OFFCURVE",
"933 823 OFFCURVE",
"892 829 CURVE SMOOTH",
"798 842 OFFCURVE",
"710 847 OFFCURVE",
"592 847 CURVE SMOOTH",
"277 847 OFFCURVE",
"92 781 OFFCURVE",
"92 611 CURVE SMOOTH",
"92 556 OFFCURVE",
"112 513 OFFCURVE",
"126 501 CURVE SMOOTH"
);
},
{
closed = 1;
nodes = (
"481 341 OFFCURVE",
"542 340 OFFCURVE",
"679 340 CURVE SMOOTH",
"730 340 OFFCURVE",
"756 369 OFFCURVE",
"756 413 CURVE SMOOTH",
"756 438 OFFCURVE",
"748 461 OFFCURVE",
"694 461 CURVE SMOOTH",
"651 461 OFFCURVE",
"362 454 OFFCURVE",
"326 454 CURVE SMOOTH",
"285 454 OFFCURVE",
"263 431 OFFCURVE",
"263 390 CURVE SMOOTH",
"263 356 OFFCURVE",
"290 340 OFFCURVE",
"319 340 CURVE SMOOTH"
);
}
);
width = 712;
}
);
note = F;
unicode = 0046;
},
{
color = 3;
glyphname = G;
lastChange = "2016-07-27 21:43:25 +0000";
layers = (
{
background = {
paths = (
{
closed = 1;
nodes = (
"625 238 OFFCURVE",
"619 172 OFFCURVE",
"604 60 CURVE SMOOTH",
"560 -268 OFFCURVE",
"497 -358 OFFCURVE",
"461 -358 CURVE SMOOTH",
"440 -358 OFFCURVE",
"433 -341 OFFCURVE",
"433 -319 CURVE SMOOTH",
"433 -259 OFFCURVE",
"487 -167 OFFCURVE",
"666 -39 CURVE",
"734 8 OFFCURVE",
"815 64 OFFCURVE",
"896 118 CURVE",
"874 213 LINE",
"794 159 OFFCURVE",
"726 108 OFFCURVE",
"666 61 CURVE",
"387 -142 OFFCURVE",
"335 -247 OFFCURVE",
"335 -341 CURVE SMOOTH",
"335 -408 OFFCURVE",
"381 -455 OFFCURVE",
"450 -455 CURVE SMOOTH",
"605 -455 OFFCURVE",
"682 -201 OFFCURVE",
"727 102 CURVE SMOOTH",
"746 231 OFFCURVE",
"755 290 OFFCURVE",
"759 330 CURVE SMOOTH",
"763 368 OFFCURVE",
"737 386 OFFCURVE",
"691 386 CURVE SMOOTH",
"539 386 LINE SMOOTH",
"496 386 OFFCURVE",
"469 363 OFFCURVE",
"469 326 CURVE SMOOTH",
"469 283 OFFCURVE",
"496 268 OFFCURVE",
"542 268 CURVE SMOOTH",
"672 268 LINE",
"631 290 LINE"
);
},
{
closed = 1;
nodes = (
"629 146 LINE",
"578 129 OFFCURVE",
"527 119 OFFCURVE",
"481 119 CURVE SMOOTH",
"308 119 OFFCURVE",
"220 212 OFFCURVE",
"220 366 CURVE SMOOTH",
"220 606 OFFCURVE",
"352 730 OFFCURVE",
"490 730 CURVE SMOOTH",
"570 730 OFFCURVE",
"597 694 OFFCURVE",
"597 646 CURVE SMOOTH",
"597 617 OFFCURVE",
"587 590 OFFCURVE",
"587 568 CURVE SMOOTH",
"587 537 OFFCURVE",
"611 519 OFFCURVE",
"647 519 CURVE SMOOTH",
"705 519 OFFCURVE",
"734 573 OFFCURVE",
"734 649 CURVE SMOOTH",
"734 762 OFFCURVE",
"663 848 OFFCURVE",
"500 848 CURVE SMOOTH",
"254 848 OFFCURVE",
"69 649 OFFCURVE",
"69 348 CURVE SMOOTH",
"69 134 OFFCURVE",
"217 -5 OFFCURVE",
"458 -5 CURVE SMOOTH",
"511 -5 OFFCURVE",
"565 7 OFFCURVE",
"618 27 CURVE"
);
}
);
};
layerId = "ECEFE970-1BBB-4E0A-A452-CEB55884B4A3";
paths = (
{
closed = 1;
nodes = (
"625 238 OFFCURVE",
"619 172 OFFCURVE",
"604 60 CURVE SMOOTH",
"560 -268 OFFCURVE",
"497 -358 OFFCURVE",
"461 -358 CURVE SMOOTH",
"440 -358 OFFCURVE",
"433 -341 OFFCURVE",
"433 -319 CURVE SMOOTH",
"433 -259 OFFCURVE",
"487 -167 OFFCURVE",
"666 -39 CURVE",
"734 8 OFFCURVE",
"815 64 OFFCURVE",
"896 118 CURVE",
"874 213 LINE",
"794 159 OFFCURVE",
"726 108 OFFCURVE",
"666 61 CURVE",
"387 -142 OFFCURVE",
"335 -247 OFFCURVE",
"335 -341 CURVE SMOOTH",
"335 -408 OFFCURVE",
"381 -455 OFFCURVE",
"450 -455 CURVE SMOOTH",
"605 -455 OFFCURVE",
"682 -201 OFFCURVE",
"727 102 CURVE SMOOTH",
"746 231 OFFCURVE",
"755 290 OFFCURVE",
"759 330 CURVE SMOOTH",
"763 368 OFFCURVE",
"737 386 OFFCURVE",
"691 386 CURVE SMOOTH",
"539 386 LINE SMOOTH",
"496 386 OFFCURVE",
"469 363 OFFCURVE",
"469 326 CURVE SMOOTH",
"469 283 OFFCURVE",
"496 268 OFFCURVE",
"542 268 CURVE SMOOTH",
"672 268 LINE",
"631 290 LINE"
);
},
{
closed = 1;
nodes = (
"629 156 LINE",
"578 133 OFFCURVE",
"527 119 OFFCURVE",
"471 119 CURVE SMOOTH",
"308 119 OFFCURVE",
"220 212 OFFCURVE",
"220 366 CURVE SMOOTH",
"220 606 OFFCURVE",
"352 730 OFFCURVE",
"490 730 CURVE SMOOTH",
"570 730 OFFCURVE",
"597 694 OFFCURVE",
"597 646 CURVE SMOOTH",
"597 617 OFFCURVE",
"587 590 OFFCURVE",
"587 568 CURVE SMOOTH",
"587 537 OFFCURVE",
"611 519 OFFCURVE",
"647 519 CURVE SMOOTH",
"705 519 OFFCURVE",
"734 573 OFFCURVE",
"734 649 CURVE SMOOTH",
"734 762 OFFCURVE",
"663 848 OFFCURVE",
"500 848 CURVE SMOOTH",
"254 848 OFFCURVE",
"69 649 OFFCURVE",
"69 348 CURVE SMOOTH",
"69 134 OFFCURVE",
"220 -5 OFFCURVE",
"445 -5 CURVE SMOOTH",
"511 -5 OFFCURVE",
"565 11 OFFCURVE",
"618 37 CURVE"
);
}
);
width = 802;
}
);
note = G;
unicode = 0047;
},
{
color = 3;
glyphname = H;
lastChange = "2016-07-27 18:55:00 +0000";
layers = (
{
background = {
paths = (
{
closed = 1;
nodes = (
"1408 439 OFFCURVE",
"1261 439 OFFCURVE",
"1243 439 CURVE SMOOTH",
"1173 439 OFFCURVE",
"1131 414 OFFCURVE",
"1131 371 CURVE SMOOTH",
"1131 336 OFFCURVE",
"1171 322 OFFCURVE",
"1214 322 CURVE SMOOTH",
"1252 322 OFFCURVE",
"1381 329 OFFCURVE",
"1564 338 CURVE SMOOTH",
"1897 354 OFFCURVE",
"2065 528 OFFCURVE",
"2065 734 CURVE SMOOTH",
"2065 827 OFFCURVE",
"2018 877 OFFCURVE",
"1946 877 CURVE SMOOTH",
"1743 877 OFFCURVE",
"1643 519 OFFCURVE",
"1643 285 CURVE SMOOTH",
"1643 105 OFFCURVE",
"1706 -5 OFFCURVE",
"1849 -5 CURVE SMOOTH",
"1944 -5 OFFCURVE",
"2013 59 OFFCURVE",
"2062 120 CURVE SMOOTH",
"2081 144 OFFCURVE",
"2089 169 OFFCURVE",
"2089 188 CURVE SMOOTH",
"2089 211 OFFCURVE",
"2080 227 OFFCURVE",
"2064 227 CURVE SMOOTH",
"2055 227 OFFCURVE",
"2044 222 OFFCURVE",
"2033 209 CURVE SMOOTH",
"1975 140 OFFCURVE",
"1934 114 OFFCURVE",
"1881 114 CURVE SMOOTH",
"1814 114 OFFCURVE",
"1787 182 OFFCURVE",
"1787 307 CURVE SMOOTH",
"1787 547 OFFCURVE",
"1876 785 OFFCURVE",
"1935 785 CURVE SMOOTH",
"1951 785 OFFCURVE",
"1961 762 OFFCURVE",
"1961 731 CURVE SMOOTH",
"1961 599 OFFCURVE",
"1896 504 OFFCURVE",
"1726 461 CURVE",
"1663 451 OFFCURVE",
"1609 447 OFFCURVE",
"1532 444 CURVE SMOOTH"
);
},
{
closed = 1;
nodes = (
"1230 848 OFFCURVE",
"1134 786 OFFCURVE",
"1078 708 CURVE SMOOTH",
"1057 679 OFFCURVE",
"1048 649 OFFCURVE",
"1048 626 CURVE SMOOTH",
"1048 601 OFFCURVE",
"1059 584 OFFCURVE",
"1075 584 CURVE SMOOTH",
"1086 584 OFFCURVE",
"1101 593 OFFCURVE",
"1116 613 CURVE SMOOTH",
"1175 691 OFFCURVE",
"1231 729 OFFCURVE",
"1274 729 CURVE SMOOTH",
"1300 729 OFFCURVE",
"1322 718 OFFCURVE",
"1322 659 CURVE SMOOTH",
"1322 531 OFFCURVE",
"1272 293 OFFCURVE",
"1220 78 CURVE SMOOTH",
"1207 24 OFFCURVE",
"1229 -7 OFFCURVE",
"1290 -7 CURVE SMOOTH",
"1335 -7 OFFCURVE",
"1366 14 OFFCURVE",
"1380 80 CURVE SMOOTH",
"1425 293 OFFCURVE",
"1467 534 OFFCURVE",
"1467 685 CURVE SMOOTH",
"1467 797 OFFCURVE",
"1417 848 OFFCURVE",
"1325 848 CURVE SMOOTH"
);
},
{
closed = 1;
nodes = (
"877 142 OFFCURVE",
"843 114 OFFCURVE",
"799 114 CURVE SMOOTH",
"757 114 OFFCURVE",
"735 144 OFFCURVE",
"735 217 CURVE SMOOTH",
"735 305 OFFCURVE",
"774 496 OFFCURVE",
"804 610 CURVE SMOOTH",
"818 663 OFFCURVE",
"780 680 OFFCURVE",
"735 680 CURVE SMOOTH",
"696 680 OFFCURVE",
"667 669 OFFCURVE",
"659 628 CURVE SMOOTH",
"585 247 OFFCURVE",
"518 116 OFFCURVE",
"397 116 CURVE SMOOTH",
"331 116 OFFCURVE",
"280 177 OFFCURVE",
"280 290 CURVE SMOOTH",
"280 516 OFFCURVE",
"407 728 OFFCURVE",
"669 728 CURVE SMOOTH",
"726 728 OFFCURVE",
"772 720 OFFCURVE",
"836 705 CURVE SMOOTH",
"909 688 OFFCURVE",
"954 800 OFFCURVE",
"885 820 CURVE SMOOTH",
"824 838 OFFCURVE",
"758 848 OFFCURVE",
"691 848 CURVE SMOOTH",
"320 848 OFFCURVE",
"129 576 OFFCURVE",
"129 280 CURVE SMOOTH",
"129 100 OFFCURVE",
"235 -5 OFFCURVE",
"375 -5 CURVE SMOOTH",
"481 -5 OFFCURVE",
"556 61 OFFCURVE",
"606 184 CURVE",
"588 187 LINE",
"592 68 OFFCURVE",
"652 -5 OFFCURVE",
"758 -5 CURVE SMOOTH",
"857 -5 OFFCURVE",
"914 49 OFFCURVE",
"969 116 CURVE",
"933 209 LINE"
);
}
);
};
layerId = "ECEFE970-1BBB-4E0A-A452-CEB55884B4A3";
paths = (
{
closed = 1;
nodes = (
"308 438 OFFCURVE",
"181 433 OFFCURVE",
"163 432 CURVE SMOOTH",
"103 429 OFFCURVE",
"81 409 OFFCURVE",
"81 366 CURVE SMOOTH",
"81 331 OFFCURVE",
"101 317 OFFCURVE",
"144 317 CURVE SMOOTH",
"182 317 OFFCURVE",
"281 326 OFFCURVE",
"404 335 CURVE SMOOTH",
"797 364 OFFCURVE",
"950 518 OFFCURVE",
"950 734 CURVE SMOOTH",
"950 827 OFFCURVE",
"904 877 OFFCURVE",
"835 877 CURVE SMOOTH",
"644 877 OFFCURVE",
"543 519 OFFCURVE",
"543 285 CURVE SMOOTH",
"543 73 OFFCURVE",
"631 -5 OFFCURVE",
"753 -5 CURVE SMOOTH",
"844 -5 OFFCURVE",
"914 49 OFFCURVE",
"969 116 CURVE",
"933 209 LINE",
"877 142 OFFCURVE",
"837 114 OFFCURVE",
"781 114 CURVE SMOOTH",
"724 114 OFFCURVE",
"684 159 OFFCURVE",
"684 307 CURVE SMOOTH",
"684 547 OFFCURVE",
"766 790 OFFCURVE",
"825 790 CURVE SMOOTH",
"841 790 OFFCURVE",
"851 765 OFFCURVE",
"851 731 CURVE SMOOTH",
"851 536 OFFCURVE",
"726 457 OFFCURVE",
"412 443 CURVE SMOOTH"
);
},
{
closed = 1;
nodes = (
"141 848 OFFCURVE",
"45 786 OFFCURVE",
"-11 708 CURVE SMOOTH",
"-70 626 OFFCURVE",
"-10 564 OFFCURVE",
"27 613 CURVE SMOOTH",
"86 691 OFFCURVE",
"139 729 OFFCURVE",
"185 729 CURVE SMOOTH",
"211 729 OFFCURVE",
"236 718 OFFCURVE",
"236 649 CURVE SMOOTH",
"236 531 OFFCURVE",
"183 293 OFFCURVE",
"132 87 CURVE SMOOTH",
"117 25 OFFCURVE",
"136 -7 OFFCURVE",
"197 -7 CURVE SMOOTH",
"232 -7 OFFCURVE",
"261 15 OFFCURVE",
"277 80 CURVE SMOOTH",
"330 293 OFFCURVE",
"378 534 OFFCURVE",
"378 665 CURVE SMOOTH",
"378 794 OFFCURVE",
"325 848 OFFCURVE",
"236 848 CURVE SMOOTH"
);
}
);
width = 854;
}
);
note = H;
unicode = 0048;
},
{
color = 3;
glyphname = I;
lastChange = "2016-07-27 18:57:07 +0000";
layers = (
{
background = {
paths = (
{
closed = 1;
nodes = (
"249 788 LINE",
"244 715 OFFCURVE",
"226 576 OFFCURVE",
"210 486 CURVE SMOOTH",
"203 446 OFFCURVE",
"195 403 OFFCURVE",
"187 355 CURVE SMOOTH",
"166 228 OFFCURVE",
"143 105 OFFCURVE",
"143 55 CURVE",
"297 55 LINE",
"302 128 OFFCURVE",
"321 267 OFFCURVE",
"336 357 CURVE SMOOTH",
"358 488 LINE SMOOTH",
"379 615 OFFCURVE",
"403 738 OFFCURVE",
"403 788 CURVE"
);
},
{
closed = 1;
nodes = (
"129 -2 OFFCURVE",
"222 -2 CURVE SMOOTH",
"259 -2 OFFCURVE",
"322 -6 OFFCURVE",
"367 -6 CURVE SMOOTH",
"418 -6 OFFCURVE",
"445 24 OFFCURVE",
"445 58 CURVE SMOOTH",
"446 93 OFFCURVE",
"429 115 OFFCURVE",
"354 116 CURVE SMOOTH",
"291 116 OFFCURVE",
"160 113 OFFCURVE",
"107 110 CURVE SMOOTH",
"30 105 OFFCURVE",
"-14 79 OFFCURVE",
"-15 29 CURVE SMOOTH",
"-15 -5 OFFCURVE",
"10 -19 OFFCURVE",
"37 -19 CURVE SMOOTH",
"69 -19 OFFCURVE"
);
},
{
closed = 1;
nodes = (
"229 720 OFFCURVE",
"291 723 OFFCURVE",
"336 723 CURVE SMOOTH",
"373 723 OFFCURVE",
"436 722 OFFCURVE",
"481 722 CURVE SMOOTH",
"532 722 OFFCURVE",
"558 753 OFFCURVE",
"558 797 CURVE SMOOTH",
"558 822 OFFCURVE",
"531 842 OFFCURVE",
"496 842 CURVE SMOOTH",
"413 842 OFFCURVE",
"254 844 OFFCURVE",
"201 841 CURVE SMOOTH",
"128 838 OFFCURVE",
"103 806 OFFCURVE",
"103 762 CURVE SMOOTH",
"103 718 OFFCURVE",
"135 717 OFFCURVE",
"166 718 CURVE SMOOTH"
);
}
);
};
layerId = "ECEFE970-1BBB-4E0A-A452-CEB55884B4A3";
paths = (
{
closed = 1;
nodes = (
"69 -18 OFFCURVE",
"129 -2 OFFCURVE",
"222 -2 CURVE SMOOTH",
"259 -2 OFFCURVE",
"322 -6 OFFCURVE",
"367 -6 CURVE SMOOTH",
"418 -6 OFFCURVE",
"445 24 OFFCURVE",
"445 58 CURVE SMOOTH",
"446 93 OFFCURVE",
"429 116 OFFCURVE",
"354 116 CURVE SMOOTH",
"291 116 OFFCURVE",
"160 111 OFFCURVE",
"107 110 CURVE SMOOTH",
"30 108 OFFCURVE",
"-15 80 OFFCURVE",
"-15 30 CURVE SMOOTH",
"-15 -4 OFFCURVE",
"10 -18 OFFCURVE",
"37 -18 CURVE SMOOTH"
);
},
{
closed = 1;
nodes = (
"229 720 OFFCURVE",
"291 723 OFFCURVE",
"336 723 CURVE SMOOTH",
"373 723 OFFCURVE",
"436 724 OFFCURVE",
"481 724 CURVE SMOOTH",
"532 724 OFFCURVE",
"558 755 OFFCURVE",
"558 797 CURVE SMOOTH",
"558 822 OFFCURVE",
"531 842 OFFCURVE",
"496 842 CURVE SMOOTH",
"413 842 OFFCURVE",
"254 844 OFFCURVE",
"201 841 CURVE SMOOTH",
"128 838 OFFCURVE",
"103 806 OFFCURVE",
"103 765 CURVE SMOOTH",
"103 740 OFFCURVE",
"115 720 OFFCURVE",
"166 720 CURVE SMOOTH"
);
},
{
closed = 1;
nodes = (
"252 778 LINE",
"245 717 OFFCURVE",
"228 576 OFFCURVE",
"212 486 CURVE SMOOTH",
"205 446 OFFCURVE",
"197 403 OFFCURVE",
"189 355 CURVE SMOOTH",
"168 228 OFFCURVE",
"148 105 OFFCURVE",
"143 55 CURVE",
"295 65 LINE",
"302 128 OFFCURVE",
"320 267 OFFCURVE",
"335 357 CURVE SMOOTH",
"357 488 LINE SMOOTH",
"378 615 OFFCURVE",
"402 740 OFFCURVE",
"405 788 CURVE"
);
}
);
width = 450;
}
);
note = I;
unicode = 0049;
},
{
color = 3;
glyphname = J;
lastChange = "2016-07-27 18:59:58 +0000";
layers = (
{
background = {
paths = (
{
closed = 1;
nodes = (
"121 438 OFFCURVE",
"227 493 OFFCURVE",
"195 548 CURVE SMOOTH",
"187 562 OFFCURVE",
"175 585 OFFCURVE",
"175 613 CURVE SMOOTH",
"175 695 OFFCURVE",
"263 724 OFFCURVE",
"426 724 CURVE SMOOTH",
"515 724 OFFCURVE",
"577 717 OFFCURVE",
"681 704 CURVE SMOOTH",
"735 697 OFFCURVE",
"758 723 OFFCURVE",
"758 767 CURVE SMOOTH",
"758 791 OFFCURVE",
"740 812 OFFCURVE",
"696 823 CURVE SMOOTH",
"632 839 OFFCURVE",
"554 847 OFFCURVE",
"476 847 CURVE SMOOTH",
"221 847 OFFCURVE",
"56 781 OFFCURVE",
"56 607 CURVE SMOOTH",
"56 566 OFFCURVE",
"67 528 OFFCURVE",
"84 500 CURVE SMOOTH"
);
},
{
closed = 1;
nodes = (
"552 739 LINE",
"544 668 OFFCURVE",
"538 624 OFFCURVE",
"532 571 CURVE SMOOTH",
"478 92 OFFCURVE",
"387 3 OFFCURVE",
"317 3 CURVE SMOOTH",
"283 3 OFFCURVE",
"259 28 OFFCURVE",
"260 74 CURVE SMOOTH",
"261 181 OFFCURVE",
"356 285 OFFCURVE",
"597 369 CURVE",
"597 475 LINE",
"317 386 OFFCURVE",
"131 224 OFFCURVE",
"131 55 CURVE SMOOTH",
"131 -42 OFFCURVE",
"202 -107 OFFCURVE",
"305 -107 CURVE SMOOTH",
"477 -107 OFFCURVE",
"617 83 OFFCURVE",
"680 556 CURVE SMOOTH",
"693 653 OFFCURVE",
"698 682 OFFCURVE",
"704 739 CURVE"
);
}
);
};
layerId = "ECEFE970-1BBB-4E0A-A452-CEB55884B4A3";
paths = (
{
closed = 1;
nodes = (
"121 438 OFFCURVE",
"227 493 OFFCURVE",
"195 548 CURVE SMOOTH",
"187 562 OFFCURVE",
"175 585 OFFCURVE",
"175 613 CURVE SMOOTH",
"175 695 OFFCURVE",
"263 726 OFFCURVE",
"446 726 CURVE SMOOTH",
"515 726 OFFCURVE",
"577 719 OFFCURVE",
"681 706 CURVE SMOOTH",
"735 699 OFFCURVE",
"753 723 OFFCURVE",
"753 767 CURVE SMOOTH",
"753 791 OFFCURVE",
"740 812 OFFCURVE",
"696 823 CURVE SMOOTH",
"632 839 OFFCURVE",
"554 847 OFFCURVE",
"476 847 CURVE SMOOTH",
"221 847 OFFCURVE",
"56 781 OFFCURVE",
"56 607 CURVE SMOOTH",
"56 566 OFFCURVE",
"67 528 OFFCURVE",
"84 500 CURVE SMOOTH"
);
},
{
closed = 1;
nodes = (
"554 739 LINE",
"546 668 OFFCURVE",
"540 624 OFFCURVE",
"534 571 CURVE SMOOTH",
"480 92 OFFCURVE",
"387 0 OFFCURVE",
"320 0 CURVE SMOOTH",
"283 0 OFFCURVE",
"259 25 OFFCURVE",
"260 74 CURVE SMOOTH",
"262 185 OFFCURVE",
"356 285 OFFCURVE",
"597 369 CURVE",
"597 469 LINE",
"353 394 OFFCURVE",
"131 259 OFFCURVE",
"131 58 CURVE SMOOTH",
"131 -33 OFFCURVE",
"192 -107 OFFCURVE",
"307 -107 CURVE SMOOTH",
"477 -107 OFFCURVE",
"617 83 OFFCURVE",
"680 556 CURVE SMOOTH",
"693 653 OFFCURVE",
"698 682 OFFCURVE",
"704 739 CURVE"
);
}
);
width = 676;
}
);
note = J;
unicode = 004A;
},
{
color = 3;
glyphname = K;
lastChange = "2016-07-27 22:35:20 +0000";
layers = (
{
background = {
paths = (
{
closed = 1;
nodes = (
"373 -8 OFFCURVE",
"462 67 OFFCURVE",
"491 261 CURVE SMOOTH",
"523 473 OFFCURVE",
"542 593 OFFCURVE",
"565 765 CURVE",
"415 754 LINE",
"394 601 OFFCURVE",
"356 333 OFFCURVE",
"342 240 CURVE SMOOTH",
"326 137 OFFCURVE",
"286 95 OFFCURVE",
"238 93 CURVE SMOOTH",
"186 91 OFFCURVE",
"160 119 OFFCURVE",
"120 195 CURVE SMOOTH",
"109 216 OFFCURVE",
"98 224 OFFCURVE",
"81 224 CURVE SMOOTH",
"40 224 OFFCURVE",
"18 160 OFFCURVE",
"38 111 CURVE SMOOTH",
"65 43 OFFCURVE",
"141 -8 OFFCURVE",
"235 -8 CURVE SMOOTH"
);
},
{
closed = 1;
nodes = (
"132 438 OFFCURVE",
"236 493 OFFCURVE",
"210 548 CURVE SMOOTH",
"203 562 OFFCURVE",
"190 585 OFFCURVE",
"190 623 CURVE SMOOTH",
"190 696 OFFCURVE",
"248 734 OFFCURVE",
"353 734 CURVE SMOOTH",
"412 734 OFFCURVE",
"466 725 OFFCURVE",
"538 711 CURVE SMOOTH",
"579 703 OFFCURVE",
"602 723 OFFCURVE",
"602 767 CURVE SMOOTH",
"602 796 OFFCURVE",
"585 813 OFFCURVE",
"553 823 CURVE SMOOTH",
"489 843 OFFCURVE",
"437 847 OFFCURVE",
"383 847 CURVE SMOOTH",
"169 847 OFFCURVE",
"71 738 OFFCURVE",
"71 617 CURVE SMOOTH",
"71 566 OFFCURVE",
"84 528 OFFCURVE",
"99 500 CURVE SMOOTH"
);
},
{
closed = 1;
nodes = (
"937 -5 OFFCURVE",
"997 49 OFFCURVE",
"1052 116 CURVE",
"1016 209 LINE",
"960 142 OFFCURVE",
"926 114 OFFCURVE",
"882 114 CURVE SMOOTH",
"834 114 OFFCURVE",
"810 147 OFFCURVE",
"769 235 CURVE SMOOTH",
"717 346 OFFCURVE",
"678 390 OFFCURVE",
"512 390 CURVE",
"473 336 LINE",
"542 336 OFFCURVE",
"563 315 OFFCURVE",
"627 174 CURVE SMOOTH",
"678 61 OFFCURVE",
"731 -5 OFFCURVE",
"839 -5 CURVE SMOOTH"
);
},
{
closed = 1;
nodes = (
"988 814 OFFCURVE",
"965 842 OFFCURVE",
"914 842 CURVE SMOOTH",
"865 842 OFFCURVE",
"836 821 OFFCURVE",
"824 784 CURVE SMOOTH",
"761 591 OFFCURVE",
"667 441 OFFCURVE",
"476 441 CURVE SMOOTH",
"430 441 OFFCURVE",
"397 441 OFFCURVE",
"338 441 CURVE SMOOTH",
"313 441 OFFCURVE",
"291 420 OFFCURVE",
"291 384 CURVE SMOOTH",
"291 354 OFFCURVE",
"309 335 OFFCURVE",
"340 335 CURVE SMOOTH",
"493 336 LINE",
"547 367 LINE",
"697 380 OFFCURVE",
"891 493 OFFCURVE",
"975 771 CURVE SMOOTH"
);
}
);
};
layerId = "ECEFE970-1BBB-4E0A-A452-CEB55884B4A3";
paths = (
{
closed = 1;
nodes = (
"373 -8 OFFCURVE",
"459 67 OFFCURVE",
"488 261 CURVE SMOOTH",
"520 473 OFFCURVE",
"539 593 OFFCURVE",
"562 765 CURVE",
"415 754 LINE",
"394 601 OFFCURVE",
"356 333 OFFCURVE",
"342 240 CURVE SMOOTH",
"326 137 OFFCURVE",
"286 95 OFFCURVE",
"238 93 CURVE SMOOTH",
"186 91 OFFCURVE",
"160 119 OFFCURVE",
"120 195 CURVE SMOOTH",
"109 216 OFFCURVE",
"98 224 OFFCURVE",
"81 224 CURVE SMOOTH",
"40 224 OFFCURVE",
"18 160 OFFCURVE",
"38 111 CURVE SMOOTH",
"65 43 OFFCURVE",
"141 -8 OFFCURVE",
"235 -8 CURVE SMOOTH"
);
},
{
closed = 1;
nodes = (
"132 438 OFFCURVE",
"236 493 OFFCURVE",
"210 548 CURVE SMOOTH",
"203 562 OFFCURVE",
"190 585 OFFCURVE",
"190 623 CURVE SMOOTH",
"190 696 OFFCURVE",
"248 734 OFFCURVE",
"353 734 CURVE SMOOTH",
"412 734 OFFCURVE",
"466 725 OFFCURVE",
"538 711 CURVE SMOOTH",
"579 703 OFFCURVE",
"602 723 OFFCURVE",
"602 767 CURVE SMOOTH",
"602 796 OFFCURVE",
"585 813 OFFCURVE",
"553 823 CURVE SMOOTH",
"489 843 OFFCURVE",
"437 847 OFFCURVE",
"383 847 CURVE SMOOTH",
"169 847 OFFCURVE",
"71 738 OFFCURVE",
"71 617 CURVE SMOOTH",
"71 566 OFFCURVE",
"84 528 OFFCURVE",
"99 500 CURVE SMOOTH"
);
},
{
closed = 1;
nodes = (
"937 -5 OFFCURVE",
"997 49 OFFCURVE",
"1052 116 CURVE",
"1016 209 LINE",
"960 142 OFFCURVE",
"926 114 OFFCURVE",
"882 114 CURVE SMOOTH",
"834 114 OFFCURVE",
"802 147 OFFCURVE",
"761 235 CURVE SMOOTH",
"709 346 OFFCURVE",
"678 390 OFFCURVE",
"512 390 CURVE",
"473 336 LINE",
"542 336 OFFCURVE",
"563 315 OFFCURVE",
"627 174 CURVE SMOOTH",
"678 61 OFFCURVE",
"731 -5 OFFCURVE",
"839 -5 CURVE SMOOTH"
);
},
{
closed = 1;
nodes = (
"980 814 OFFCURVE",
"957 842 OFFCURVE",
"914 842 CURVE SMOOTH",
"865 842 OFFCURVE",
"836 821 OFFCURVE",
"824 784 CURVE SMOOTH",
"761 591 OFFCURVE",
"667 441 OFFCURVE",
"476 441 CURVE SMOOTH",
"430 441 OFFCURVE",
"397 441 OFFCURVE",
"338 441 CURVE SMOOTH",
"313 441 OFFCURVE",
"291 420 OFFCURVE",
"291 384 CURVE SMOOTH",
"291 354 OFFCURVE",
"309 335 OFFCURVE",
"340 335 CURVE SMOOTH",
"493 336 LINE",
"547 367 LINE",
"697 380 OFFCURVE",
"883 493 OFFCURVE",
"967 771 CURVE SMOOTH"
);
}
);
width = 937;
}
);
note = K;
unicode = 004B;
},
{
color = 3;
glyphname = L;
lastChange = "2016-07-27 22:28:52 +0000";
layers = (
{
background = {
paths = (
{
closed = 1;
nodes = (
"2755 -5 OFFCURVE",
"2836 43 OFFCURVE",
"2902 137 CURVE SMOOTH",
"2950 206 OFFCURVE",
"2927 278 OFFCURVE",
"2871 222 CURVE SMOOTH",
"2810 161 OFFCURVE",
"2762 136 OFFCURVE",
"2695 136 CURVE SMOOTH",
"2584 136 OFFCURVE",
"2429 279 OFFCURVE",
"2216 279 CURVE",
"2195 189 LINE",
"2324 189 OFFCURVE",
"2483 -5 OFFCURVE",
"2668 -5 CURVE SMOOTH"
);
},
{
closed = 1;
nodes = (
"2468 848 OFFCURVE",
"2285 733 OFFCURVE",
"2267 491 CURVE SMOOTH",
"2260 395 OFFCURVE",
"2260 318 OFFCURVE",
"2255 244 CURVE SMOOTH",
"2247 125 OFFCURVE",
"2223 84 OFFCURVE",
"2176 84 CURVE SMOOTH",
"2148 84 OFFCURVE",
"2129 104 OFFCURVE",
"2129 132 CURVE SMOOTH",
"2129 167 OFFCURVE",
"2156 189 OFFCURVE",
"2195 189 CURVE",
"2216 279 LINE",
"2087 279 OFFCURVE",
"2020 207 OFFCURVE",
"2020 126 CURVE SMOOTH",
"2020 46 OFFCURVE",
"2087 -5 OFFCURVE",
"2173 -5 CURVE SMOOTH",
"2323 -5 OFFCURVE",
"2376 108 OFFCURVE",
"2394 251 CURVE SMOOTH",
"2401 308 OFFCURVE",
"2410 371 OFFCURVE",
"2423 488 CURVE SMOOTH",
"2441 650 OFFCURVE",
"2513 738 OFFCURVE",
"2642 738 CURVE SMOOTH",
"2708 738 OFFCURVE",
"2745 704 OFFCURVE",
"2745 645 CURVE SMOOTH",
"2745 600 OFFCURVE",
"2738 588 OFFCURVE",
"2738 562 CURVE SMOOTH",
"2738 526 OFFCURVE",
"2762 506 OFFCURVE",
"2796 506 CURVE SMOOTH",
"2858 506 OFFCURVE",
"2882 567 OFFCURVE",
"2882 646 CURVE SMOOTH",
"2882 769 OFFCURVE",
"2798 848 OFFCURVE",
"2644 848 CURVE SMOOTH"
);
},
{
closed = 1;
nodes = (
"1655 -5 OFFCURVE",
"1736 43 OFFCURVE",
"1802 137 CURVE SMOOTH",
"1850 206 OFFCURVE",
"1827 278 OFFCURVE",
"1771 222 CURVE SMOOTH",
"1710 161 OFFCURVE",
"1662 136 OFFCURVE",
"1595 136 CURVE SMOOTH",
"1484 136 OFFCURVE",
"1329 279 OFFCURVE",
"1116 279 CURVE",
"1095 189 LINE",
"1224 189 OFFCURVE",
"1383 -5 OFFCURVE",
"1568 -5 CURVE SMOOTH"
);
},
{
closed = 1;
nodes = (
"1368 848 OFFCURVE",
"1185 733 OFFCURVE",
"1167 491 CURVE SMOOTH",
"1160 395 OFFCURVE",
"1160 318 OFFCURVE",
"1155 244 CURVE SMOOTH",
"1147 125 OFFCURVE",
"1123 84 OFFCURVE",
"1076 84 CURVE SMOOTH",
"1048 84 OFFCURVE",
"1029 104 OFFCURVE",
"1029 132 CURVE SMOOTH",
"1029 167 OFFCURVE",
"1056 189 OFFCURVE",
"1095 189 CURVE",
"1116 279 LINE",
"987 279 OFFCURVE",
"920 207 OFFCURVE",
"920 126 CURVE SMOOTH",
"920 46 OFFCURVE",
"987 -5 OFFCURVE",
"1073 -5 CURVE SMOOTH",
"1223 -5 OFFCURVE",
"1276 108 OFFCURVE",
"1294 251 CURVE SMOOTH",
"1301 308 OFFCURVE",
"1310 371 OFFCURVE",
"1323 488 CURVE SMOOTH",
"1341 650 OFFCURVE",
"1413 730 OFFCURVE",
"1532 730 CURVE SMOOTH",
"1598 730 OFFCURVE",
"1625 694 OFFCURVE",
"1625 645 CURVE SMOOTH",
"1625 611 OFFCURVE",
"1615 584 OFFCURVE",
"1615 562 CURVE SMOOTH",
"1615 528 OFFCURVE",
"1639 510 OFFCURVE",
"1675 510 CURVE SMOOTH",
"1733 510 OFFCURVE",
"1762 567 OFFCURVE",
"1762 646 CURVE SMOOTH",
"1762 762 OFFCURVE",
"1697 848 OFFCURVE",
"1540 848 CURVE SMOOTH"
);
},
{
closed = 1;
nodes = (
"711 142 OFFCURVE",
"677 114 OFFCURVE",
"633 114 CURVE SMOOTH",
"591 114 OFFCURVE",
"569 144 OFFCURVE",
"569 217 CURVE SMOOTH",
"569 305 OFFCURVE",
"608 496 OFFCURVE",
"638 610 CURVE SMOOTH",
"652 663 OFFCURVE",
"614 680 OFFCURVE",
"569 680 CURVE SMOOTH",
"530 680 OFFCURVE",
"501 669 OFFCURVE",
"493 628 CURVE SMOOTH",
"419 247 OFFCURVE",
"352 116 OFFCURVE",
"231 116 CURVE SMOOTH",
"165 116 OFFCURVE",
"114 177 OFFCURVE",
"114 290 CURVE SMOOTH",
"114 516 OFFCURVE",
"241 728 OFFCURVE",
"503 728 CURVE SMOOTH",
"560 728 OFFCURVE",
"606 720 OFFCURVE",
"670 705 CURVE SMOOTH",
"743 688 OFFCURVE",
"788 800 OFFCURVE",
"719 820 CURVE SMOOTH",
"658 838 OFFCURVE",
"592 848 OFFCURVE",
"525 848 CURVE SMOOTH",
"154 848 OFFCURVE",
"-37 576 OFFCURVE",
"-37 280 CURVE SMOOTH",
"-37 100 OFFCURVE",
"69 -5 OFFCURVE",
"209 -5 CURVE SMOOTH",
"315 -5 OFFCURVE",
"390 61 OFFCURVE",
"440 184 CURVE",
"422 187 LINE",
"426 68 OFFCURVE",
"486 -5 OFFCURVE",
"592 -5 CURVE SMOOTH",
"691 -5 OFFCURVE",
"748 49 OFFCURVE",
"803 116 CURVE",
"767 209 LINE"
);
}
);
};
layerId = "ECEFE970-1BBB-4E0A-A452-CEB55884B4A3";
paths = (
{
closed = 1;
nodes = (
"655 -5 OFFCURVE",
"718 25 OFFCURVE",
"793 116 CURVE",
"757 208 LINE",
"711 154 OFFCURVE",
"657 130 OFFCURVE",
"575 130 CURVE SMOOTH",
"494 130 OFFCURVE",
"329 203 OFFCURVE",
"141 203 CURVE",
"95 118 LINE",
"304 118 OFFCURVE",
"393 -5 OFFCURVE",
"558 -5 CURVE SMOOTH"
);
},
{
closed = 1;
nodes = (
"141 181 LINE",
"141 203 LINE",
"34 203 OFFCURVE",
"-31 151 OFFCURVE",
"-31 87 CURVE SMOOTH",
"-31 32 OFFCURVE",
"17 -5 OFFCURVE",
"92 -5 CURVE SMOOTH",
"223 -5 OFFCURVE",
"282 108 OFFCURVE",
"299 271 CURVE SMOOTH",
"322 498 LINE SMOOTH",
"338 660 OFFCURVE",
"403 732 OFFCURVE",
"513 732 CURVE SMOOTH",
"579 732 OFFCURVE",
"608 694 OFFCURVE",
"608 645 CURVE SMOOTH",
"608 611 OFFCURVE",
"598 584 OFFCURVE",
"598 562 CURVE SMOOTH",
"598 528 OFFCURVE",
"622 510 OFFCURVE",
"658 510 CURVE SMOOTH",
"716 510 OFFCURVE",
"745 567 OFFCURVE",
"745 646 CURVE SMOOTH",
"745 762 OFFCURVE",
"670 848 OFFCURVE",
"521 848 CURVE SMOOTH",
"434 848 OFFCURVE",
"353 821 OFFCURVE",
"291 767 CURVE SMOOTH",
"225 710 OFFCURVE",
"181 631 OFFCURVE",
"172 491 CURVE SMOOTH",
"153 194 LINE",
"151 181 LINE"
);
}
);
width = 678;
}
);
note = L;
unicode = 004C;
},
{
color = 3;
glyphname = Lslash;
lastChange = "2016-07-27 22:29:09 +0000";
layers = (
{
background = {
paths = (
{
closed = 1;
nodes = (
"651 908 OFFCURVE",
"694 896 OFFCURVE",
"719 896 CURVE SMOOTH",
"749 896 OFFCURVE",
"772 911 OFFCURVE",
"772 942 CURVE SMOOTH",
"772 976 OFFCURVE",
"722 1013 OFFCURVE",
"584 1013 CURVE SMOOTH",
"477 1013 OFFCURVE",
"380 987 OFFCURVE",
"324 964 CURVE SMOOTH",
"258 937 OFFCURVE",
"248 916 OFFCURVE",
"248 887 CURVE SMOOTH",
"248 866 OFFCURVE",
"262 845 OFFCURVE",
"292 845 CURVE SMOOTH",
"336 845 OFFCURVE",
"417 908 OFFCURVE",
"586 908 CURVE SMOOTH"
);
},
{
closed = 1;
nodes = (
"655 -5 OFFCURVE",
"736 43 OFFCURVE",
"802 137 CURVE SMOOTH",
"850 206 OFFCURVE",
"827 278 OFFCURVE",
"771 222 CURVE SMOOTH",
"710 161 OFFCURVE",
"662 136 OFFCURVE",
"595 136 CURVE SMOOTH",
"484 136 OFFCURVE",
"329 279 OFFCURVE",
"116 279 CURVE",
"95 189 LINE",
"224 189 OFFCURVE",
"383 -5 OFFCURVE",
"568 -5 CURVE SMOOTH"
);
},
{
closed = 1;
nodes = (
"368 828 OFFCURVE",
"183 713 OFFCURVE",
"167 491 CURVE SMOOTH",
"160 395 OFFCURVE",
"160 318 OFFCURVE",
"155 244 CURVE SMOOTH",
"147 125 OFFCURVE",
"123 84 OFFCURVE",
"76 84 CURVE SMOOTH",
"48 84 OFFCURVE",
"29 104 OFFCURVE",
"29 132 CURVE SMOOTH",
"29 167 OFFCURVE",
"56 189 OFFCURVE",
"95 189 CURVE",
"116 279 LINE",
"-13 279 OFFCURVE",
"-80 207 OFFCURVE",
"-80 126 CURVE SMOOTH",
"-80 46 OFFCURVE",
"-13 -5 OFFCURVE",
"73 -5 CURVE SMOOTH",
"223 -5 OFFCURVE",
"276 108 OFFCURVE",
"294 251 CURVE SMOOTH",
"301 308 OFFCURVE",
"310 371 OFFCURVE",
"323 488 CURVE SMOOTH",
"339 630 OFFCURVE",
"413 718 OFFCURVE",
"542 718 CURVE SMOOTH",
"608 718 OFFCURVE",
"645 684 OFFCURVE",
"645 625 CURVE SMOOTH",
"645 580 OFFCURVE",
"638 568 OFFCURVE",
"638 542 CURVE SMOOTH",
"638 506 OFFCURVE",
"662 486 OFFCURVE",
"696 486 CURVE SMOOTH",
"758 486 OFFCURVE",
"782 547 OFFCURVE",
"782 626 CURVE SMOOTH",
"782 749 OFFCURVE",
"698 828 OFFCURVE",
"544 828 CURVE SMOOTH"
);
}
);
};
layerId = "ECEFE970-1BBB-4E0A-A452-CEB55884B4A3";
paths = (
{
closed = 1;
nodes = (
"651 908 OFFCURVE",
"694 896 OFFCURVE",
"719 896 CURVE SMOOTH",
"749 896 OFFCURVE",
"772 911 OFFCURVE",
"772 942 CURVE SMOOTH",
"772 976 OFFCURVE",
"722 1013 OFFCURVE",
"584 1013 CURVE SMOOTH",
"477 1013 OFFCURVE",
"380 987 OFFCURVE",
"324 964 CURVE SMOOTH",
"258 937 OFFCURVE",
"248 916 OFFCURVE",
"248 887 CURVE SMOOTH",
"248 866 OFFCURVE",
"262 845 OFFCURVE",
"292 845 CURVE SMOOTH",
"336 845 OFFCURVE",
"417 908 OFFCURVE",
"586 908 CURVE SMOOTH"
);
},
{
closed = 1;
nodes = (
"655 -5 OFFCURVE",
"718 25 OFFCURVE",
"793 116 CURVE",
"757 208 LINE",
"711 154 OFFCURVE",
"657 130 OFFCURVE",
"575 130 CURVE SMOOTH",
"494 130 OFFCURVE",
"329 203 OFFCURVE",
"141 203 CURVE",
"95 118 LINE",
"304 118 OFFCURVE",
"393 -5 OFFCURVE",
"558 -5 CURVE SMOOTH"
);
},
{
closed = 1;
nodes = (
"141 181 LINE",
"141 203 LINE",
"34 203 OFFCURVE",
"-31 151 OFFCURVE",
"-31 87 CURVE SMOOTH",
"-31 32 OFFCURVE",
"17 -5 OFFCURVE",
"92 -5 CURVE SMOOTH",
"223 -5 OFFCURVE",
"282 108 OFFCURVE",
"299 271 CURVE SMOOTH",
"322 498 LINE SMOOTH",
"336 640 OFFCURVE",
"403 712 OFFCURVE",
"513 712 CURVE SMOOTH",
"579 712 OFFCURVE",
"608 674 OFFCURVE",
"608 625 CURVE SMOOTH",
"608 591 OFFCURVE",
"598 564 OFFCURVE",
"598 542 CURVE SMOOTH",
"598 508 OFFCURVE",
"622 490 OFFCURVE",
"658 490 CURVE SMOOTH",
"716 490 OFFCURVE",
"745 547 OFFCURVE",
"745 626 CURVE SMOOTH",
"745 742 OFFCURVE",
"670 828 OFFCURVE",
"521 828 CURVE SMOOTH",
"434 828 OFFCURVE",
"353 801 OFFCURVE",
"291 747 CURVE SMOOTH",
"225 690 OFFCURVE",
"180 611 OFFCURVE",
"172 491 CURVE SMOOTH",
"153 194 LINE",
"151 181 LINE"
);
}
);
width = 678;
}
);
leftMetricsKey = L;
note = Lslash;
rightMetricsKey = L;
unicode = 0141;
},
{
color = 3;
glyphname = M;
lastChange = "2016-07-27 21:07:23 +0000";
layers = (
{
background = {
paths = (
{
closed = 1;
nodes = (
"2682 227 OFFCURVE",
"2672 222 OFFCURVE",
"2662 209 CURVE SMOOTH",
"2610 141 OFFCURVE",
"2572 114 OFFCURVE",
"2528 114 CURVE SMOOTH",
"2485 114 OFFCURVE",
"2455 141 OFFCURVE",
"2455 198 CURVE SMOOTH",
"2455 229 OFFCURVE",
"2459 254 OFFCURVE",
"2465 284 CURVE SMOOTH",
"2526 570 LINE SMOOTH",
"2534 609 OFFCURVE",
"2539 645 OFFCURVE",
"2539 677 CURVE SMOOTH",
"2539 783 OFFCURVE",
"2489 848 OFFCURVE",
"2388 848 CURVE SMOOTH",
"2277 848 OFFCURVE",
"2185 782 OFFCURVE",
"2115 590 CURVE",
"2123 628 OFFCURVE",
"2124 646 OFFCURVE",
"2124 669 CURVE SMOOTH",
"2124 785 OFFCURVE",
"2071 848 OFFCURVE",
"1977 848 CURVE SMOOTH",
"1872 848 OFFCURVE",
"1781 790 OFFCURVE",
"1687 538 CURVE",
"1698 614 OFFCURVE",
"1705 670 OFFCURVE",
"1705 715 CURVE SMOOTH",
"1705 801 OFFCURVE",
"1669 848 OFFCURVE",
"1589 848 CURVE SMOOTH",
"1479 848 OFFCURVE",
"1404 774 OFFCURVE",
"1356 708 CURVE SMOOTH",
"1335 679 OFFCURVE",
"1326 649 OFFCURVE",
"1326 626 CURVE SMOOTH",
"1326 601 OFFCURVE",
"1337 584 OFFCURVE",
"1353 584 CURVE SMOOTH",
"1364 584 OFFCURVE",
"1379 593 OFFCURVE",
"1394 613 CURVE SMOOTH",
"1453 691 OFFCURVE",
"1504 729 OFFCURVE",
"1534 729 CURVE SMOOTH",
"1554 729 OFFCURVE",
"1570 718 OFFCURVE",
"1570 679 CURVE SMOOTH",
"1570 653 OFFCURVE",
"1565 615 OFFCURVE",
"1558 559 CURVE SMOOTH",
"1530 333 OFFCURVE",
"1490 159 OFFCURVE",
"1490 84 CURVE SMOOTH",
"1490 26 OFFCURVE",
"1516 -5 OFFCURVE",
"1558 -5 CURVE SMOOTH",
"1622 -5 OFFCURVE",
"1640 25 OFFCURVE",
"1649 86 CURVE SMOOTH",
"1721 575 OFFCURVE",
"1851 721 OFFCURVE",
"1935 721 CURVE SMOOTH",
"1966 721 OFFCURVE",
"1985 698 OFFCURVE",
"1985 647 CURVE SMOOTH",
"1985 587 OFFCURVE",
"1959 456 OFFCURVE",
"1936 335 CURVE SMOOTH",
"1924 272 OFFCURVE",
"1897 135 OFFCURVE",
"1897 81 CURVE SMOOTH",
"1897 20 OFFCURVE",
"1928 -5 OFFCURVE",
"1971 -5 CURVE SMOOTH",
"2014 -5 OFFCURVE",
"2045 25 OFFCURVE",
"2055 96 CURVE SMOOTH",
"2122 575 OFFCURVE",
"2251 721 OFFCURVE",
"2335 721 CURVE SMOOTH",
"2366 721 OFFCURVE",
"2385 698 OFFCURVE",
"2385 651 CURVE SMOOTH",
"2385 607 OFFCURVE",
"2375 572 OFFCURVE",
"2367 535 CURVE SMOOTH",
"2326 352 LINE SMOOTH",
"2308 273 OFFCURVE",
"2302 221 OFFCURVE",
"2302 181 CURVE SMOOTH",
"2302 69 OFFCURVE",
"2369 -5 OFFCURVE",
"2481 -5 CURVE SMOOTH",
"2559 -5 OFFCURVE",
"2646 38 OFFCURVE",
"2693 124 CURVE SMOOTH",
"2705 146 OFFCURVE",
"2710 169 OFFCURVE",
"2710 187 CURVE SMOOTH",
"2710 210 OFFCURVE",
"2702 227 OFFCURVE",
"2689 227 CURVE SMOOTH"
);
},
{
closed = 1;
nodes = (
"1195 142 OFFCURVE",
"1161 114 OFFCURVE",
"1117 114 CURVE SMOOTH",
"1075 114 OFFCURVE",
"1053 144 OFFCURVE",
"1053 217 CURVE SMOOTH",
"1053 305 OFFCURVE",
"1092 496 OFFCURVE",
"1122 610 CURVE SMOOTH",
"1136 663 OFFCURVE",
"1098 680 OFFCURVE",
"1053 680 CURVE SMOOTH",
"1014 680 OFFCURVE",
"985 669 OFFCURVE",
"977 628 CURVE SMOOTH",
"903 247 OFFCURVE",
"836 116 OFFCURVE",
"715 116 CURVE SMOOTH",
"649 116 OFFCURVE",
"598 177 OFFCURVE",
"598 290 CURVE SMOOTH",
"598 516 OFFCURVE",
"725 728 OFFCURVE",
"987 728 CURVE SMOOTH",
"1044 728 OFFCURVE",
"1090 720 OFFCURVE",
"1154 705 CURVE SMOOTH",
"1227 688 OFFCURVE",
"1272 800 OFFCURVE",
"1203 820 CURVE SMOOTH",
"1142 838 OFFCURVE",
"1076 848 OFFCURVE",
"1009 848 CURVE SMOOTH",
"638 848 OFFCURVE",
"447 576 OFFCURVE",
"447 280 CURVE SMOOTH",
"447 100 OFFCURVE",
"553 -5 OFFCURVE",
"693 -5 CURVE SMOOTH",
"799 -5 OFFCURVE",
"874 61 OFFCURVE",
"924 184 CURVE",
"906 187 LINE",
"910 68 OFFCURVE",
"970 -5 OFFCURVE",
"1076 -5 CURVE SMOOTH",
"1175 -5 OFFCURVE",
"1232 49 OFFCURVE",
"1287 116 CURVE",
"1251 209 LINE"
);
}
);
};
layerId = "ECEFE970-1BBB-4E0A-A452-CEB55884B4A3";
paths = (
{
closed = 1;
nodes = (
"1251 209 LINE",
"1195 142 OFFCURVE",
"1157 114 OFFCURVE",
"1112 114 CURVE SMOOTH",
"1072 114 OFFCURVE",
"1044 141 OFFCURVE",
"1044 198 CURVE SMOOTH",
"1044 229 OFFCURVE",
"1048 254 OFFCURVE",
"1054 284 CURVE SMOOTH",
"1115 570 LINE SMOOTH",
"1123 609 OFFCURVE",
"1128 645 OFFCURVE",
"1128 677 CURVE SMOOTH",
"1128 783 OFFCURVE",
"1078 848 OFFCURVE",
"979 848 CURVE SMOOTH",
"870 848 OFFCURVE",
"778 782 OFFCURVE",
"708 590 CURVE",
"715 628 OFFCURVE",
"717 653 OFFCURVE",
"717 672 CURVE SMOOTH",
"717 785 OFFCURVE",
"664 848 OFFCURVE",
"577 848 CURVE SMOOTH",
"474 848 OFFCURVE",
"373 790 OFFCURVE",
"291 556 CURVE",
"301 614 OFFCURVE",
"311 666 OFFCURVE",
"311 711 CURVE SMOOTH",
"311 801 OFFCURVE",
"269 848 OFFCURVE",
"191 848 CURVE SMOOTH",
"112 848 OFFCURVE",
"30 797 OFFCURVE",
"-34 708 CURVE SMOOTH",
"-55 679 OFFCURVE",
"-62 659 OFFCURVE",
"-62 638 CURVE SMOOTH",
"-62 603 OFFCURVE",
"-26 573 OFFCURVE",
"4 613 CURVE SMOOTH",
"67 697 OFFCURVE",
"117 724 OFFCURVE",
"147 724 CURVE SMOOTH",
"167 724 OFFCURVE",
"180 713 OFFCURVE",
"180 679 CURVE SMOOTH",
"180 653 OFFCURVE",
"178 615 OFFCURVE",
"171 559 CURVE SMOOTH",
"143 333 OFFCURVE",
"100 159 OFFCURVE",
"100 84 CURVE SMOOTH",
"100 20 OFFCURVE",
"125 -5 OFFCURVE",
"171 -5 CURVE SMOOTH",
"232 -5 OFFCURVE",
"242 25 OFFCURVE",
"250 86 CURVE SMOOTH",
"321 604 OFFCURVE",
"451 721 OFFCURVE",
"535 721 CURVE SMOOTH",
"571 721 OFFCURVE",
"590 698 OFFCURVE",
"590 647 CURVE SMOOTH",
"590 587 OFFCURVE",
"564 456 OFFCURVE",
"541 335 CURVE SMOOTH",
"529 272 OFFCURVE",
"502 135 OFFCURVE",
"502 81 CURVE SMOOTH",
"502 20 OFFCURVE",
"524 -5 OFFCURVE",
"571 -5 CURVE SMOOTH",
"625 -5 OFFCURVE",
"645 25 OFFCURVE",
"654 96 CURVE SMOOTH",
"718 575 OFFCURVE",
"844 721 OFFCURVE",
"928 721 CURVE SMOOTH",
"959 721 OFFCURVE",
"978 698 OFFCURVE",
"978 651 CURVE SMOOTH",
"978 607 OFFCURVE",
"968 572 OFFCURVE",
"960 535 CURVE SMOOTH",
"919 352 LINE SMOOTH",
"901 273 OFFCURVE",
"895 221 OFFCURVE",
"895 181 CURVE SMOOTH",
"895 69 OFFCURVE",
"962 -5 OFFCURVE",
"1077 -5 CURVE SMOOTH",
"1151 -5 OFFCURVE",
"1217 31 OFFCURVE",
"1287 116 CURVE"
);
}
);
width = 1172;
}
);
leftMetricsKey = N;
note = M;
rightMetricsKey = N;
unicode = 004D;
},
{
color = 3;
glyphname = N;
lastChange = "2016-07-27 21:07:23 +0000";
layers = (
{
background = {
paths = (
{
closed = 1;
nodes = (
"1979 227 OFFCURVE",
"1969 222 OFFCURVE",
"1959 209 CURVE SMOOTH",
"1907 141 OFFCURVE",
"1869 114 OFFCURVE",
"1825 114 CURVE SMOOTH",
"1782 114 OFFCURVE",
"1752 141 OFFCURVE",
"1752 198 CURVE SMOOTH",
"1752 229 OFFCURVE",
"1756 254 OFFCURVE",
"1762 284 CURVE SMOOTH",
"1823 570 LINE SMOOTH",
"1831 609 OFFCURVE",
"1835 645 OFFCURVE",
"1835 677 CURVE SMOOTH",
"1835 776 OFFCURVE",
"1780 848 OFFCURVE",
"1661 848 CURVE SMOOTH",
"1521 848 OFFCURVE",
"1419 741 OFFCURVE",
"1353 547 CURVE",
"1362 609 OFFCURVE",
"1369 668 OFFCURVE",
"1369 715 CURVE SMOOTH",
"1369 801 OFFCURVE",
"1333 848 OFFCURVE",
"1253 848 CURVE SMOOTH",
"1143 848 OFFCURVE",
"1068 774 OFFCURVE",
"1020 708 CURVE SMOOTH",
"999 679 OFFCURVE",
"990 649 OFFCURVE",
"990 626 CURVE SMOOTH",
"990 601 OFFCURVE",
"1001 584 OFFCURVE",
"1017 584 CURVE SMOOTH",
"1028 584 OFFCURVE",
"1043 593 OFFCURVE",
"1058 613 CURVE SMOOTH",
"1117 691 OFFCURVE",
"1168 729 OFFCURVE",
"1198 729 CURVE SMOOTH",
"1218 729 OFFCURVE",
"1234 718 OFFCURVE",
"1234 679 CURVE SMOOTH",
"1234 653 OFFCURVE",
"1229 615 OFFCURVE",
"1222 559 CURVE SMOOTH",
"1194 333 OFFCURVE",
"1154 159 OFFCURVE",
"1154 84 CURVE SMOOTH",
"1154 26 OFFCURVE",
"1180 -5 OFFCURVE",
"1222 -5 CURVE SMOOTH",
"1269 -5 OFFCURVE",
"1293 25 OFFCURVE",
"1302 86 CURVE SMOOTH",
"1371 555 OFFCURVE",
"1502 721 OFFCURVE",
"1613 721 CURVE SMOOTH",
"1658 721 OFFCURVE",
"1680 692 OFFCURVE",
"1680 647 CURVE SMOOTH",
"1680 609 OFFCURVE",
"1672 572 OFFCURVE",
"1664 535 CURVE SMOOTH",
"1623 352 LINE SMOOTH",
"1605 273 OFFCURVE",
"1599 226 OFFCURVE",
"1599 181 CURVE SMOOTH",
"1599 69 OFFCURVE",
"1666 -5 OFFCURVE",
"1778 -5 CURVE SMOOTH",
"1856 -5 OFFCURVE",
"1943 38 OFFCURVE",
"1990 124 CURVE SMOOTH",
"2002 146 OFFCURVE",
"2007 169 OFFCURVE",
"2007 187 CURVE SMOOTH",
"2007 210 OFFCURVE",
"1999 227 OFFCURVE",
"1986 227 CURVE SMOOTH"
);
},
{
closed = 1;
nodes = (
"903 209 LINE",
"847 142 OFFCURVE",
"809 114 OFFCURVE",
"764 114 CURVE SMOOTH",
"724 114 OFFCURVE",
"696 141 OFFCURVE",
"696 198 CURVE SMOOTH",
"696 229 OFFCURVE",
"700 254 OFFCURVE",
"706 284 CURVE SMOOTH",
"767 570 LINE SMOOTH",
"775 609 OFFCURVE",
"780 645 OFFCURVE",
"780 677 CURVE SMOOTH",
"780 783 OFFCURVE",
"730 848 OFFCURVE",
"631 848 CURVE SMOOTH",
"522 848 OFFCURVE",
"430 782 OFFCURVE",
"360 590 CURVE",
"367 628 OFFCURVE",
"369 653 OFFCURVE",
"369 672 CURVE SMOOTH",
"369 785 OFFCURVE",
"316 848 OFFCURVE",
"229 848 CURVE SMOOTH",
"126 848 OFFCURVE",
"25 790 OFFCURVE",
"-57 556 CURVE",
"-47 614 OFFCURVE",
"-37 666 OFFCURVE",
"-37 711 CURVE SMOOTH",
"-37 801 OFFCURVE",
"-79 848 OFFCURVE",
"-157 848 CURVE SMOOTH",
"-236 848 OFFCURVE",
"-318 797 OFFCURVE",
"-382 708 CURVE SMOOTH",
"-403 679 OFFCURVE",
"-410 659 OFFCURVE",
"-410 638 CURVE SMOOTH",
"-410 603 OFFCURVE",
"-374 573 OFFCURVE",
"-344 613 CURVE SMOOTH",
"-281 697 OFFCURVE",
"-231 724 OFFCURVE",
"-201 724 CURVE SMOOTH",
"-181 724 OFFCURVE",
"-168 713 OFFCURVE",
"-168 679 CURVE SMOOTH",
"-168 653 OFFCURVE",
"-170 615 OFFCURVE",
"-177 559 CURVE SMOOTH",
"-205 333 OFFCURVE",
"-248 159 OFFCURVE",
"-248 84 CURVE SMOOTH",
"-248 20 OFFCURVE",
"-223 -5 OFFCURVE",
"-177 -5 CURVE SMOOTH",
"-116 -5 OFFCURVE",
"-106 25 OFFCURVE",
"-98 86 CURVE SMOOTH",
"-30 604 OFFCURVE",
"103 721 OFFCURVE",
"187 721 CURVE SMOOTH",
"223 721 OFFCURVE",
"242 698 OFFCURVE",
"242 647 CURVE SMOOTH",
"242 587 OFFCURVE",
"216 456 OFFCURVE",
"193 335 CURVE SMOOTH",
"181 272 OFFCURVE",
"154 135 OFFCURVE",
"154 81 CURVE SMOOTH",
"154 20 OFFCURVE",
"176 -5 OFFCURVE",
"223 -5 CURVE SMOOTH",
"277 -5 OFFCURVE",
"297 25 OFFCURVE",
"306 96 CURVE SMOOTH",
"367 575 OFFCURVE",
"496 721 OFFCURVE",
"580 721 CURVE SMOOTH",
"611 721 OFFCURVE",
"630 698 OFFCURVE",
"630 651 CURVE SMOOTH",
"630 607 OFFCURVE",
"620 572 OFFCURVE",
"612 535 CURVE SMOOTH",
"571 352 LINE SMOOTH",
"553 273 OFFCURVE",
"547 221 OFFCURVE",
"547 181 CURVE SMOOTH",
"547 69 OFFCURVE",
"614 -5 OFFCURVE",
"729 -5 CURVE SMOOTH",
"803 -5 OFFCURVE",
"869 31 OFFCURVE",
"939 116 CURVE"
);
}
);
};
layerId = "ECEFE970-1BBB-4E0A-A452-CEB55884B4A3";
paths = (
{
closed = 1;
nodes = (
"903 209 LINE",
"847 142 OFFCURVE",
"808 114 OFFCURVE",
"764 114 CURVE SMOOTH",
"724 114 OFFCURVE",
"696 141 OFFCURVE",
"696 198 CURVE SMOOTH",
"696 229 OFFCURVE",
"700 254 OFFCURVE",
"706 284 CURVE SMOOTH",
"767 570 LINE SMOOTH",
"775 609 OFFCURVE",
"780 645 OFFCURVE",
"780 677 CURVE SMOOTH",
"780 776 OFFCURVE",
"728 848 OFFCURVE",
"609 848 CURVE SMOOTH",
"469 848 OFFCURVE",
"367 741 OFFCURVE",
"301 547 CURVE",
"310 609 OFFCURVE",
"317 668 OFFCURVE",
"317 715 CURVE SMOOTH",
"317 801 OFFCURVE",
"281 848 OFFCURVE",
"201 848 CURVE SMOOTH",
"112 848 OFFCURVE",
"30 797 OFFCURVE",
"-34 708 CURVE SMOOTH",
"-55 679 OFFCURVE",
"-62 661 OFFCURVE",
"-62 638 CURVE SMOOTH",
"-62 603 OFFCURVE",
"-26 573 OFFCURVE",
"4 613 CURVE SMOOTH",
"66 696 OFFCURVE",
"117 724 OFFCURVE",
"147 724 CURVE SMOOTH",
"167 724 OFFCURVE",
"180 713 OFFCURVE",
"180 679 CURVE SMOOTH",
"180 653 OFFCURVE",
"178 615 OFFCURVE",
"171 559 CURVE SMOOTH",
"142 333 OFFCURVE",
"100 159 OFFCURVE",
"100 84 CURVE SMOOTH",
"100 20 OFFCURVE",
"125 -5 OFFCURVE",
"171 -5 CURVE SMOOTH",
"232 -5 OFFCURVE",
"242 25 OFFCURVE",
"250 86 CURVE SMOOTH",
"312 556 OFFCURVE",
"450 721 OFFCURVE",
"561 721 CURVE SMOOTH",
"606 721 OFFCURVE",
"630 692 OFFCURVE",
"630 651 CURVE SMOOTH",
"630 607 OFFCURVE",
"620 572 OFFCURVE",
"612 535 CURVE SMOOTH",
"571 352 LINE SMOOTH",
"554 273 OFFCURVE",
"547 226 OFFCURVE",
"547 181 CURVE SMOOTH",
"547 69 OFFCURVE",
"614 -5 OFFCURVE",
"729 -5 CURVE SMOOTH",
"803 -5 OFFCURVE",
"869 31 OFFCURVE",
"939 116 CURVE"
);
}
);
width = 824;
}
);
note = N;
unicode = 004E;
},
{
color = 3;
glyphname = O;
lastChange = "2016-07-27 22:50:27 +0000";
layers = (
{
background = {
paths = (
{
closed = 1;
nodes = (
"1414 -5 OFFCURVE",
"1600 217 OFFCURVE",
"1600 505 CURVE SMOOTH",
"1600 724 OFFCURVE",
"1458 848 OFFCURVE",
"1284 848 CURVE SMOOTH",
"1009 848 OFFCURVE",
"866 592 OFFCURVE",
"866 338 CURVE SMOOTH",
"866 119 OFFCURVE",
"998 -5 OFFCURVE",
"1182 -5 CURVE SMOOTH"
);
},
{
closed = 1;
nodes = (
"1093 115 OFFCURVE",
"1015 191 OFFCURVE",
"1015 356 CURVE SMOOTH",
"1015 570 OFFCURVE",
"1119 728 OFFCURVE",
"1273 728 CURVE SMOOTH",
"1373 728 OFFCURVE",
"1451 651 OFFCURVE",
"1451 487 CURVE SMOOTH",
"1451 245 OFFCURVE",
"1329 115 OFFCURVE",
"1193 115 CURVE SMOOTH"
);
},
{
closed = 1;
nodes = (
"252 848 OFFCURVE",
"66 626 OFFCURVE",
"66 338 CURVE SMOOTH",
"66 119 OFFCURVE",
"208 -5 OFFCURVE",
"382 -5 CURVE SMOOTH",
"614 -5 OFFCURVE",
"800 194 OFFCURVE",
"800 505 CURVE SMOOTH",
"800 724 OFFCURVE",
"668 848 OFFCURVE",
"484 848 CURVE SMOOTH"
);
},
{
closed = 1;
nodes = (
"571 726 OFFCURVE",
"649 652 OFFCURVE",
"649 487 CURVE SMOOTH",
"649 273 OFFCURVE",
"545 117 OFFCURVE",
"393 117 CURVE SMOOTH",
"295 117 OFFCURVE",
"217 192 OFFCURVE",
"217 356 CURVE SMOOTH",
"217 598 OFFCURVE",
"339 726 OFFCURVE",
"473 726 CURVE SMOOTH"
);
}
);
};
guideLines = (
{
angle = 90;
position = "{208, 354}";
},
{
angle = 90;
position = "{662, 354}";
},
{
position = "{388, 105}";
},
{
position = "{388, 738}";
}
);
layerId = "ECEFE970-1BBB-4E0A-A452-CEB55884B4A3";
paths = (
{
closed = 1;
nodes = (
"614 -5 OFFCURVE",
"800 194 OFFCURVE",
"800 505 CURVE SMOOTH",
"800 729 OFFCURVE",
"658 848 OFFCURVE",
"484 848 CURVE SMOOTH",
"252 848 OFFCURVE",
"66 649 OFFCURVE",
"66 338 CURVE SMOOTH",
"66 114 OFFCURVE",
"208 -5 OFFCURVE",
"382 -5 CURVE SMOOTH"
);
},
{
closed = 1;
nodes = (
"295 117 OFFCURVE",
"217 192 OFFCURVE",
"217 356 CURVE SMOOTH",
"217 570 OFFCURVE",
"321 726 OFFCURVE",
"473 726 CURVE SMOOTH",
"571 726 OFFCURVE",
"649 651 OFFCURVE",
"649 487 CURVE SMOOTH",
"649 273 OFFCURVE",
"545 117 OFFCURVE",
"393 117 CURVE SMOOTH"
);
}
);
width = 810;
}
);
leftKerningGroup = O;
note = O;
rightKerningGroup = O;
unicode = 004F;
},
{
color = 3;
glyphname = Oslash;
lastChange = "2016-07-27 22:50:33 +0000";
layers = (
{
background = {
paths = (
{
closed = 1;
nodes = (
"614 -5 OFFCURVE",
"800 217 OFFCURVE",
"800 505 CURVE SMOOTH",
"800 724 OFFCURVE",
"658 848 OFFCURVE",
"484 848 CURVE SMOOTH",
"209 848 OFFCURVE",
"66 592 OFFCURVE",
"66 338 CURVE SMOOTH",
"66 119 OFFCURVE",
"198 -5 OFFCURVE",
"382 -5 CURVE SMOOTH"
);
},
{
closed = 1;
nodes = (
"293 115 OFFCURVE",
"215 191 OFFCURVE",
"215 356 CURVE SMOOTH",
"215 570 OFFCURVE",
"319 728 OFFCURVE",
"473 728 CURVE SMOOTH",
"573 728 OFFCURVE",
"651 651 OFFCURVE",
"651 487 CURVE SMOOTH",
"651 245 OFFCURVE",
"529 115 OFFCURVE",
"393 115 CURVE SMOOTH"
);
},
{
closed = 1;
nodes = (
"389 455 LINE",
"251 -57 LINE SMOOTH",
"229 -137 OFFCURVE",
"338 -147 OFFCURVE",
"354 -84 CURVE SMOOTH",
"493 451 LINE",
"614 893 LINE SMOOTH",
"636 974 OFFCURVE",
"526 984 OFFCURVE",
"510 921 CURVE SMOOTH"
);
}
);
};
guideLines = (
{
angle = 83.1811;
position = "{433, 422}";
}
);
layerId = "ECEFE970-1BBB-4E0A-A452-CEB55884B4A3";
paths = (
{
closed = 1;
nodes = (
"389 455 LINE",
"251 -57 LINE SMOOTH",
"234 -119 OFFCURVE",
"342 -129 OFFCURVE",
"354 -84 CURVE SMOOTH",
"493 451 LINE",
"614 893 LINE SMOOTH",
"631 956 OFFCURVE",
"522 966 OFFCURVE",
"510 921 CURVE SMOOTH"
);
},
{
closed = 1;
nodes = (
"614 -5 OFFCURVE",
"800 194 OFFCURVE",
"800 505 CURVE SMOOTH",
"800 729 OFFCURVE",
"658 848 OFFCURVE",
"484 848 CURVE SMOOTH",
"252 848 OFFCURVE",
"66 649 OFFCURVE",
"66 338 CURVE SMOOTH",
"66 114 OFFCURVE",
"208 -5 OFFCURVE",
"382 -5 CURVE SMOOTH"
);
},
{
closed = 1;
nodes = (
"295 117 OFFCURVE",
"217 192 OFFCURVE",
"217 356 CURVE SMOOTH",
"217 570 OFFCURVE",
"321 726 OFFCURVE",
"473 726 CURVE SMOOTH",
"571 726 OFFCURVE",
"649 651 OFFCURVE",
"649 487 CURVE SMOOTH",
"649 273 OFFCURVE",
"545 117 OFFCURVE",
"393 117 CURVE SMOOTH"
);
}
);
width = 810;
}
);
leftKerningGroup = O;
leftMetricsKey = O;
note = Oslash;
rightKerningGroup = O;
rightMetricsKey = O;
unicode = 00D8;
},
{
color = 3;
glyphname = OE;
lastChange = "2016-07-27 22:50:33 +0000";
layers = (
{
background = {
paths = (
{
closed = 1;
nodes = (
"1614 -5 OFFCURVE",
"1784 217 OFFCURVE",
"1784 505 CURVE SMOOTH",
"1784 724 OFFCURVE",
"1658 848 OFFCURVE",
"1484 848 CURVE SMOOTH",
"1209 848 OFFCURVE",
"1066 592 OFFCURVE",
"1066 338 CURVE SMOOTH",
"1066 119 OFFCURVE",
"1198 -5 OFFCURVE",
"1382 -5 CURVE SMOOTH"
);
},
{
closed = 1;
nodes = (
"1293 115 OFFCURVE",
"1215 191 OFFCURVE",
"1215 356 CURVE SMOOTH",
"1215 570 OFFCURVE",
"1319 728 OFFCURVE",
"1473 728 CURVE SMOOTH",
"1573 728 OFFCURVE",
"1651 651 OFFCURVE",
"1651 487 CURVE SMOOTH",
"1651 245 OFFCURVE",
"1529 115 OFFCURVE",
"1393 115 CURVE SMOOTH"
);
},
{
closed = 1;
nodes = (
"2157 720 OFFCURVE",
"2187 751 OFFCURVE",
"2187 787 CURVE SMOOTH",
"2187 824 OFFCURVE",
"2162 849 OFFCURVE",
"2103 849 CURVE SMOOTH",
"2027 849 OFFCURVE",
"1957 845 OFFCURVE",
"1903 842 CURVE SMOOTH",
"1816 837 OFFCURVE",
"1755 801 OFFCURVE",
"1725 691 CURVE SMOOTH",
"1678 520 LINE",
"1645 264 LINE",
"1639 121 OFFCURVE",
"1721 -5 OFFCURVE",
"1946 -5 CURVE SMOOTH",
"2037 -5 OFFCURVE",
"2120 20 OFFCURVE",
"2196 59 CURVE SMOOTH",
"2280 102 OFFCURVE",
"2277 200 OFFCURVE",
"2198 174 CURVE SMOOTH",
"2127 151 OFFCURVE",
"2053 120 OFFCURVE",
"1969 120 CURVE SMOOTH",
"1802 120 OFFCURVE",
"1766 212 OFFCURVE",
"1800 361 CURVE",
"1909 363 OFFCURVE",
"1957 365 OFFCURVE",
"2035 367 CURVE SMOOTH",
"2098 369 OFFCURVE",
"2121 396 OFFCURVE",
"2121 436 CURVE SMOOTH",
"2121 464 OFFCURVE",
"2106 490 OFFCURVE",
"2057 490 CURVE SMOOTH",
"1986 490 OFFCURVE",
"1913 486 OFFCURVE",
"1824 483 CURVE",
"1840 556 OFFCURVE",
"1862 651 OFFCURVE",
"1882 713 CURVE",
"1923 716 OFFCURVE",
"2023 720 OFFCURVE",
"2075 720 CURVE SMOOTH"
);
},
{
closed = 1;
nodes = (
"614 -5 OFFCURVE",
"800 194 OFFCURVE",
"800 505 CURVE SMOOTH",
"800 729 OFFCURVE",
"658 848 OFFCURVE",
"484 848 CURVE SMOOTH",
"252 848 OFFCURVE",
"66 649 OFFCURVE",
"66 338 CURVE SMOOTH",
"66 114 OFFCURVE",
"208 -5 OFFCURVE",
"382 -5 CURVE SMOOTH"
);
},
{
closed = 1;
nodes = (
"295 117 OFFCURVE",
"217 192 OFFCURVE",
"217 356 CURVE SMOOTH",
"217 570 OFFCURVE",
"321 726 OFFCURVE",
"473 726 CURVE SMOOTH",
"571 726 OFFCURVE",
"649 651 OFFCURVE",
"649 487 CURVE SMOOTH",
"649 273 OFFCURVE",
"545 117 OFFCURVE",
"393 117 CURVE SMOOTH"
);
}
);
};
layerId = "ECEFE970-1BBB-4E0A-A452-CEB55884B4A3";
paths = (
{
closed = 1;
nodes = (
"614 -5 OFFCURVE",
"784 217 OFFCURVE",
"784 505 CURVE SMOOTH",
"784 724 OFFCURVE",
"658 848 OFFCURVE",
"484 848 CURVE SMOOTH",
"252 848 OFFCURVE",
"66 649 OFFCURVE",
"66 338 CURVE SMOOTH",
"66 114 OFFCURVE",
"208 -5 OFFCURVE",
"382 -5 CURVE SMOOTH"
);
},
{
closed = 1;
nodes = (
"295 117 OFFCURVE",
"217 192 OFFCURVE",
"217 356 CURVE SMOOTH",
"217 570 OFFCURVE",
"319 726 OFFCURVE",
"473 726 CURVE SMOOTH",
"573 726 OFFCURVE",
"649 651 OFFCURVE",
"649 487 CURVE SMOOTH",
"649 273 OFFCURVE",
"545 117 OFFCURVE",
"393 117 CURVE SMOOTH"
);
},
{
closed = 1;
nodes = (
"1171 720 OFFCURVE",
"1191 759 OFFCURVE",
"1191 795 CURVE SMOOTH",
"1191 832 OFFCURVE",
"1176 849 OFFCURVE",
"1127 849 CURVE SMOOTH",
"1031 849 OFFCURVE",
"961 844 OFFCURVE",
"877 840 CURVE SMOOTH",
"810 837 OFFCURVE",
"759 801 OFFCURVE",
"739 727 CURVE SMOOTH",
"658 431 LINE",
"649 264 LINE",
"643 121 OFFCURVE",
"725 -5 OFFCURVE",
"950 -5 CURVE SMOOTH",
"1041 -5 OFFCURVE",
"1144 22 OFFCURVE",
"1210 69 CURVE",
"1202 182 LINE",
"1131 147 OFFCURVE",
"1045 121 OFFCURVE",
"973 121 CURVE SMOOTH",
"806 121 OFFCURVE",
"766 212 OFFCURVE",
"800 361 CURVE",
"909 363 OFFCURVE",
"960 366 OFFCURVE",
"1055 368 CURVE SMOOTH",
"1098 369 OFFCURVE",
"1121 401 OFFCURVE",
"1121 441 CURVE SMOOTH",
"1121 471 OFFCURVE",
"1110 490 OFFCURVE",
"1068 490 CURVE SMOOTH",
"990 490 OFFCURVE",
"913 486 OFFCURVE",
"824 483 CURVE",
"840 556 OFFCURVE",
"862 650 OFFCURVE",
"882 710 CURVE",
"923 715 OFFCURVE",
"1027 720 OFFCURVE",
"1119 720 CURVE SMOOTH"
);
}
);
width = 1131;
}
);
leftMetricsKey = O;
note = OE;
unicode = 0152;
},
{
color = 3;
glyphname = P;
lastChange = "2016-07-27 20:23:27 +0000";
layers = (
{
background = {
paths = (
{
closed = 1;
nodes = (
"496 428 OFFCURVE",
"517 548 CURVE SMOOTH",
"528 612 OFFCURVE",
"522 646 OFFCURVE",
"458 646 CURVE SMOOTH",
"418 646 OFFCURVE",
"382 632 OFFCURVE",
"371 573 CURVE SMOOTH",
"345 434 OFFCURVE",
"315 252 OFFCURVE",
"285 85 CURVE SMOOTH",
"277 41 OFFCURVE",
"264 26 OFFCURVE",
"246 26 CURVE SMOOTH",
"211 26 OFFCURVE",
"166 96 OFFCURVE",
"166 227 CURVE SMOOTH",
"166 520 OFFCURVE",
"296 732 OFFCURVE",
"515 732 CURVE SMOOTH",
"624 732 OFFCURVE",
"678 664 OFFCURVE",
"678 577 CURVE SMOOTH",
"678 474 OFFCURVE",
"621 372 OFFCURVE",
"408 372 CURVE SMOOTH",
"371 372 OFFCURVE",
"332 375 OFFCURVE",
"299 381 CURVE SMOOTH",
"261 388 OFFCURVE",
"229 369 OFFCURVE",
"229 332 CURVE SMOOTH",
"229 310 OFFCURVE",
"241 287 OFFCURVE",
"285 279 CURVE SMOOTH",
"318 273 OFFCURVE",
"368 269 OFFCURVE",
"414 269 CURVE SMOOTH",
"681 269 OFFCURVE",
"832 417 OFFCURVE",
"832 596 CURVE SMOOTH",
"832 735 OFFCURVE",
"733 846 OFFCURVE",
"540 846 CURVE SMOOTH",
"240 846 OFFCURVE",
"55 587 OFFCURVE",
"55 219 CURVE SMOOTH",
"55 -6 OFFCURVE",
"163 -109 OFFCURVE",
"271 -109 CURVE SMOOTH",
"350 -109 OFFCURVE",
"414 -44 OFFCURVE",
"435 70 CURVE SMOOTH",
"469 256 OFFCURVE"
);
}
);
};
layerId = "ECEFE970-1BBB-4E0A-A452-CEB55884B4A3";
paths = (
{
closed = 1;
nodes = (
"493 428 OFFCURVE",
"517 568 CURVE SMOOTH",
"527 622 OFFCURVE",
"512 646 OFFCURVE",
"458 646 CURVE SMOOTH",
"418 646 OFFCURVE",
"382 632 OFFCURVE",
"373 583 CURVE SMOOTH",
"345 434 OFFCURVE",
"316 252 OFFCURVE",
"286 85 CURVE SMOOTH",
"278 41 OFFCURVE",
"266 16 OFFCURVE",
"248 16 CURVE SMOOTH",
"213 16 OFFCURVE",
"166 96 OFFCURVE",
"166 227 CURVE SMOOTH",
"166 520 OFFCURVE",
"296 732 OFFCURVE",
"515 732 CURVE SMOOTH",
"624 732 OFFCURVE",
"678 664 OFFCURVE",
"678 577 CURVE SMOOTH",
"678 474 OFFCURVE",
"621 372 OFFCURVE",
"408 372 CURVE SMOOTH",
"371 372 OFFCURVE",
"332 375 OFFCURVE",
"299 381 CURVE SMOOTH",
"261 388 OFFCURVE",
"237 369 OFFCURVE",
"237 332 CURVE SMOOTH",
"237 310 OFFCURVE",
"241 287 OFFCURVE",
"285 279 CURVE SMOOTH",
"318 273 OFFCURVE",
"368 269 OFFCURVE",
"414 269 CURVE SMOOTH",
"681 269 OFFCURVE",
"832 417 OFFCURVE",
"832 596 CURVE SMOOTH",
"832 735 OFFCURVE",
"733 846 OFFCURVE",
"540 846 CURVE SMOOTH",
"282 846 OFFCURVE",
"55 642 OFFCURVE",
"55 219 CURVE SMOOTH",
"55 -6 OFFCURVE",
"163 -109 OFFCURVE",
"281 -109 CURVE SMOOTH",
"350 -109 OFFCURVE",
"407 -63 OFFCURVE",
"425 30 CURVE SMOOTH",
"466 256 OFFCURVE"
);
}
);
width = 806;
}
);
note = P;
unicode = 0050;
},
{
color = 3;
glyphname = Thorn;
lastChange = "2016-07-27 20:31:06 +0000";
layers = (
{
background = {
paths = (
{
closed = 1;
nodes = (
"1290 545 OFFCURVE",
"1330 830 CURVE SMOOTH",
"1339 894 OFFCURVE",
"1333 938 OFFCURVE",
"1274 938 CURVE SMOOTH",
"1236 938 OFFCURVE",
"1197 924 OFFCURVE",
"1189 865 CURVE SMOOTH",
"1156 619 OFFCURVE",
"1119 369 OFFCURVE",
"1067 85 CURVE SMOOTH",
"1059 41 OFFCURVE",
"1045 26 OFFCURVE",
"1025 26 CURVE SMOOTH",
"993 26 OFFCURVE",
"974 126 OFFCURVE",
"974 207 CURVE SMOOTH",
"974 470 OFFCURVE",
"1076 622 OFFCURVE",
"1277 622 CURVE SMOOTH",
"1401 622 OFFCURVE",
"1448 564 OFFCURVE",
"1448 487 CURVE SMOOTH",
"1448 404 OFFCURVE",
"1398 306 OFFCURVE",
"1196 306 CURVE SMOOTH",
"1161 306 OFFCURVE",
"1122 309 OFFCURVE",
"1089 315 CURVE SMOOTH",
"1051 322 OFFCURVE",
"1019 303 OFFCURVE",
"1019 266 CURVE SMOOTH",
"1019 244 OFFCURVE",
"1031 221 OFFCURVE",
"1075 213 CURVE SMOOTH",
"1108 207 OFFCURVE",
"1158 203 OFFCURVE",
"1204 203 CURVE SMOOTH",
"1468 203 OFFCURVE",
"1602 347 OFFCURVE",
"1602 506 CURVE SMOOTH",
"1602 635 OFFCURVE",
"1500 736 OFFCURVE",
"1298 736 CURVE SMOOTH",
"1013 736 OFFCURVE",
"863 528 OFFCURVE",
"863 202 CURVE SMOOTH",
"863 14 OFFCURVE",
"943 -109 OFFCURVE",
"1051 -109 CURVE SMOOTH",
"1130 -109 OFFCURVE",
"1195 -44 OFFCURVE",
"1215 70 CURVE SMOOTH",
"1268 373 OFFCURVE"
);
},
{
closed = 1;
nodes = (
"454 318 OFFCURVE",
"477 458 CURVE SMOOTH",
"486 512 OFFCURVE",
"472 536 OFFCURVE",
"418 536 CURVE SMOOTH",
"378 536 OFFCURVE",
"342 522 OFFCURVE",
"333 473 CURVE SMOOTH",
"306 324 OFFCURVE",
"276 142 OFFCURVE",
"246 -25 CURVE SMOOTH",
"238 -69 OFFCURVE",
"226 -94 OFFCURVE",
"208 -94 CURVE SMOOTH",
"173 -94 OFFCURVE",
"126 -14 OFFCURVE",
"126 117 CURVE SMOOTH",
"126 410 OFFCURVE",
"256 622 OFFCURVE",
"475 622 CURVE SMOOTH",
"584 622 OFFCURVE",
"638 554 OFFCURVE",
"638 467 CURVE SMOOTH",
"638 364 OFFCURVE",
"581 262 OFFCURVE",
"368 262 CURVE SMOOTH",
"331 262 OFFCURVE",
"292 265 OFFCURVE",
"259 271 CURVE SMOOTH",
"221 278 OFFCURVE",
"197 259 OFFCURVE",
"197 222 CURVE SMOOTH",
"197 200 OFFCURVE",
"201 177 OFFCURVE",
"245 169 CURVE SMOOTH",
"278 163 OFFCURVE",
"328 159 OFFCURVE",
"374 159 CURVE SMOOTH",
"641 159 OFFCURVE",
"792 307 OFFCURVE",
"792 486 CURVE SMOOTH",
"792 625 OFFCURVE",
"693 736 OFFCURVE",
"500 736 CURVE SMOOTH",
"242 736 OFFCURVE",
"15 532 OFFCURVE",
"15 109 CURVE SMOOTH",
"15 -116 OFFCURVE",
"123 -219 OFFCURVE",
"241 -219 CURVE SMOOTH",
"310 -219 OFFCURVE",
"367 -173 OFFCURVE",
"385 -80 CURVE SMOOTH",
"429 146 OFFCURVE"
);
}
);
};
layerId = "ECEFE970-1BBB-4E0A-A452-CEB55884B4A3";
paths = (
{
closed = 1;
nodes = (
"495 549 OFFCURVE",
"536 854 CURVE SMOOTH",
"542 898 OFFCURVE",
"533 938 OFFCURVE",
"474 938 CURVE SMOOTH",
"436 938 OFFCURVE",
"397 924 OFFCURVE",
"389 865 CURVE SMOOTH",
"356 619 OFFCURVE",
"318 369 OFFCURVE",
"266 85 CURVE SMOOTH",
"258 41 OFFCURVE",
"246 16 OFFCURVE",
"228 16 CURVE SMOOTH",
"193 16 OFFCURVE",
"174 126 OFFCURVE",
"174 207 CURVE SMOOTH",
"174 470 OFFCURVE",
"276 622 OFFCURVE",
"477 622 CURVE SMOOTH",
"601 622 OFFCURVE",
"648 564 OFFCURVE",
"648 487 CURVE SMOOTH",
"648 404 OFFCURVE",
"598 306 OFFCURVE",
"396 306 CURVE SMOOTH",
"361 306 OFFCURVE",
"322 309 OFFCURVE",
"289 315 CURVE SMOOTH",
"251 322 OFFCURVE",
"229 303 OFFCURVE",
"229 266 CURVE SMOOTH",
"229 244 OFFCURVE",
"231 221 OFFCURVE",
"275 213 CURVE SMOOTH",
"308 207 OFFCURVE",
"358 203 OFFCURVE",
"404 203 CURVE SMOOTH",
"668 203 OFFCURVE",
"802 347 OFFCURVE",
"802 506 CURVE SMOOTH",
"802 635 OFFCURVE",
"700 733 OFFCURVE",
"498 733 CURVE SMOOTH",
"223 733 OFFCURVE",
"63 528 OFFCURVE",
"63 202 CURVE SMOOTH",
"63 14 OFFCURVE",
"150 -109 OFFCURVE",
"261 -109 CURVE SMOOTH",
"330 -109 OFFCURVE",
"387 -63 OFFCURVE",
"405 30 CURVE SMOOTH",
"463 332 OFFCURVE"
);
}
);
width = 791;
}
);
note = Thorn;
unicode = 00DE;
},
{
color = 3;
glyphname = Q;
lastChange = "2016-07-27 22:50:33 +0000";
layers = (
{
background = {
paths = (
{
closed = 1;
nodes = (
"855 -94 OFFCURVE",
"845 -99 OFFCURVE",
"835 -112 CURVE SMOOTH",
"783 -180 OFFCURVE",
"745 -207 OFFCURVE",
"701 -207 CURVE SMOOTH",
"651 -207 OFFCURVE",
"630 -171 OFFCURVE",
"589 -86 CURVE SMOOTH",
"560 -26 OFFCURVE",
"530 10 OFFCURVE",
"476 27 CURVE",
"477 8 LINE",
"662 59 OFFCURVE",
"800 257 OFFCURVE",
"800 505 CURVE SMOOTH",
"800 724 OFFCURVE",
"658 848 OFFCURVE",
"484 848 CURVE SMOOTH",
"209 848 OFFCURVE",
"66 592 OFFCURVE",
"66 338 CURVE SMOOTH",
"66 148 OFFCURVE",
"166 31 OFFCURVE",
"312 1 CURVE SMOOTH",
"381 -13 OFFCURVE",
"394 -38 OFFCURVE",
"438 -147 CURVE SMOOTH",
"473 -233 OFFCURVE",
"510 -326 OFFCURVE",
"653 -326 CURVE SMOOTH",
"732 -326 OFFCURVE",
"819 -283 OFFCURVE",
"866 -197 CURVE SMOOTH",
"878 -175 OFFCURVE",
"883 -152 OFFCURVE",
"883 -134 CURVE SMOOTH",
"883 -111 OFFCURVE",
"875 -94 OFFCURVE",
"862 -94 CURVE SMOOTH"
);
},
{
closed = 1;
nodes = (
"215 570 OFFCURVE",
"319 728 OFFCURVE",
"473 728 CURVE SMOOTH",
"573 728 OFFCURVE",
"651 651 OFFCURVE",
"651 487 CURVE SMOOTH",
"651 245 OFFCURVE",
"529 115 OFFCURVE",
"393 115 CURVE SMOOTH",
"293 115 OFFCURVE",
"215 191 OFFCURVE",
"215 356 CURVE SMOOTH"
);
},
{
closed = 1;
nodes = (
"-186 -5 OFFCURVE",
"0 194 OFFCURVE",
"0 505 CURVE SMOOTH",
"0 729 OFFCURVE",
"-142 848 OFFCURVE",
"-316 848 CURVE SMOOTH",
"-548 848 OFFCURVE",
"-734 649 OFFCURVE",
"-734 338 CURVE SMOOTH",
"-734 114 OFFCURVE",
"-592 -5 OFFCURVE",
"-418 -5 CURVE SMOOTH"
);
},
{
closed = 1;
nodes = (
"-505 117 OFFCURVE",
"-583 192 OFFCURVE",
"-583 356 CURVE SMOOTH",
"-583 570 OFFCURVE",
"-479 726 OFFCURVE",
"-327 726 CURVE SMOOTH",
"-229 726 OFFCURVE",
"-151 651 OFFCURVE",
"-151 487 CURVE SMOOTH",
"-151 273 OFFCURVE",
"-255 117 OFFCURVE",
"-407 117 CURVE SMOOTH"
);
}
);
};
layerId = "ECEFE970-1BBB-4E0A-A452-CEB55884B4A3";
paths = (
{
closed = 1;
nodes = (
"855 -96 OFFCURVE",
"845 -99 OFFCURVE",
"835 -112 CURVE SMOOTH",
"783 -180 OFFCURVE",
"745 -207 OFFCURVE",
"701 -207 CURVE SMOOTH",
"649 -207 OFFCURVE",
"616 -170 OFFCURVE",
"589 -104 CURVE SMOOTH",
"556 -23 OFFCURVE",
"528 10 OFFCURVE",
"476 27 CURVE",
"477 8 LINE",
"662 54 OFFCURVE",
"800 234 OFFCURVE",
"800 505 CURVE SMOOTH",
"800 729 OFFCURVE",
"658 848 OFFCURVE",
"484 848 CURVE SMOOTH",
"252 848 OFFCURVE",
"66 649 OFFCURVE",
"66 338 CURVE SMOOTH",
"66 148 OFFCURVE",
"168 30 OFFCURVE",
"312 1 CURVE SMOOTH",
"371 -11 OFFCURVE",
"391 -38 OFFCURVE",
"442 -156 CURVE SMOOTH",
"491 -270 OFFCURVE",
"543 -326 OFFCURVE",
"663 -326 CURVE SMOOTH",
"737 -326 OFFCURVE",
"819 -283 OFFCURVE",
"866 -197 CURVE SMOOTH",
"878 -175 OFFCURVE",
"883 -152 OFFCURVE",
"883 -134 CURVE SMOOTH",
"883 -111 OFFCURVE",
"875 -96 OFFCURVE",
"862 -96 CURVE SMOOTH"
);
},
{
closed = 1;
nodes = (
"295 117 OFFCURVE",
"217 192 OFFCURVE",
"217 356 CURVE SMOOTH",
"217 570 OFFCURVE",
"321 726 OFFCURVE",
"473 726 CURVE SMOOTH",
"571 726 OFFCURVE",
"649 651 OFFCURVE",
"649 487 CURVE SMOOTH",
"649 273 OFFCURVE",
"545 117 OFFCURVE",
"393 117 CURVE SMOOTH"
);
}
);
width = 810;
}
);
leftKerningGroup = O;
leftMetricsKey = O;
widthMetricsKey = O;
note = Q;
rightKerningGroup = O;
unicode = 0051;
},
{
color = 3;
glyphname = R;
lastChange = "2016-07-27 22:36:38 +0000";
layers = (
{
background = {
paths = (
{
closed = 1;
nodes = (
"375 -5 OFFCURVE",
"417 46 OFFCURVE",
"429 121 CURVE SMOOTH",
"462 319 OFFCURVE",
"488 458 OFFCURVE",
"507 565 CURVE SMOOTH",
"517 623 OFFCURVE",
"503 653 OFFCURVE",
"446 653 CURVE SMOOTH",
"410 653 OFFCURVE",
"372 640 OFFCURVE",
"362 588 CURVE SMOOTH",
"338 463 OFFCURVE",
"314 303 OFFCURVE",
"288 165 CURVE SMOOTH",
"281 125 OFFCURVE",
"270 110 OFFCURVE",
"253 110 CURVE SMOOTH",
"222 110 OFFCURVE",
"172 175 OFFCURVE",
"172 312 CURVE SMOOTH",
"172 588 OFFCURVE",
"306 733 OFFCURVE",
"499 733 CURVE SMOOTH",
"610 733 OFFCURVE",
"667 681 OFFCURVE",
"667 602 CURVE SMOOTH",
"667 491 OFFCURVE",
"572 419 OFFCURVE",
"441 419 CURVE SMOOTH",
"365 419 OFFCURVE",
"336 419 OFFCURVE",
"307 419 CURVE SMOOTH",
"282 419 OFFCURVE",
"256 400 OFFCURVE",
"256 367 CURVE SMOOTH",
"256 347 OFFCURVE",
"264 315 OFFCURVE",
"315 315 CURVE",
"452 339 LINE",
"701 339 OFFCURVE",
"818 487 OFFCURVE",
"818 622 CURVE SMOOTH",
"818 747 OFFCURVE",
"728 846 OFFCURVE",
"529 846 CURVE SMOOTH",
"251 846 OFFCURVE",
"63 647 OFFCURVE",
"63 305 CURVE SMOOTH",
"63 123 OFFCURVE",
"152 -5 OFFCURVE",
"289 -5 CURVE SMOOTH"
);
},
{
closed = 1;
nodes = (
"883 -5 OFFCURVE",
"943 49 OFFCURVE",
"998 116 CURVE",
"962 209 LINE",
"906 142 OFFCURVE",
"872 114 OFFCURVE",
"828 114 CURVE SMOOTH",
"778 114 OFFCURVE",
"753 153 OFFCURVE",
"717 230 CURVE SMOOTH",
"673 325 OFFCURVE",
"629 369 OFFCURVE",
"467 369 CURVE",
"429 315 LINE",
"498 315 OFFCURVE",
"516 294 OFFCURVE",
"585 150 CURVE SMOOTH",
"640 35 OFFCURVE",
"697 -5 OFFCURVE",
"785 -5 CURVE SMOOTH"
);
}
);
};
layerId = "ECEFE970-1BBB-4E0A-A452-CEB55884B4A3";
paths = (
{
closed = 1;
nodes = (
"375 -5 OFFCURVE",
"415 46 OFFCURVE",
"427 121 CURVE SMOOTH",
"460 319 OFFCURVE",
"486 458 OFFCURVE",
"505 565 CURVE SMOOTH",
"515 623 OFFCURVE",
"503 653 OFFCURVE",
"446 653 CURVE SMOOTH",
"410 653 OFFCURVE",
"372 640 OFFCURVE",
"362 588 CURVE SMOOTH",
"338 463 OFFCURVE",
"314 303 OFFCURVE",
"288 165 CURVE SMOOTH",
"281 125 OFFCURVE",
"270 110 OFFCURVE",
"253 110 CURVE SMOOTH",
"222 110 OFFCURVE",
"172 175 OFFCURVE",
"172 312 CURVE SMOOTH",
"172 588 OFFCURVE",
"306 733 OFFCURVE",
"499 733 CURVE SMOOTH",
"610 733 OFFCURVE",
"667 681 OFFCURVE",
"667 602 CURVE SMOOTH",
"667 491 OFFCURVE",
"572 419 OFFCURVE",
"441 419 CURVE SMOOTH",
"365 419 OFFCURVE",
"336 419 OFFCURVE",
"307 419 CURVE SMOOTH",
"282 419 OFFCURVE",
"256 400 OFFCURVE",
"256 367 CURVE SMOOTH",
"256 347 OFFCURVE",
"264 315 OFFCURVE",
"315 315 CURVE",
"452 339 LINE",
"701 339 OFFCURVE",
"818 487 OFFCURVE",
"818 622 CURVE SMOOTH",
"818 747 OFFCURVE",
"728 846 OFFCURVE",
"529 846 CURVE SMOOTH",
"251 846 OFFCURVE",
"63 647 OFFCURVE",
"63 305 CURVE SMOOTH",
"63 123 OFFCURVE",
"152 -5 OFFCURVE",
"289 -5 CURVE SMOOTH"
);
},
{
closed = 1;
nodes = (
"883 -5 OFFCURVE",
"943 49 OFFCURVE",
"998 116 CURVE",
"962 209 LINE",
"906 142 OFFCURVE",
"872 114 OFFCURVE",
"828 114 CURVE SMOOTH",
"778 114 OFFCURVE",
"745 153 OFFCURVE",
"709 230 CURVE SMOOTH",
"665 325 OFFCURVE",
"629 369 OFFCURVE",
"467 369 CURVE",
"429 315 LINE",
"498 315 OFFCURVE",
"516 294 OFFCURVE",
"585 150 CURVE SMOOTH",
"640 35 OFFCURVE",
"697 -5 OFFCURVE",
"785 -5 CURVE SMOOTH"
);
}
);
width = 883;
}
);
note = R;
unicode = 0052;
},
{
color = 3;
glyphname = S;
lastChange = "2016-07-27 22:19:04 +0000";
layers = (
{
background = {
paths = (
{
closed = 1;
nodes = (
"1571 395 OFFCURVE",
"1435 437 OFFCURVE",
"1316 484 CURVE SMOOTH",
"1223 521 OFFCURVE",
"1159 550 OFFCURVE",
"1157 622 CURVE SMOOTH",
"1155 692 OFFCURVE",
"1216 735 OFFCURVE",
"1325 735 CURVE SMOOTH",
"1402 735 OFFCURVE",
"1466 708 OFFCURVE",
"1466 654 CURVE SMOOTH",
"1466 622 OFFCURVE",
"1460 610 OFFCURVE",
"1460 581 CURVE SMOOTH",
"1460 552 OFFCURVE",
"1485 527 OFFCURVE",
"1523 527 CURVE SMOOTH",
"1577 527 OFFCURVE",
"1610 570 OFFCURVE",
"1610 654 CURVE SMOOTH",
"1610 788 OFFCURVE",
"1475 849 OFFCURVE",
"1330 849 CURVE SMOOTH",
"1130 849 OFFCURVE",
"1001 747 OFFCURVE",
"1001 601 CURVE SMOOTH",
"1001 458 OFFCURVE",
"1117 403 OFFCURVE",
"1228 361 CURVE SMOOTH",
"1326 324 OFFCURVE",
"1417 294 OFFCURVE",
"1417 213 CURVE SMOOTH",
"1417 147 OFFCURVE",
"1351 108 OFFCURVE",
"1252 108 CURVE SMOOTH",
"1143 108 OFFCURVE",
"1087 148 OFFCURVE",
"1067 226 CURVE SMOOTH",
"1053 281 OFFCURVE",
"1036 307 OFFCURVE",
"989 307 CURVE SMOOTH",
"940 307 OFFCURVE",
"914 275 OFFCURVE",
"914 232 CURVE SMOOTH",
"914 97 OFFCURVE",
"1050 -8 OFFCURVE",
"1242 -8 CURVE SMOOTH",
"1426 -8 OFFCURVE",
"1571 76 OFFCURVE",
"1571 242 CURVE SMOOTH"
);
},
{
closed = 1;
nodes = (
"665 351 OFFCURVE",
"610 401 OFFCURVE",
"433 471 CURVE SMOOTH",
"296 526 OFFCURVE",
"255 556 OFFCURVE",
"255 620 CURVE SMOOTH",
"255 692 OFFCURVE",
"316 735 OFFCURVE",
"425 735 CURVE SMOOTH",
"502 735 OFFCURVE",
"566 708 OFFCURVE",
"566 654 CURVE SMOOTH",
"566 622 OFFCURVE",
"560 610 OFFCURVE",
"560 581 CURVE SMOOTH",
"560 552 OFFCURVE",
"585 527 OFFCURVE",
"623 527 CURVE SMOOTH",
"676 527 OFFCURVE",
"702 570 OFFCURVE",
"702 654 CURVE SMOOTH",
"702 788 OFFCURVE",
"575 849 OFFCURVE",
"430 849 CURVE SMOOTH",
"230 849 OFFCURVE",
"110 747 OFFCURVE",
"110 601 CURVE SMOOTH",
"110 482 OFFCURVE",
"191 417 OFFCURVE",
"328 365 CURVE SMOOTH",
"485 305 OFFCURVE",
"518 277 OFFCURVE",
"518 216 CURVE SMOOTH",
"518 147 OFFCURVE",
"451 106 OFFCURVE",
"342 106 CURVE SMOOTH",
"235 106 OFFCURVE",
"171 133 OFFCURVE",
"171 190 CURVE SMOOTH",
"171 219 OFFCURVE",
"177 231 OFFCURVE",
"177 260 CURVE SMOOTH",
"177 289 OFFCURVE",
"152 314 OFFCURVE",
"114 314 CURVE SMOOTH",
"61 314 OFFCURVE",
"35 271 OFFCURVE",
"35 197 CURVE SMOOTH",
"35 52 OFFCURVE",
"161 -8 OFFCURVE",
"332 -8 CURVE SMOOTH",
"526 -8 OFFCURVE",
"665 76 OFFCURVE",
"665 242 CURVE SMOOTH"
);
}
);
};
layerId = "ECEFE970-1BBB-4E0A-A452-CEB55884B4A3";
paths = (
{
closed = 1;
nodes = (
"661 488 OFFCURVE",
"252 443 OFFCURVE",
"252 620 CURVE SMOOTH",
"252 692 OFFCURVE",
"313 736 OFFCURVE",
"425 736 CURVE SMOOTH",
"502 736 OFFCURVE",
"568 708 OFFCURVE",
"568 654 CURVE SMOOTH",
"568 622 OFFCURVE",
"562 610 OFFCURVE",
"562 581 CURVE SMOOTH",
"562 552 OFFCURVE",
"587 527 OFFCURVE",
"623 527 CURVE SMOOTH",
"676 527 OFFCURVE",
"702 570 OFFCURVE",
"702 654 CURVE SMOOTH",
"702 788 OFFCURVE",
"575 849 OFFCURVE",
"430 849 CURVE SMOOTH",
"230 849 OFFCURVE",
"110 747 OFFCURVE",
"110 601 CURVE SMOOTH",
"110 336 OFFCURVE",
"519 382 OFFCURVE",
"519 217 CURVE SMOOTH",
"519 147 OFFCURVE",
"451 105 OFFCURVE",
"342 105 CURVE SMOOTH",
"235 105 OFFCURVE",
"169 133 OFFCURVE",
"169 190 CURVE SMOOTH",
"169 219 OFFCURVE",
"175 231 OFFCURVE",
"175 260 CURVE SMOOTH",
"175 289 OFFCURVE",
"150 310 OFFCURVE",
"114 310 CURVE SMOOTH",
"61 310 OFFCURVE",
"35 271 OFFCURVE",
"35 197 CURVE SMOOTH",
"35 52 OFFCURVE",
"161 -8 OFFCURVE",
"332 -8 CURVE SMOOTH",
"526 -8 OFFCURVE",
"661 76 OFFCURVE",
"661 239 CURVE SMOOTH"
);
}
);
width = 697;
}
);
note = S;
unicode = 0053;
},
{
color = 3;
glyphname = Germandbls;
lastChange = "2016-07-27 21:13:14 +0000";
layers = (
{
background = {
paths = (
{
closed = 1;
nodes = (
"695 475 OFFCURVE",
"809 560 OFFCURVE",
"809 686 CURVE SMOOTH",
"809 781 OFFCURVE",
"728 848 OFFCURVE",
"616 848 CURVE SMOOTH",
"458 848 OFFCURVE",
"327 739 OFFCURVE",
"250 479 CURVE",
"253 469 LINE",
"284 630 OFFCURVE",
"310 718 OFFCURVE",
"323 782 CURVE SMOOTH",
"333 829 OFFCURVE",
"318 852 OFFCURVE",
"261 852 CURVE SMOOTH",
"218 852 OFFCURVE",
"183 839 OFFCURVE",
"172 794 CURVE SMOOTH",
"125 602 OFFCURVE",
"84 328 OFFCURVE",
"70 93 CURVE SMOOTH",
"66 24 OFFCURVE",
"93 -5 OFFCURVE",
"136 -5 CURVE SMOOTH",
"192 -5 OFFCURVE",
"217 26 OFFCURVE",
"224 86 CURVE SMOOTH",
"275 481 OFFCURVE",
"416 725 OFFCURVE",
"571 725 CURVE SMOOTH",
"621 725 OFFCURVE",
"650 698 OFFCURVE",
"650 652 CURVE SMOOTH",
"650 574 OFFCURVE",
"564 519 OFFCURVE",
"449 492 CURVE SMOOTH",
"394 479 OFFCURVE",
"385 382 OFFCURVE",
"443 380 CURVE SMOOTH",
"550 376 OFFCURVE",
"632 348 OFFCURVE",
"632 244 CURVE SMOOTH",
"632 159 OFFCURVE",
"556 76 OFFCURVE",
"407 46 CURVE SMOOTH",
"322 29 OFFCURVE",
"335 -63 OFFCURVE",
"462 -46 CURVE SMOOTH",
"646 -22 OFFCURVE",
"790 100 OFFCURVE",
"790 252 CURVE SMOOTH",
"790 368 OFFCURVE",
"699 449 OFFCURVE",
"561 451 CURVE",
"565 440 LINE"
);
}
);
};
layerId = "ECEFE970-1BBB-4E0A-A452-CEB55884B4A3";
paths = (
{
closed = 1;
nodes = (
"695 475 OFFCURVE",
"809 560 OFFCURVE",
"809 686 CURVE SMOOTH",
"809 781 OFFCURVE",
"728 848 OFFCURVE",
"616 848 CURVE SMOOTH",
"458 848 OFFCURVE",
"327 739 OFFCURVE",
"250 479 CURVE",
"253 469 LINE",
"284 630 OFFCURVE",
"310 718 OFFCURVE",
"323 782 CURVE SMOOTH",
"333 829 OFFCURVE",
"318 852 OFFCURVE",
"261 852 CURVE SMOOTH",
"223 852 OFFCURVE",
"188 839 OFFCURVE",
"176 794 CURVE SMOOTH",
"137 649 OFFCURVE",
"89 328 OFFCURVE",
"74 73 CURVE SMOOTH",
"71 24 OFFCURVE",
"98 -5 OFFCURVE",
"141 -5 CURVE SMOOTH",
"192 -5 OFFCURVE",
"217 26 OFFCURVE",
"224 86 CURVE SMOOTH",
"275 481 OFFCURVE",
"416 725 OFFCURVE",
"571 725 CURVE SMOOTH",
"626 725 OFFCURVE",
"655 698 OFFCURVE",
"655 652 CURVE SMOOTH",
"655 574 OFFCURVE",
"583 524 OFFCURVE",
"449 492 CURVE SMOOTH",
"403 481 OFFCURVE",
"395 382 OFFCURVE",
"443 380 CURVE SMOOTH",
"556 376 OFFCURVE",
"638 348 OFFCURVE",
"638 244 CURVE SMOOTH",
"638 159 OFFCURVE",
"562 76 OFFCURVE",
"407 46 CURVE SMOOTH",
"351 35 OFFCURVE",
"345 -59 OFFCURVE",
"462 -44 CURVE SMOOTH",
"646 -20 OFFCURVE",
"790 100 OFFCURVE",
"790 252 CURVE SMOOTH",
"790 368 OFFCURVE",
"699 449 OFFCURVE",
"561 451 CURVE",
"565 440 LINE"
);
}
);
width = 811;
}
);
unicode = 1E9E;
},
{
color = 3;
glyphname = T;
lastChange = "2016-07-27 21:17:37 +0000";
layers = (
{
background = {
paths = (
{
closed = 1;
nodes = (
"2065 638 OFFCURVE",
"2068 627 OFFCURVE",
"2074 618 CURVE SMOOTH",
"2084 603 OFFCURVE",
"2104 587 OFFCURVE",
"2143 587 CURVE SMOOTH",
"2162 587 OFFCURVE",
"2177 590 OFFCURVE",
"2188 597 CURVE SMOOTH",
"2208 610 OFFCURVE",
"2218 625 OFFCURVE",
"2220 639 CURVE",
"2220 645 OFFCURVE",
"2221 649 OFFCURVE",
"2221 649 CURVE SMOOTH",
"2221 674 OFFCURVE",
"2235 692 OFFCURVE",
"2257 705 CURVE SMOOTH",
"2278 718 OFFCURVE",
"2308 726 OFFCURVE",
"2342 732 CURVE SMOOTH",
"2375 738 OFFCURVE",
"2411 740 OFFCURVE",
"2446 743 CURVE",
"2406 619 OFFCURVE",
"2372 520 OFFCURVE",
"2342 436 CURVE SMOOTH",
"2312 352 OFFCURVE",
"2289 284 OFFCURVE",
"2270 222 CURVE SMOOTH",
"2251 160 OFFCURVE",
"2237 104 OFFCURVE",
"2229 45 CURVE",
"2227 38 OFFCURVE",
"2226 31 OFFCURVE",
"2226 24 CURVE SMOOTH",
"2226 -15 OFFCURVE",
"2253 -31 OFFCURVE",
"2290 -31 CURVE SMOOTH",
"2302 -31 OFFCURVE",
"2317 -23 OFFCURVE",
"2331 -10 CURVE SMOOTH",
"2345 3 OFFCURVE",
"2355 23 OFFCURVE",
"2361 45 CURVE SMOOTH",
"2368 69 OFFCURVE",
"2375 98 OFFCURVE",
"2384 131 CURVE SMOOTH",
"2393 165 OFFCURVE",
"2404 202 OFFCURVE",
"2415 241 CURVE SMOOTH",
"2437 320 OFFCURVE",
"2462 409 OFFCURVE",
"2484 497 CURVE SMOOTH",
"2506 584 OFFCURVE",
"2525 670 OFFCURVE",
"2536 743 CURVE",
"2603 739 OFFCURVE",
"2665 732 OFFCURVE",
"2724 726 CURVE SMOOTH",
"2783 720 OFFCURVE",
"2837 713 OFFCURVE",
"2887 713 CURVE SMOOTH",
"2902 713 OFFCURVE",
"2915 720 OFFCURVE",
"2925 730 CURVE SMOOTH",
"2935 740 OFFCURVE",
"2941 753 OFFCURVE",
"2941 766 CURVE SMOOTH",
"2941 787 OFFCURVE",
"2930 806 OFFCURVE",
"2899 812 CURVE SMOOTH",
"2764 838 OFFCURVE",
"2640 844 OFFCURVE",
"2527 844 CURVE SMOOTH",
"2443 844 OFFCURVE",
"2364 840 OFFCURVE",
"2296 830 CURVE SMOOTH",
"2227 820 OFFCURVE",
"2169 802 OFFCURVE",
"2129 773 CURVE SMOOTH",
"2088 744 OFFCURVE",
"2064 704 OFFCURVE",
"2064 649 CURVE"
);
},
{
closed = 1;
nodes = (
"1312 720 OFFCURVE",
"1388 717 OFFCURVE",
"1489 717 CURVE SMOOTH",
"1567 717 OFFCURVE",
"1685 720 OFFCURVE",
"1749 732 CURVE SMOOTH",
"1793 740 OFFCURVE",
"1811 764 OFFCURVE",
"1811 788 CURVE SMOOTH",
"1811 832 OFFCURVE",
"1788 855 OFFCURVE",
"1734 851 CURVE SMOOTH",
"1630 843 OFFCURVE",
"1558 840 OFFCURVE",
"1469 840 CURVE SMOOTH",
"1388 840 OFFCURVE",
"1313 847 OFFCURVE",
"1222 847 CURVE SMOOTH",
"1179 847 OFFCURVE",
"1156 834 OFFCURVE",
"1156 799 CURVE SMOOTH",
"1156 750 OFFCURVE",
"1189 730 OFFCURVE",
"1251 725 CURVE SMOOTH"
);
},
{
closed = 1;
nodes = (
"1283 601 OFFCURVE",
"1270 525 OFFCURVE",
"1237 345 CURVE SMOOTH",
"1214 218 OFFCURVE",
"1192 105 OFFCURVE",
"1192 50 CURVE SMOOTH",
"1192 15 OFFCURVE",
"1215 -5 OFFCURVE",
"1267 -5 CURVE SMOOTH",
"1309 -5 OFFCURVE",
"1348 14 OFFCURVE",
"1348 55 CURVE SMOOTH",
"1348 108 OFFCURVE",
"1370 267 OFFCURVE",
"1387 357 CURVE SMOOTH",
"1418 521 OFFCURVE",
"1429 598 OFFCURVE",
"1461 765 CURVE",
"1311 754 LINE"
);
},
{
closed = 1;
nodes = (
"114 460 OFFCURVE",
"195 510 OFFCURVE",
"171 548 CURVE SMOOTH",
"162 562 OFFCURVE",
"151 585 OFFCURVE",
"151 613 CURVE SMOOTH",
"151 695 OFFCURVE",
"229 724 OFFCURVE",
"522 724 CURVE SMOOTH",
"641 724 OFFCURVE",
"703 719 OFFCURVE",
"807 711 CURVE SMOOTH",
"861 707 OFFCURVE",
"884 730 OFFCURVE",
"884 774 CURVE SMOOTH",
"884 798 OFFCURVE",
"866 822 OFFCURVE",
"822 830 CURVE SMOOTH",
"758 842 OFFCURVE",
"680 847 OFFCURVE",
"572 847 CURVE SMOOTH",
"197 847 OFFCURVE",
"32 781 OFFCURVE",
"32 611 CURVE SMOOTH",
"32 556 OFFCURVE",
"52 513 OFFCURVE",
"78 491 CURVE SMOOTH"
);
}
);
};
layerId = "ECEFE970-1BBB-4E0A-A452-CEB55884B4A3";
paths = (
{
closed = 1;
nodes = (
"384 620 OFFCURVE",
"363 515 OFFCURVE",
"337 355 CURVE SMOOTH",
"316 228 OFFCURVE",
"293 105 OFFCURVE",
"293 55 CURVE SMOOTH",
"293 19 OFFCURVE",
"317 -5 OFFCURVE",
"366 -5 CURVE SMOOTH",
"408 -5 OFFCURVE",
"444 14 OFFCURVE",
"447 55 CURVE SMOOTH",
"453 128 OFFCURVE",
"471 267 OFFCURVE",
"486 357 CURVE SMOOTH",
"514 521 OFFCURVE",
"534 627 OFFCURVE",
"562 765 CURVE",
"410 754 LINE"
);
},
{
closed = 1;
nodes = (
"114 460 OFFCURVE",
"195 510 OFFCURVE",
"171 548 CURVE SMOOTH",
"162 562 OFFCURVE",
"151 585 OFFCURVE",
"151 613 CURVE SMOOTH",
"151 695 OFFCURVE",
"229 724 OFFCURVE",
"498 724 CURVE SMOOTH",
"657 724 OFFCURVE",
"719 719 OFFCURVE",
"823 711 CURVE SMOOTH",
"877 707 OFFCURVE",
"900 730 OFFCURVE",
"900 774 CURVE SMOOTH",
"900 798 OFFCURVE",
"882 822 OFFCURVE",
"838 830 CURVE SMOOTH",
"774 842 OFFCURVE",
"696 847 OFFCURVE",
"568 847 CURVE SMOOTH",
"197 847 OFFCURVE",
"32 781 OFFCURVE",
"32 611 CURVE SMOOTH",
"32 556 OFFCURVE",
"52 513 OFFCURVE",
"78 491 CURVE SMOOTH"
);
}
);
width = 668;
}
);
note = T;
unicode = 0054;
},
{
color = 3;
glyphname = U;
lastChange = "2016-07-27 21:23:46 +0000";
layers = (
{
background = {
paths = (
{
closed = 1;
nodes = (
"1923 227 OFFCURVE",
"1913 222 OFFCURVE",
"1903 209 CURVE SMOOTH",
"1851 141 OFFCURVE",
"1813 114 OFFCURVE",
"1769 114 CURVE SMOOTH",
"1730 114 OFFCURVE",
"1709 138 OFFCURVE",
"1709 189 CURVE SMOOTH",
"1709 302 OFFCURVE",
"1775 622 OFFCURVE",
"1791 769 CURVE SMOOTH",
"1796 816 OFFCURVE",
"1778 848 OFFCURVE",
"1725 848 CURVE SMOOTH",
"1680 848 OFFCURVE",
"1651 828 OFFCURVE",
"1643 767 CURVE SMOOTH",
"1580 287 OFFCURVE",
"1439 122 OFFCURVE",
"1338 122 CURVE SMOOTH",
"1283 122 OFFCURVE",
"1258 151 OFFCURVE",
"1258 216 CURVE SMOOTH",
"1258 337 OFFCURVE",
"1349 549 OFFCURVE",
"1349 695 CURVE SMOOTH",
"1349 801 OFFCURVE",
"1294 840 OFFCURVE",
"1211 840 CURVE SMOOTH",
"1099 840 OFFCURVE",
"1012 774 OFFCURVE",
"964 708 CURVE SMOOTH",
"903 625 OFFCURVE",
"945 537 OFFCURVE",
"1002 613 CURVE SMOOTH",
"1061 691 OFFCURVE",
"1117 729 OFFCURVE",
"1152 729 CURVE SMOOTH",
"1179 729 OFFCURVE",
"1198 713 OFFCURVE",
"1198 659 CURVE SMOOTH",
"1198 560 OFFCURVE",
"1107 326 OFFCURVE",
"1107 186 CURVE SMOOTH",
"1107 77 OFFCURVE",
"1171 -5 OFFCURVE",
"1290 -5 CURVE SMOOTH",
"1420 -5 OFFCURVE",
"1522 93 OFFCURVE",
"1590 296 CURVE",
"1577 234 OFFCURVE",
"1571 195 OFFCURVE",
"1571 148 CURVE SMOOTH",
"1571 62 OFFCURVE",
"1617 -5 OFFCURVE",
"1724 -5 CURVE SMOOTH",
"1800 -5 OFFCURVE",
"1887 38 OFFCURVE",
"1934 124 CURVE SMOOTH",
"1946 146 OFFCURVE",
"1951 164 OFFCURVE",
"1951 187 CURVE SMOOTH",
"1951 210 OFFCURVE",
"1943 227 OFFCURVE",
"1930 227 CURVE SMOOTH"
);
},
{
closed = 1;
nodes = (
"924 209 LINE",
"868 142 OFFCURVE",
"829 114 OFFCURVE",
"785 114 CURVE SMOOTH",
"745 114 OFFCURVE",
"717 141 OFFCURVE",
"717 198 CURVE SMOOTH",
"717 229 OFFCURVE",
"721 254 OFFCURVE",
"727 284 CURVE SMOOTH",
"788 570 LINE SMOOTH",
"796 609 OFFCURVE",
"801 645 OFFCURVE",
"801 677 CURVE SMOOTH",
"801 776 OFFCURVE",
"749 848 OFFCURVE",
"630 848 CURVE SMOOTH",
"490 848 OFFCURVE",
"388 741 OFFCURVE",
"322 547 CURVE",
"331 609 OFFCURVE",
"338 668 OFFCURVE",
"338 715 CURVE SMOOTH",
"338 801 OFFCURVE",
"302 848 OFFCURVE",
"222 848 CURVE SMOOTH",
"133 848 OFFCURVE",
"51 797 OFFCURVE",
"-13 708 CURVE SMOOTH",
"-34 679 OFFCURVE",
"-41 661 OFFCURVE",
"-41 638 CURVE SMOOTH",
"-41 603 OFFCURVE",
"-5 573 OFFCURVE",
"25 613 CURVE SMOOTH",
"87 696 OFFCURVE",
"138 724 OFFCURVE",
"168 724 CURVE SMOOTH",
"188 724 OFFCURVE",
"201 713 OFFCURVE",
"201 679 CURVE SMOOTH",
"201 653 OFFCURVE",
"199 615 OFFCURVE",
"192 559 CURVE SMOOTH",
"164 333 OFFCURVE",
"121 159 OFFCURVE",
"121 84 CURVE SMOOTH",
"121 20 OFFCURVE",
"146 -5 OFFCURVE",
"192 -5 CURVE SMOOTH",
"253 -5 OFFCURVE",
"263 25 OFFCURVE",
"271 86 CURVE SMOOTH",
"333 556 OFFCURVE",
"471 721 OFFCURVE",
"582 721 CURVE SMOOTH",
"627 721 OFFCURVE",
"651 692 OFFCURVE",
"651 651 CURVE SMOOTH",
"651 607 OFFCURVE",
"641 572 OFFCURVE",
"633 535 CURVE SMOOTH",
"592 352 LINE SMOOTH",
"574 273 OFFCURVE",
"568 226 OFFCURVE",
"568 181 CURVE SMOOTH",
"568 69 OFFCURVE",
"635 -5 OFFCURVE",
"750 -5 CURVE SMOOTH",
"824 -5 OFFCURVE",
"890 31 OFFCURVE",
"960 116 CURVE"
);
}
);
};
layerId = "ECEFE970-1BBB-4E0A-A452-CEB55884B4A3";
paths = (
{
closed = 1;
nodes = (
"427 -5 OFFCURVE",
"529 102 OFFCURVE",
"595 296 CURVE",
"586 234 OFFCURVE",
"579 185 OFFCURVE",
"579 148 CURVE SMOOTH",
"579 62 OFFCURVE",
"635 -5 OFFCURVE",
"750 -5 CURVE SMOOTH",
"824 -5 OFFCURVE",
"890 31 OFFCURVE",
"960 116 CURVE",
"924 209 LINE",
"868 142 OFFCURVE",
"829 114 OFFCURVE",
"785 114 CURVE SMOOTH",
"745 114 OFFCURVE",
"717 141 OFFCURVE",
"717 198 CURVE SMOOTH",
"717 224 OFFCURVE",
"720 248 OFFCURVE",
"725 284 CURVE SMOOTH",
"753 510 OFFCURVE",
"796 684 OFFCURVE",
"796 759 CURVE SMOOTH",
"796 823 OFFCURVE",
"771 848 OFFCURVE",
"725 848 CURVE SMOOTH",
"664 848 OFFCURVE",
"654 818 OFFCURVE",
"646 757 CURVE SMOOTH",
"584 287 OFFCURVE",
"446 122 OFFCURVE",
"335 122 CURVE SMOOTH",
"290 122 OFFCURVE",
"266 151 OFFCURVE",
"266 192 CURVE SMOOTH",
"266 236 OFFCURVE",
"276 271 OFFCURVE",
"284 308 CURVE SMOOTH",
"325 491 LINE SMOOTH",
"343 570 OFFCURVE",
"356 627 OFFCURVE",
"356 702 CURVE SMOOTH",
"356 801 OFFCURVE",
"305 848 OFFCURVE",
"229 848 CURVE SMOOTH",
"110 848 OFFCURVE",
"35 774 OFFCURVE",
"-13 708 CURVE SMOOTH",
"-34 679 OFFCURVE",
"-41 656 OFFCURVE",
"-41 638 CURVE SMOOTH",
"-41 603 OFFCURVE",
"-5 573 OFFCURVE",
"25 613 CURVE SMOOTH",
"87 696 OFFCURVE",
"142 724 OFFCURVE",
"172 724 CURVE SMOOTH",
"192 724 OFFCURVE",
"207 715 OFFCURVE",
"207 681 CURVE SMOOTH",
"207 630 OFFCURVE",
"196 589 OFFCURVE",
"190 559 CURVE SMOOTH",
"129 273 LINE SMOOTH",
"121 234 OFFCURVE",
"116 198 OFFCURVE",
"116 166 CURVE SMOOTH",
"116 67 OFFCURVE",
"168 -5 OFFCURVE",
"287 -5 CURVE SMOOTH"
);
}
);
width = 845;
}
);
note = U;
unicode = 0055;
},
{
color = 3;
glyphname = V;
lastChange = "2016-07-27 21:33:56 +0000";
layers = (
{
background = {
paths = (
{
closed = 1;
nodes = (
"560 -5 OFFCURVE",
"798 420 OFFCURVE",
"798 692 CURVE SMOOTH",
"798 800 OFFCURVE",
"742 864 OFFCURVE",
"655 864 CURVE SMOOTH",
"553 864 OFFCURVE",
"469 786 OFFCURVE",
"469 622 CURVE SMOOTH",
"469 442 OFFCURVE",
"589 332 OFFCURVE",
"812 332 CURVE SMOOTH",
"927 332 OFFCURVE",
"959 432 OFFCURVE",
"875 432 CURVE SMOOTH",
"658 432 OFFCURVE",
"570 489 OFFCURVE",
"570 629 CURVE SMOOTH",
"570 704 OFFCURVE",
"597 747 OFFCURVE",
"631 747 CURVE SMOOTH",
"654 747 OFFCURVE",
"672 723 OFFCURVE",
"672 669 CURVE SMOOTH",
"672 501 OFFCURVE",
"497 136 OFFCURVE",
"367 136 CURVE SMOOTH",
"307 136 OFFCURVE",
"273 245 OFFCURVE",
"273 443 CURVE SMOOTH",
"273 537 OFFCURVE",
"280 647 OFFCURVE",
"303 769 CURVE SMOOTH",
"313 822 OFFCURVE",
"296 848 OFFCURVE",
"235 848 CURVE SMOOTH",
"182 848 OFFCURVE",
"157 826 OFFCURVE",
"144 759 CURVE SMOOTH",
"122 647 OFFCURVE",
"116 540 OFFCURVE",
"116 443 CURVE SMOOTH",
"116 182 OFFCURVE",
"177 -5 OFFCURVE",
"330 -5 CURVE SMOOTH"
);
},
{
closed = 1;
nodes = (
"-391 -5 OFFCURVE",
"-204 221 OFFCURVE",
"-88 763 CURVE SMOOTH",
"-76 819 OFFCURVE",
"-90 848 OFFCURVE",
"-148 848 CURVE SMOOTH",
"-201 848 OFFCURVE",
"-232 832 OFFCURVE",
"-243 767 CURVE SMOOTH",
"-314 345 OFFCURVE",
"-446 136 OFFCURVE",
"-529 136 CURVE SMOOTH",
"-608 136 OFFCURVE",
"-659 361 OFFCURVE",
"-599 760 CURVE SMOOTH",
"-588 833 OFFCURVE",
"-620 848 OFFCURVE",
"-668 848 CURVE SMOOTH",
"-716 848 OFFCURVE",
"-740 826 OFFCURVE",
"-751 759 CURVE SMOOTH",
"-819 342 OFFCURVE",
"-754 -5 OFFCURVE",
"-561 -5 CURVE SMOOTH"
);
}
);
};
layerId = "ECEFE970-1BBB-4E0A-A452-CEB55884B4A3";
paths = (
{
closed = 1;
nodes = (
"560 -5 OFFCURVE",
"798 420 OFFCURVE",
"798 692 CURVE SMOOTH",
"798 800 OFFCURVE",
"742 864 OFFCURVE",
"655 864 CURVE SMOOTH",
"553 864 OFFCURVE",
"469 786 OFFCURVE",
"469 622 CURVE SMOOTH",
"469 442 OFFCURVE",
"589 321 OFFCURVE",
"855 329 CURVE",
"885 432 LINE",
"658 432 OFFCURVE",
"570 489 OFFCURVE",
"570 629 CURVE SMOOTH",
"570 709 OFFCURVE",
"597 750 OFFCURVE",
"631 750 CURVE SMOOTH",
"654 750 OFFCURVE",
"672 728 OFFCURVE",
"672 669 CURVE SMOOTH",
"672 501 OFFCURVE",
"497 136 OFFCURVE",
"367 136 CURVE SMOOTH",
"307 136 OFFCURVE",
"273 245 OFFCURVE",
"273 443 CURVE SMOOTH",
"273 537 OFFCURVE",
"282 643 OFFCURVE",
"303 769 CURVE SMOOTH",
"312 822 OFFCURVE",
"291 848 OFFCURVE",
"230 848 CURVE SMOOTH",
"185 848 OFFCURVE",
"161 826 OFFCURVE",
"149 759 CURVE SMOOTH",
"129 647 OFFCURVE",
"124 540 OFFCURVE",
"124 443 CURVE SMOOTH",
"124 182 OFFCURVE",
"185 -5 OFFCURVE",
"330 -5 CURVE SMOOTH"
);
}
);
width = 736;
}
);
note = V;
unicode = 0056;
},
{
color = 3;
glyphname = W;
lastChange = "2016-07-27 21:33:52 +0000";
layers = (
{
background = {
paths = (
{
closed = 1;
nodes = (
"1423 -5 OFFCURVE",
"1583 221 OFFCURVE",
"1669 763 CURVE",
"1649 848 LINE",
"1596 848 OFFCURVE",
"1565 832 OFFCURVE",
"1554 767 CURVE SMOOTH",
"1482 345 OFFCURVE",
"1361 136 OFFCURVE",
"1295 136 CURVE SMOOTH",
"1226 136 OFFCURVE",
"1188 361 OFFCURVE",
"1248 760 CURVE SMOOTH",
"1259 833 OFFCURVE",
"1227 848 OFFCURVE",
"1179 848 CURVE SMOOTH",
"1126 848 OFFCURVE",
"1101 826 OFFCURVE",
"1091 759 CURVE SMOOTH",
"1028 341 OFFCURVE",
"1075 -5 OFFCURVE",
"1263 -5 CURVE SMOOTH"
);
},
{
closed = 1;
nodes = (
"1961 -5 OFFCURVE",
"2199 420 OFFCURVE",
"2199 692 CURVE SMOOTH",
"2199 800 OFFCURVE",
"2143 864 OFFCURVE",
"2056 864 CURVE SMOOTH",
"1954 864 OFFCURVE",
"1870 786 OFFCURVE",
"1870 622 CURVE SMOOTH",
"1870 442 OFFCURVE",
"1990 332 OFFCURVE",
"2213 332 CURVE SMOOTH",
"2328 332 OFFCURVE",
"2340 432 OFFCURVE",
"2276 432 CURVE SMOOTH",
"2059 432 OFFCURVE",
"1971 489 OFFCURVE",
"1971 629 CURVE SMOOTH",
"1971 704 OFFCURVE",
"1998 747 OFFCURVE",
"2032 747 CURVE SMOOTH",
"2055 747 OFFCURVE",
"2073 723 OFFCURVE",
"2073 669 CURVE SMOOTH",
"2073 501 OFFCURVE",
"1898 136 OFFCURVE",
"1778 136 CURVE SMOOTH",
"1701 136 OFFCURVE",
"1687 245 OFFCURVE",
"1687 443 CURVE SMOOTH",
"1687 537 OFFCURVE",
"1694 647 OFFCURVE",
"1717 769 CURVE SMOOTH",
"1727 822 OFFCURVE",
"1710 848 OFFCURVE",
"1649 848 CURVE",
"1596 759 LINE",
"1527 411 OFFCURVE",
"1535 -5 OFFCURVE",
"1741 -5 CURVE SMOOTH"
);
},
{
closed = 1;
nodes = (
"561 -5 OFFCURVE",
"799 420 OFFCURVE",
"799 692 CURVE SMOOTH",
"799 800 OFFCURVE",
"743 864 OFFCURVE",
"656 864 CURVE SMOOTH",
"554 864 OFFCURVE",
"470 786 OFFCURVE",
"470 622 CURVE SMOOTH",
"470 442 OFFCURVE",
"590 321 OFFCURVE",
"856 329 CURVE",
"886 432 LINE",
"659 432 OFFCURVE",
"571 489 OFFCURVE",
"571 629 CURVE SMOOTH",
"571 709 OFFCURVE",
"598 750 OFFCURVE",
"632 750 CURVE SMOOTH",
"655 750 OFFCURVE",
"673 728 OFFCURVE",
"673 669 CURVE SMOOTH",
"673 501 OFFCURVE",
"498 136 OFFCURVE",
"368 136 CURVE SMOOTH",
"308 136 OFFCURVE",
"274 245 OFFCURVE",
"274 443 CURVE SMOOTH",
"274 537 OFFCURVE",
"282 643 OFFCURVE",
"304 769 CURVE SMOOTH",
"313 822 OFFCURVE",
"292 848 OFFCURVE",
"231 848 CURVE SMOOTH",
"186 848 OFFCURVE",
"162 826 OFFCURVE",
"150 759 CURVE SMOOTH",
"130 647 OFFCURVE",
"125 540 OFFCURVE",
"125 443 CURVE SMOOTH",
"125 182 OFFCURVE",
"186 -5 OFFCURVE",
"331 -5 CURVE SMOOTH"
);
}
);
};
layerId = "ECEFE970-1BBB-4E0A-A452-CEB55884B4A3";
paths = (
{
closed = 1;
nodes = (
"478 -5 OFFCURVE",
"628 221 OFFCURVE",
"714 763 CURVE",
"704 848 LINE",
"656 848 OFFCURVE",
"625 832 OFFCURVE",
"614 767 CURVE SMOOTH",
"543 345 OFFCURVE",
"416 136 OFFCURVE",
"350 136 CURVE SMOOTH",
"281 136 OFFCURVE",
"243 361 OFFCURVE",
"303 760 CURVE SMOOTH",
"314 833 OFFCURVE",
"282 848 OFFCURVE",
"234 848 CURVE SMOOTH",
"181 848 OFFCURVE",
"160 826 OFFCURVE",
"150 759 CURVE SMOOTH",
"88 341 OFFCURVE",
"135 -5 OFFCURVE",
"318 -5 CURVE SMOOTH"
);
},
{
closed = 1;
nodes = (
"1016 -5 OFFCURVE",
"1254 420 OFFCURVE",
"1254 692 CURVE SMOOTH",
"1254 800 OFFCURVE",
"1198 864 OFFCURVE",
"1111 864 CURVE SMOOTH",
"1009 864 OFFCURVE",
"925 786 OFFCURVE",
"925 622 CURVE SMOOTH",
"925 442 OFFCURVE",
"1045 321 OFFCURVE",
"1311 329 CURVE",
"1341 432 LINE",
"1114 432 OFFCURVE",
"1026 489 OFFCURVE",
"1026 629 CURVE SMOOTH",
"1026 709 OFFCURVE",
"1053 750 OFFCURVE",
"1087 750 CURVE SMOOTH",
"1110 750 OFFCURVE",
"1128 728 OFFCURVE",
"1128 669 CURVE SMOOTH",
"1128 501 OFFCURVE",
"953 136 OFFCURVE",
"833 136 CURVE SMOOTH",
"756 136 OFFCURVE",
"742 245 OFFCURVE",
"742 443 CURVE SMOOTH",
"742 537 OFFCURVE",
"750 647 OFFCURVE",
"770 769 CURVE SMOOTH",
"779 822 OFFCURVE",
"763 848 OFFCURVE",
"704 848 CURVE",
"651 759 LINE",
"582 411 OFFCURVE",
"590 -5 OFFCURVE",
"796 -5 CURVE SMOOTH"
);
}
);
width = 1192;
}
);
leftMetricsKey = V;
note = W;
rightMetricsKey = V;
unicode = 0057;
},
{
color = 0;
glyphname = X;
lastChange = "2016-07-27 11:49:14 +0000";
layers = (
{
layerId = "ECEFE970-1BBB-4E0A-A452-CEB55884B4A3";
paths = (
{
closed = 1;
nodes = (
"467 441 OFFCURVE",
"464 437 OFFCURVE",
"457 428 CURVE SMOOTH",
"449 419 OFFCURVE",
"439 407 OFFCURVE",
"426 392 CURVE SMOOTH",
"414 376 OFFCURVE",
"399 358 OFFCURVE",
"383 338 CURVE SMOOTH",
"366 318 OFFCURVE",
"349 296 OFFCURVE",
"331 274 CURVE SMOOTH",
"313 252 OFFCURVE",
"294 230 OFFCURVE",
"276 208 CURVE SMOOTH",
"239 162 OFFCURVE",
"206 122 OFFCURVE",
"181 90 CURVE SMOOTH",
"155 59 OFFCURVE",
"128 32 OFFCURVE",
"128 -2 CURVE SMOOTH",
"128 -31 OFFCURVE",
"150 -51 OFFCURVE",
"195 -51 CURVE SMOOTH",
"227 -51 OFFCURVE",
"259 -37 OFFCURVE",
"274 -15 CURVE SMOOTH",
"286 0 OFFCURVE",
"305 29 OFFCURVE",
"329 64 CURVE SMOOTH",
"353 100 OFFCURVE",
"380 141 OFFCURVE",
"406 180 CURVE SMOOTH",
"437 226 OFFCURVE",
"470 275 OFFCURVE",
"505 328 CURVE",
"526 227 OFFCURVE",
"544 153 OFFCURVE",
"564 100 CURVE SMOOTH",
"583 47 OFFCURVE",
"603 14 OFFCURVE",
"627 -5 CURVE SMOOTH",
"651 -25 OFFCURVE",
"680 -31 OFFCURVE",
"716 -31 CURVE SMOOTH",
"748 -31 OFFCURVE",
"787 -18 OFFCURVE",
"829 9 CURVE SMOOTH",
"870 35 OFFCURVE",
"915 74 OFFCURVE",
"958 125 CURVE",
"965 133 OFFCURVE",
"969 141 OFFCURVE",
"969 151 CURVE SMOOTH",
"969 165 OFFCURVE",
"963 180 OFFCURVE",
"954 191 CURVE SMOOTH",
"945 203 OFFCURVE",
"934 210 OFFCURVE",
"922 210 CURVE SMOOTH",
"916 210 OFFCURVE",
"911 208 OFFCURVE",
"906 203 CURVE",
"848 114 OFFCURVE",
"799 78 OFFCURVE",
"759 78 CURVE SMOOTH",
"744 78 OFFCURVE",
"731 81 OFFCURVE",
"721 88 CURVE SMOOTH",
"700 102 OFFCURVE",
"686 130 OFFCURVE",
"676 171 CURVE SMOOTH",
"666 211 OFFCURVE",
"655 265 OFFCURVE",
"641 332 CURVE SMOOTH",
"634 365 OFFCURVE",
"625 401 OFFCURVE",
"615 440 CURVE",
"643 480 OFFCURVE",
"671 521 OFFCURVE",
"699 559 CURVE SMOOTH",
"727 596 OFFCURVE",
"754 628 OFFCURVE",
"777 652 CURVE SMOOTH",
"800 675 OFFCURVE",
"818 689 OFFCURVE",
"832 689 CURVE SMOOTH",
"834 689 OFFCURVE",
"836 688 OFFCURVE",
"838 684 CURVE",
"840 676 OFFCURVE",
"841 665 OFFCURVE",
"841 652 CURVE",
"840 645 OFFCURVE",
"840 639 OFFCURVE",
"841 633 CURVE",
"841 622 OFFCURVE",
"844 614 OFFCURVE",
"850 614 CURVE SMOOTH",
"905 614 OFFCURVE",
"943 646 OFFCURVE",
"943 708 CURVE SMOOTH",
"943 739 OFFCURVE",
"936 771 OFFCURVE",
"924 795 CURVE SMOOTH",
"912 819 OFFCURVE",
"895 835 OFFCURVE",
"875 835 CURVE SMOOTH",
"853 835 OFFCURVE",
"824 819 OFFCURVE",
"791 792 CURVE SMOOTH",
"758 765 OFFCURVE",
"721 727 OFFCURVE",
"684 684 CURVE SMOOTH",
"647 641 OFFCURVE",
"610 593 OFFCURVE",
"579 545 CURVE",
"561 633 OFFCURVE",
"536 695 OFFCURVE",
"507 740 CURVE SMOOTH",
"478 784 OFFCURVE",
"446 811 OFFCURVE",
"413 825 CURVE SMOOTH",
"379 840 OFFCURVE",
"345 844 OFFCURVE",
"313 844 CURVE SMOOTH",
"275 844 OFFCURVE",
"243 832 OFFCURVE",
"220 809 CURVE SMOOTH",
"196 785 OFFCURVE",
"183 750 OFFCURVE",
"183 701 CURVE SMOOTH",
"183 694 OFFCURVE",
"184 680 OFFCURVE",
"187 664 CURVE SMOOTH",
"188 648 OFFCURVE",
"192 630 OFFCURVE",
"197 616 CURVE SMOOTH",
"201 603 OFFCURVE",
"208 593 OFFCURVE",
"214 593 CURVE SMOOTH",
"218 593 OFFCURVE",
"223 598 OFFCURVE",
"229 607 CURVE SMOOTH",
"236 623 OFFCURVE",
"245 637 OFFCURVE",
"254 650 CURVE SMOOTH",
"273 677 OFFCURVE",
"291 698 OFFCURVE",
"305 710 CURVE",
"311 716 OFFCURVE",
"315 719 OFFCURVE",
"317 719 CURVE SMOOTH",
"350 719 OFFCURVE",
"375 702 OFFCURVE",
"396 675 CURVE SMOOTH",
"415 647 OFFCURVE",
"430 611 OFFCURVE",
"440 572 CURVE SMOOTH",
"450 533 OFFCURVE",
"457 492 OFFCURVE",
"462 456 CURVE",
"467 441 LINE"
);
}
);
width = 828;
}
);
note = X;
unicode = 0058;
},
{
color = 3;
glyphname = Y;
lastChange = "2016-07-27 22:29:33 +0000";
layers = (
{
background = {
paths = (
{
closed = 1;
nodes = (
"568 257 OFFCURVE",
"555 176 OFFCURVE",
"540 37 CURVE SMOOTH",
"519 -157 OFFCURVE",
"446 -225 OFFCURVE",
"364 -225 CURVE SMOOTH",
"319 -225 OFFCURVE",
"296 -194 OFFCURVE",
"297 -158 CURVE SMOOTH",
"300 -39 OFFCURVE",
"468 43 OFFCURVE",
"820 122 CURVE SMOOTH",
"891 138 OFFCURVE",
"883 243 OFFCURVE",
"808 224 CURVE SMOOTH",
"389 118 OFFCURVE",
"169 3 OFFCURVE",
"169 -183 CURVE SMOOTH",
"169 -266 OFFCURVE",
"234 -327 OFFCURVE",
"349 -327 CURVE SMOOTH",
"509 -327 OFFCURVE",
"644 -213 OFFCURVE",
"680 59 CURVE SMOOTH",
"737 491 OFFCURVE",
"755 622 OFFCURVE",
"774 769 CURVE SMOOTH",
"780 816 OFFCURVE",
"761 848 OFFCURVE",
"708 848 CURVE SMOOTH",
"664 848 OFFCURVE",
"634 828 OFFCURVE",
"627 767 CURVE SMOOTH",
"585 397 OFFCURVE",
"450 232 OFFCURVE",
"349 232 CURVE SMOOTH",
"293 232 OFFCURVE",
"268 261 OFFCURVE",
"268 326 CURVE SMOOTH",
"268 417 OFFCURVE",
"331 569 OFFCURVE",
"331 695 CURVE SMOOTH",
"331 801 OFFCURVE",
"276 840 OFFCURVE",
"194 840 CURVE SMOOTH",
"82 840 OFFCURVE",
"-5 774 OFFCURVE",
"-53 708 CURVE SMOOTH",
"-74 679 OFFCURVE",
"-83 649 OFFCURVE",
"-83 626 CURVE SMOOTH",
"-83 601 OFFCURVE",
"-72 584 OFFCURVE",
"-56 584 CURVE SMOOTH",
"-45 584 OFFCURVE",
"-30 593 OFFCURVE",
"-15 613 CURVE SMOOTH",
"44 691 OFFCURVE",
"100 729 OFFCURVE",
"135 729 CURVE SMOOTH",
"162 729 OFFCURVE",
"181 713 OFFCURVE",
"181 659 CURVE SMOOTH",
"181 580 OFFCURVE",
"118 406 OFFCURVE",
"118 296 CURVE SMOOTH",
"118 187 OFFCURVE",
"182 105 OFFCURVE",
"301 105 CURVE SMOOTH",
"418 105 OFFCURVE",
"519 185 OFFCURVE",
"581 354 CURVE"
);
},
{
closed = 1;
nodes = (
"-594 -5 OFFCURVE",
"-492 102 OFFCURVE",
"-426 296 CURVE",
"-435 234 OFFCURVE",
"-442 185 OFFCURVE",
"-442 148 CURVE SMOOTH",
"-442 62 OFFCURVE",
"-386 -5 OFFCURVE",
"-271 -5 CURVE SMOOTH",
"-197 -5 OFFCURVE",
"-131 31 OFFCURVE",
"-61 116 CURVE",
"-97 209 LINE",
"-153 142 OFFCURVE",
"-192 114 OFFCURVE",
"-236 114 CURVE SMOOTH",
"-276 114 OFFCURVE",
"-304 141 OFFCURVE",
"-304 198 CURVE SMOOTH",
"-304 224 OFFCURVE",
"-301 248 OFFCURVE",
"-296 284 CURVE SMOOTH",
"-265 510 OFFCURVE",
"-225 684 OFFCURVE",
"-225 759 CURVE SMOOTH",
"-225 823 OFFCURVE",
"-250 848 OFFCURVE",
"-296 848 CURVE SMOOTH",
"-357 848 OFFCURVE",
"-367 818 OFFCURVE",
"-375 757 CURVE SMOOTH",
"-437 287 OFFCURVE",
"-575 122 OFFCURVE",
"-686 122 CURVE SMOOTH",
"-731 122 OFFCURVE",
"-755 151 OFFCURVE",
"-755 192 CURVE SMOOTH",
"-755 236 OFFCURVE",
"-745 271 OFFCURVE",
"-737 308 CURVE SMOOTH",
"-696 491 LINE SMOOTH",
"-678 570 OFFCURVE",
"-665 627 OFFCURVE",
"-665 702 CURVE SMOOTH",
"-665 801 OFFCURVE",
"-716 848 OFFCURVE",
"-792 848 CURVE SMOOTH",
"-911 848 OFFCURVE",
"-986 774 OFFCURVE",
"-1034 708 CURVE SMOOTH",
"-1055 679 OFFCURVE",
"-1062 656 OFFCURVE",
"-1062 638 CURVE SMOOTH",
"-1062 603 OFFCURVE",
"-1026 573 OFFCURVE",
"-996 613 CURVE SMOOTH",
"-934 696 OFFCURVE",
"-879 724 OFFCURVE",
"-849 724 CURVE SMOOTH",
"-829 724 OFFCURVE",
"-814 715 OFFCURVE",
"-814 681 CURVE SMOOTH",
"-814 630 OFFCURVE",
"-825 589 OFFCURVE",
"-831 559 CURVE SMOOTH",
"-892 273 LINE SMOOTH",
"-900 234 OFFCURVE",
"-905 198 OFFCURVE",
"-905 166 CURVE SMOOTH",
"-905 67 OFFCURVE",
"-853 -5 OFFCURVE",
"-734 -5 CURVE SMOOTH"
);
}
);
};
layerId = "ECEFE970-1BBB-4E0A-A452-CEB55884B4A3";
paths = (
{
closed = 1;
nodes = (
"569 257 OFFCURVE",
"557 176 OFFCURVE",
"538 37 CURVE SMOOTH",
"512 -157 OFFCURVE",
"446 -225 OFFCURVE",
"364 -225 CURVE SMOOTH",
"319 -225 OFFCURVE",
"296 -194 OFFCURVE",
"297 -158 CURVE SMOOTH",
"300 -39 OFFCURVE",
"478 53 OFFCURVE",
"854 122 CURVE",
"842 224 LINE",
"398 132 OFFCURVE",
"175 3 OFFCURVE",
"175 -183 CURVE SMOOTH",
"175 -264 OFFCURVE",
"234 -327 OFFCURVE",
"349 -327 CURVE SMOOTH",
"509 -327 OFFCURVE",
"636 -213 OFFCURVE",
"675 59 CURVE SMOOTH",
"733 462 OFFCURVE",
"760 622 OFFCURVE",
"778 769 CURVE SMOOTH",
"784 816 OFFCURVE",
"761 848 OFFCURVE",
"708 848 CURVE SMOOTH",
"664 848 OFFCURVE",
"634 828 OFFCURVE",
"627 767 CURVE SMOOTH",
"585 397 OFFCURVE",
"450 232 OFFCURVE",
"349 232 CURVE SMOOTH",
"293 232 OFFCURVE",
"273 261 OFFCURVE",
"273 326 CURVE SMOOTH",
"273 397 OFFCURVE",
"335 566 OFFCURVE",
"335 702 CURVE SMOOTH",
"335 801 OFFCURVE",
"284 848 OFFCURVE",
"208 848 CURVE SMOOTH",
"89 848 OFFCURVE",
"14 774 OFFCURVE",
"-34 708 CURVE SMOOTH",
"-55 679 OFFCURVE",
"-62 656 OFFCURVE",
"-62 638 CURVE SMOOTH",
"-62 603 OFFCURVE",
"-26 573 OFFCURVE",
"4 613 CURVE SMOOTH",
"63 691 OFFCURVE",
"116 724 OFFCURVE",
"151 724 CURVE SMOOTH",
"171 724 OFFCURVE",
"186 715 OFFCURVE",
"186 681 CURVE SMOOTH",
"186 582 OFFCURVE",
"123 406 OFFCURVE",
"123 296 CURVE SMOOTH",
"123 187 OFFCURVE",
"182 105 OFFCURVE",
"301 105 CURVE SMOOTH",
"418 105 OFFCURVE",
"520 185 OFFCURVE",
"584 354 CURVE"
);
}
);
width = 760;
}
);
note = Y;
unicode = 0059;
},
{
color = 3;
glyphname = Z;
lastChange = "2016-07-27 22:34:02 +0000";
layers = (
{
background = {
paths = (
{
closed = 1;
nodes = (
"1289 494 OFFCURVE",
"1304 489 OFFCURVE",
"1319 489 CURVE SMOOTH",
"1350 489 OFFCURVE",
"1380 508 OFFCURVE",
"1380 536 CURVE SMOOTH",
"1380 556 OFFCURVE",
"1355 576 OFFCURVE",
"1355 619 CURVE SMOOTH",
"1355 694 OFFCURVE",
"1423 726 OFFCURVE",
"1627 726 CURVE SMOOTH",
"1799 726 OFFCURVE",
"1879 688 OFFCURVE",
"1952 688 CURVE SMOOTH",
"1996 688 OFFCURVE",
"2015 712 OFFCURVE",
"2015 748 CURVE SMOOTH",
"2015 775 OFFCURVE",
"1998 796 OFFCURVE",
"1955 808 CURVE SMOOTH",
"1852 837 OFFCURVE",
"1732 846 OFFCURVE",
"1639 846 CURVE SMOOTH",
"1391 846 OFFCURVE",
"1236 781 OFFCURVE",
"1236 617 CURVE SMOOTH",
"1236 566 OFFCURVE",
"1254 526 OFFCURVE",
"1278 504 CURVE SMOOTH"
);
},
{
closed = 1;
nodes = (
"1901 -5 OFFCURVE",
"1982 43 OFFCURVE",
"2048 137 CURVE SMOOTH",
"2096 206 OFFCURVE",
"2073 278 OFFCURVE",
"2017 222 CURVE SMOOTH",
"1956 161 OFFCURVE",
"1908 135 OFFCURVE",
"1851 135 CURVE SMOOTH",
"1730 135 OFFCURVE",
"1545 281 OFFCURVE",
"1362 281 CURVE",
"1341 190 LINE",
"1460 190 OFFCURVE",
"1619 -5 OFFCURVE",
"1824 -5 CURVE SMOOTH"
);
},
{
closed = 1;
nodes = (
"1791 745 LINE",
"1679 558 OFFCURVE",
"1555 364 OFFCURVE",
"1441 189 CURVE SMOOTH",
"1390 111 OFFCURVE",
"1357 87 OFFCURVE",
"1326 87 CURVE SMOOTH",
"1294 87 OFFCURVE",
"1276 107 OFFCURVE",
"1276 133 CURVE SMOOTH",
"1276 168 OFFCURVE",
"1302 190 OFFCURVE",
"1341 190 CURVE",
"1362 281 LINE",
"1234 281 OFFCURVE",
"1165 211 OFFCURVE",
"1165 126 CURVE SMOOTH",
"1165 46 OFFCURVE",
"1234 -5 OFFCURVE",
"1331 -5 CURVE SMOOTH",
"1430 -5 OFFCURVE",
"1512 45 OFFCURVE",
"1602 175 CURVE SMOOTH",
"1702 320 OFFCURVE",
"1827 514 OFFCURVE",
"1961 738 CURVE"
);
},
{
closed = 1;
nodes = (
"109 494 OFFCURVE",
"124 489 OFFCURVE",
"139 489 CURVE SMOOTH",
"170 489 OFFCURVE",
"200 508 OFFCURVE",
"200 536 CURVE SMOOTH",
"200 556 OFFCURVE",
"175 576 OFFCURVE",
"175 619 CURVE SMOOTH",
"175 694 OFFCURVE",
"243 726 OFFCURVE",
"417 726 CURVE SMOOTH",
"589 726 OFFCURVE",
"669 688 OFFCURVE",
"742 688 CURVE SMOOTH",
"786 688 OFFCURVE",
"805 712 OFFCURVE",
"805 748 CURVE SMOOTH",
"805 775 OFFCURVE",
"788 796 OFFCURVE",
"745 808 CURVE SMOOTH",
"642 837 OFFCURVE",
"522 846 OFFCURVE",
"429 846 CURVE SMOOTH",
"211 846 OFFCURVE",
"56 781 OFFCURVE",
"56 617 CURVE SMOOTH",
"56 566 OFFCURVE",
"74 526 OFFCURVE",
"98 504 CURVE SMOOTH"
);
},
{
closed = 1;
nodes = (
"700 -5 OFFCURVE",
"763 25 OFFCURVE",
"838 116 CURVE",
"802 208 LINE",
"756 154 OFFCURVE",
"702 130 OFFCURVE",
"620 130 CURVE SMOOTH",
"529 130 OFFCURVE",
"364 203 OFFCURVE",
"176 203 CURVE",
"130 118 LINE",
"339 118 OFFCURVE",
"428 -5 OFFCURVE",
"603 -5 CURVE SMOOTH"
);
},
{
closed = 1;
nodes = (
"176 181 LINE",
"176 203 LINE",
"69 203 OFFCURVE",
"4 151 OFFCURVE",
"4 87 CURVE SMOOTH",
"4 32 OFFCURVE",
"52 -5 OFFCURVE",
"127 -5 CURVE SMOOTH",
"228 -5 OFFCURVE",
"284 46 OFFCURVE",
"409 227 CURVE SMOOTH",
"762 739 LINE",
"601 748 LINE",
"216 189 LINE",
"186 181 LINE"
);
}
);
};
layerId = "ECEFE970-1BBB-4E0A-A452-CEB55884B4A3";
paths = (
{
closed = 1;
nodes = (
"109 494 OFFCURVE",
"124 489 OFFCURVE",
"139 489 CURVE SMOOTH",
"170 489 OFFCURVE",
"200 508 OFFCURVE",
"200 536 CURVE SMOOTH",
"200 556 OFFCURVE",
"175 576 OFFCURVE",
"175 619 CURVE SMOOTH",
"175 694 OFFCURVE",
"243 726 OFFCURVE",
"397 726 CURVE SMOOTH",
"569 726 OFFCURVE",
"649 688 OFFCURVE",
"722 688 CURVE SMOOTH",
"756 688 OFFCURVE",
"775 712 OFFCURVE",
"775 748 CURVE SMOOTH",
"775 775 OFFCURVE",
"768 796 OFFCURVE",
"725 808 CURVE SMOOTH",
"622 837 OFFCURVE",
"502 846 OFFCURVE",
"409 846 CURVE SMOOTH",
"211 846 OFFCURVE",
"56 781 OFFCURVE",
"56 617 CURVE SMOOTH",
"56 566 OFFCURVE",
"74 526 OFFCURVE",
"98 504 CURVE SMOOTH"
);
},
{
closed = 1;
nodes = (
"690 -5 OFFCURVE",
"753 25 OFFCURVE",
"828 116 CURVE",
"792 208 LINE",
"746 154 OFFCURVE",
"692 130 OFFCURVE",
"610 130 CURVE SMOOTH",
"529 130 OFFCURVE",
"364 203 OFFCURVE",
"176 203 CURVE",
"130 118 LINE",
"339 118 OFFCURVE",
"428 -5 OFFCURVE",
"593 -5 CURVE SMOOTH"
);
},
{
closed = 1;
nodes = (
"176 181 LINE",
"176 203 LINE",
"79 203 OFFCURVE",
"12 151 OFFCURVE",
"12 87 CURVE SMOOTH",
"12 32 OFFCURVE",
"62 -5 OFFCURVE",
"133 -5 CURVE SMOOTH",
"228 -5 OFFCURVE",
"299 65 OFFCURVE",
"496 353 CURVE SMOOTH",
"594 496 OFFCURVE",
"670 617 OFFCURVE",
"744 739 CURVE",
"587 748 LINE",
"481 562 OFFCURVE",
"356 375 OFFCURVE",
"206 189 CURVE",
"186 181 LINE"
);
}
);
width = 713;
}
);
note = Z;
unicode = 005A;
},
{
color = 3;
glyphname = A.ss01;
lastChange = "2016-07-27 22:36:54 +0000";
layers = (
{
background = {
paths = (
{
closed = 1;
nodes = (
"442 -4 OFFCURVE",
"521 82 OFFCURVE",
"569 237 CURVE",
"683 626 LINE",
"582 513 LINE",
"515 220 OFFCURVE",
"448 117 OFFCURVE",
"342 117 CURVE SMOOTH",
"274 117 OFFCURVE",
"221 167 OFFCURVE",
"221 290 CURVE SMOOTH",
"221 514 OFFCURVE",
"350 728 OFFCURVE",
"622 728 CURVE SMOOTH",
"669 728 OFFCURVE",
"706 724 OFFCURVE",
"752 715 CURVE SMOOTH",
"843 697 OFFCURVE",
"871 805 OFFCURVE",
"810 824 CURVE SMOOTH",
"754 841 OFFCURVE",
"691 848 OFFCURVE",
"634 848 CURVE SMOOTH",
"259 848 OFFCURVE",
"69 576 OFFCURVE",
"69 280 CURVE SMOOTH",
"69 102 OFFCURVE",
"170 -4 OFFCURVE",
"316 -4 CURVE SMOOTH"
);
},
{
closed = 1;
nodes = (
"621 -52 OFFCURVE",
"668 -33 OFFCURVE",
"668 18 CURVE",
"670 47 LINE",
"677 224 OFFCURVE",
"723 492 OFFCURVE",
"759 611 CURVE SMOOTH",
"761 617 OFFCURVE",
"762 623 OFFCURVE",
"762 628 CURVE SMOOTH",
"762 661 OFFCURVE",
"729 672 OFFCURVE",
"699 672 CURVE SMOOTH",
"662 672 OFFCURVE",
"620 659 OFFCURVE",
"610 623 CURVE SMOOTH",
"600 588 OFFCURVE",
"591 551 OFFCURVE",
"582 513 CURVE SMOOTH",
"543 347 OFFCURVE",
"524 165 OFFCURVE",
"512 13 CURVE SMOOTH",
"509 -26 OFFCURVE",
"527 -52 OFFCURVE",
"579 -52 CURVE SMOOTH"
);
}
);
};
guideLines = (
{
angle = 255.7189;
position = "{596, 568}";
}
);
layerId = "ECEFE970-1BBB-4E0A-A452-CEB55884B4A3";
paths = (
{
closed = 1;
nodes = (
"442 -4 OFFCURVE",
"518 82 OFFCURVE",
"561 237 CURVE",
"683 626 LINE",
"563 437 LINE",
"505 211 OFFCURVE",
"445 117 OFFCURVE",
"341 117 CURVE SMOOTH",
"272 117 OFFCURVE",
"221 167 OFFCURVE",
"221 290 CURVE SMOOTH",
"221 514 OFFCURVE",
"350 728 OFFCURVE",
"622 728 CURVE SMOOTH",
"669 728 OFFCURVE",
"706 724 OFFCURVE",
"752 715 CURVE SMOOTH",
"843 697 OFFCURVE",
"871 805 OFFCURVE",
"810 824 CURVE SMOOTH",
"754 841 OFFCURVE",
"691 848 OFFCURVE",
"634 848 CURVE SMOOTH",
"259 848 OFFCURVE",
"69 576 OFFCURVE",
"69 280 CURVE SMOOTH",
"69 75 OFFCURVE",
"198 -4 OFFCURVE",
"314 -4 CURVE SMOOTH"
);
},
{
closed = 1;
nodes = (
"623 -5 OFFCURVE",
"670 14 OFFCURVE",
"670 65 CURVE",
"673 94 LINE",
"679 231 OFFCURVE",
"723 492 OFFCURVE",
"759 611 CURVE SMOOTH",
"761 617 OFFCURVE",
"762 623 OFFCURVE",
"762 628 CURVE SMOOTH",
"762 661 OFFCURVE",
"729 672 OFFCURVE",
"699 672 CURVE SMOOTH",
"662 672 OFFCURVE",
"619 659 OFFCURVE",
"610 623 CURVE SMOOTH",
"563 437 LINE",
"546 347 OFFCURVE",
"526 172 OFFCURVE",
"515 60 CURVE SMOOTH",
"511 21 OFFCURVE",
"529 -5 OFFCURVE",
"581 -5 CURVE SMOOTH"
);
}
);
width = 777;
}
);
leftMetricsKey = A;
note = A;
},
{
color = 3;
glyphname = AE.ss01;
lastChange = "2016-07-27 22:36:54 +0000";
layers = (
{
background = {
paths = (
{
closed = 1;
nodes = (
"1642 -4 OFFCURVE",
"1733 64 OFFCURVE",
"1787 237 CURVE",
"1883 626 LINE",
"1760 431 LINE",
"1702 220 OFFCURVE",
"1638 117 OFFCURVE",
"1540 117 CURVE SMOOTH",
"1474 117 OFFCURVE",
"1421 167 OFFCURVE",
"1421 290 CURVE SMOOTH",
"1421 514 OFFCURVE",
"1541 698 OFFCURVE",
"1772 726 CURVE SMOOTH",
"1829 733 OFFCURVE",
"1851 857 OFFCURVE",
"1734 843 CURVE SMOOTH",
"1450 809 OFFCURVE",
"1269 576 OFFCURVE",
"1269 280 CURVE SMOOTH",
"1269 97 OFFCURVE",
"1370 -4 OFFCURVE",
"1519 -4 CURVE SMOOTH"
);
},
{
closed = 1;
nodes = (
"2252 48 OFFCURVE",
"2269 79 OFFCURVE",
"2269 108 CURVE SMOOTH",
"2269 136 OFFCURVE",
"2247 151 OFFCURVE",
"2201 139 CURVE SMOOTH",
"2156 127 OFFCURVE",
"2117 120 OFFCURVE",
"2065 120 CURVE SMOOTH",
"1908 120 OFFCURVE",
"1872 212 OFFCURVE",
"1906 361 CURVE",
"2015 363 OFFCURVE",
"2063 365 OFFCURVE",
"2141 367 CURVE SMOOTH",
"2204 369 OFFCURVE",
"2227 396 OFFCURVE",
"2227 436 CURVE SMOOTH",
"2227 464 OFFCURVE",
"2212 490 OFFCURVE",
"2163 490 CURVE SMOOTH",
"2092 490 OFFCURVE",
"2019 486 OFFCURVE",
"1930 483 CURVE",
"1946 556 OFFCURVE",
"1968 651 OFFCURVE",
"1988 713 CURVE",
"2029 716 OFFCURVE",
"2129 720 OFFCURVE",
"2181 720 CURVE SMOOTH",
"2263 720 OFFCURVE",
"2293 751 OFFCURVE",
"2293 787 CURVE SMOOTH",
"2293 824 OFFCURVE",
"2268 849 OFFCURVE",
"2209 849 CURVE SMOOTH",
"2133 849 OFFCURVE",
"2063 845 OFFCURVE",
"2009 842 CURVE SMOOTH",
"1922 837 OFFCURVE",
"1861 801 OFFCURVE",
"1831 691 CURVE SMOOTH",
"1760 431 LINE",
"1751 264 LINE",
"1745 121 OFFCURVE",
"1827 -5 OFFCURVE",
"2042 -5 CURVE SMOOTH",
"2109 -5 OFFCURVE",
"2163 6 OFFCURVE",
"2210 28 CURVE SMOOTH"
);
},
{
closed = 1;
nodes = (
"438 -5 OFFCURVE",
"533 64 OFFCURVE",
"587 237 CURVE",
"683 626 LINE",
"560 431 LINE",
"512 257 OFFCURVE",
"458 116 OFFCURVE",
"337 116 CURVE SMOOTH",
"271 116 OFFCURVE",
"220 177 OFFCURVE",
"220 290 CURVE SMOOTH",
"220 514 OFFCURVE",
"340 698 OFFCURVE",
"572 726 CURVE SMOOTH",
"599 729 OFFCURVE",
"610 750 OFFCURVE",
"610 779 CURVE SMOOTH",
"610 821 OFFCURVE",
"591 850 OFFCURVE",
"524 842 CURVE SMOOTH",
"260 810 OFFCURVE",
"69 576 OFFCURVE",
"69 280 CURVE SMOOTH",
"69 100 OFFCURVE",
"175 -5 OFFCURVE",
"325 -5 CURVE SMOOTH"
);
},
{
closed = 1;
nodes = (
"1073 720 OFFCURVE",
"1093 759 OFFCURVE",
"1093 795 CURVE SMOOTH",
"1093 832 OFFCURVE",
"1078 849 OFFCURVE",
"1029 849 CURVE SMOOTH",
"933 849 OFFCURVE",
"863 844 OFFCURVE",
"779 840 CURVE SMOOTH",
"712 837 OFFCURVE",
"661 801 OFFCURVE",
"641 727 CURVE SMOOTH",
"560 431 LINE",
"551 264 LINE",
"545 121 OFFCURVE",
"627 -5 OFFCURVE",
"852 -5 CURVE SMOOTH",
"943 -5 OFFCURVE",
"1046 22 OFFCURVE",
"1112 69 CURVE",
"1104 182 LINE",
"1033 147 OFFCURVE",
"947 121 OFFCURVE",
"875 121 CURVE SMOOTH",
"708 121 OFFCURVE",
"668 212 OFFCURVE",
"702 361 CURVE",
"811 363 OFFCURVE",
"862 366 OFFCURVE",
"957 368 CURVE SMOOTH",
"1000 369 OFFCURVE",
"1023 401 OFFCURVE",
"1023 441 CURVE SMOOTH",
"1023 471 OFFCURVE",
"1012 490 OFFCURVE",
"970 490 CURVE SMOOTH",
"892 490 OFFCURVE",
"815 486 OFFCURVE",
"726 483 CURVE",
"742 556 OFFCURVE",
"764 650 OFFCURVE",
"784 710 CURVE",
"825 715 OFFCURVE",
"929 720 OFFCURVE",
"1021 720 CURVE SMOOTH"
);
}
);
};
guideLines = (
{
angle = 254.6088;
position = "{1077, 602}";
}
);
layerId = "ECEFE970-1BBB-4E0A-A452-CEB55884B4A3";
paths = (
{
closed = 1;
nodes = (
"1057 38 OFFCURVE",
"1069 61 OFFCURVE",
"1069 98 CURVE SMOOTH",
"1069 126 OFFCURVE",
"1056 155 OFFCURVE",
"1010 144 CURVE SMOOTH",
"956 130 OFFCURVE",
"927 121 OFFCURVE",
"865 121 CURVE SMOOTH",
"708 121 OFFCURVE",
"668 212 OFFCURVE",
"702 361 CURVE",
"811 363 OFFCURVE",
"879 366 OFFCURVE",
"957 368 CURVE SMOOTH",
"1000 369 OFFCURVE",
"1023 401 OFFCURVE",
"1023 441 CURVE SMOOTH",
"1023 471 OFFCURVE",
"1012 490 OFFCURVE",
"970 490 CURVE SMOOTH",
"899 490 OFFCURVE",
"815 486 OFFCURVE",
"726 483 CURVE",
"742 556 OFFCURVE",
"764 648 OFFCURVE",
"784 710 CURVE",
"825 713 OFFCURVE",
"969 720 OFFCURVE",
"1021 720 CURVE SMOOTH",
"1073 720 OFFCURVE",
"1093 759 OFFCURVE",
"1093 795 CURVE SMOOTH",
"1093 832 OFFCURVE",
"1078 849 OFFCURVE",
"1029 849 CURVE SMOOTH",
"953 849 OFFCURVE",
"833 842 OFFCURVE",
"779 840 CURVE SMOOTH",
"712 837 OFFCURVE",
"661 801 OFFCURVE",
"641 727 CURVE SMOOTH",
"560 431 LINE",
"551 264 LINE",
"545 121 OFFCURVE",
"627 -5 OFFCURVE",
"852 -5 CURVE SMOOTH",
"909 -5 OFFCURVE",
"963 4 OFFCURVE",
"1010 21 CURVE SMOOTH"
);
},
{
closed = 1;
nodes = (
"438 -5 OFFCURVE",
"533 64 OFFCURVE",
"587 237 CURVE",
"683 626 LINE",
"560 431 LINE",
"512 257 OFFCURVE",
"458 116 OFFCURVE",
"337 116 CURVE SMOOTH",
"271 116 OFFCURVE",
"220 177 OFFCURVE",
"220 290 CURVE SMOOTH",
"220 514 OFFCURVE",
"340 698 OFFCURVE",
"572 726 CURVE SMOOTH",
"599 729 OFFCURVE",
"610 750 OFFCURVE",
"610 779 CURVE SMOOTH",
"610 821 OFFCURVE",
"591 850 OFFCURVE",
"524 842 CURVE SMOOTH",
"260 810 OFFCURVE",
"69 576 OFFCURVE",
"69 280 CURVE SMOOTH",
"69 100 OFFCURVE",
"175 -5 OFFCURVE",
"325 -5 CURVE SMOOTH"
);
}
);
width = 1053;
}
);
leftMetricsKey = A;
note = AE;
},
{
color = 3;
glyphname = B.ss01;
lastChange = "2016-07-27 22:36:54 +0000";
layers = (
{
background = {
paths = (
{
closed = 1;
nodes = (
"1051 817 OFFCURVE",
"1025 789 OFFCURVE",
"1025 748 CURVE SMOOTH",
"1025 719 OFFCURVE",
"1047 698 OFFCURVE",
"1091 710 CURVE SMOOTH",
"1158 728 OFFCURVE",
"1236 744 OFFCURVE",
"1317 744 CURVE SMOOTH",
"1454 744 OFFCURVE",
"1514 692 OFFCURVE",
"1514 623 CURVE SMOOTH",
"1514 529 OFFCURVE",
"1411 473 OFFCURVE",
"1297 470 CURVE SMOOTH",
"1258 469 OFFCURVE",
"1239 438 OFFCURVE",
"1238 406 CURVE SMOOTH",
"1237 375 OFFCURVE",
"1247 361 OFFCURVE",
"1277 361 CURVE SMOOTH",
"1414 361 OFFCURVE",
"1447 317 OFFCURVE",
"1447 260 CURVE SMOOTH",
"1447 181 OFFCURVE",
"1377 112 OFFCURVE",
"1189 112 CURVE SMOOTH",
"1138 112 OFFCURVE",
"1121 113 OFFCURVE",
"1103 115 CURVE",
"1118 284 OFFCURVE",
"1160 486 OFFCURVE",
"1195 591 CURVE SMOOTH",
"1197 597 OFFCURVE",
"1198 603 OFFCURVE",
"1198 608 CURVE SMOOTH",
"1198 641 OFFCURVE",
"1161 652 OFFCURVE",
"1141 652 CURVE SMOOTH",
"1094 652 OFFCURVE",
"1052 639 OFFCURVE",
"1042 603 CURVE SMOOTH",
"989 411 OFFCURVE",
"963 262 OFFCURVE",
"949 76 CURVE SMOOTH",
"946 37 OFFCURVE",
"964 19 OFFCURVE",
"1016 13 CURVE SMOOTH",
"1067 7 OFFCURVE",
"1096 3 OFFCURVE",
"1185 3 CURVE SMOOTH",
"1453 3 OFFCURVE",
"1605 104 OFFCURVE",
"1605 251 CURVE SMOOTH",
"1605 337 OFFCURVE",
"1546 399 OFFCURVE",
"1415 419 CURVE",
"1412 402 LINE",
"1581 432 OFFCURVE",
"1673 517 OFFCURVE",
"1673 640 CURVE SMOOTH",
"1673 765 OFFCURVE",
"1558 862 OFFCURVE",
"1338 862 CURVE SMOOTH",
"1245 862 OFFCURVE",
"1149 844 OFFCURVE",
"1112 834 CURVE SMOOTH"
);
},
{
closed = 1;
nodes = (
"149 9 LINE",
"167 7 OFFCURVE",
"205 3 OFFCURVE",
"264 3 CURVE SMOOTH",
"535 3 OFFCURVE",
"687 104 OFFCURVE",
"687 261 CURVE SMOOTH",
"687 338 OFFCURVE",
"630 402 OFFCURVE",
"510 414 CURVE",
"509 395 LINE",
"698 423 OFFCURVE",
"797 516 OFFCURVE",
"797 640 CURVE SMOOTH",
"797 765 OFFCURVE",
"690 862 OFFCURVE",
"437 862 CURVE SMOOTH",
"280 862 OFFCURVE",
"121 825 OFFCURVE",
"16 764 CURVE SMOOTH",
"-49 726 OFFCURVE",
"-52 704 OFFCURVE",
"-52 675 CURVE SMOOTH",
"-52 638 OFFCURVE",
"-28 607 OFFCURVE",
"46 651 CURVE SMOOTH",
"125 698 OFFCURVE",
"264 744 OFFCURVE",
"416 744 CURVE SMOOTH",
"576 744 OFFCURVE",
"644 692 OFFCURVE",
"644 623 CURVE SMOOTH",
"644 529 OFFCURVE",
"533 471 OFFCURVE",
"396 468 CURVE SMOOTH",
"351 467 OFFCURVE",
"341 438 OFFCURVE",
"340 406 CURVE SMOOTH",
"339 377 OFFCURVE",
"348 364 OFFCURVE",
"376 363 CURVE SMOOTH",
"500 359 OFFCURVE",
"536 307 OFFCURVE",
"536 256 CURVE SMOOTH",
"536 179 OFFCURVE",
"463 112 OFFCURVE",
"268 112 CURVE SMOOTH",
"224 112 OFFCURVE",
"176 117 OFFCURVE",
"151 119 CURVE"
);
},
{
closed = 1;
nodes = (
"153 -52 OFFCURVE",
"190 -33 OFFCURVE",
"190 8 CURVE SMOOTH",
"190 25 OFFCURVE",
"191 20 OFFCURVE",
"192 47 CURVE SMOOTH",
"199 227 OFFCURVE",
"248 472 OFFCURVE",
"285 582 CURVE SMOOTH",
"290 597 OFFCURVE",
"291 603 OFFCURVE",
"291 614 CURVE SMOOTH",
"291 641 OFFCURVE",
"264 650 OFFCURVE",
"227 650 CURVE SMOOTH",
"183 650 OFFCURVE",
"151 639 OFFCURVE",
"141 603 CURVE SMOOTH",
"88 411 OFFCURVE",
"54 199 OFFCURVE",
"40 13 CURVE SMOOTH",
"37 -26 OFFCURVE",
"50 -52 OFFCURVE",
"104 -52 CURVE SMOOTH"
);
}
);
};
layerId = "ECEFE970-1BBB-4E0A-A452-CEB55884B4A3";
paths = (
{
closed = 1;
nodes = (
"175 816 OFFCURVE",
"149 789 OFFCURVE",
"149 748 CURVE SMOOTH",
"149 719 OFFCURVE",
"171 698 OFFCURVE",
"197 705 CURVE SMOOTH",
"282 728 OFFCURVE",
"360 744 OFFCURVE",
"441 744 CURVE SMOOTH",
"576 744 OFFCURVE",
"644 692 OFFCURVE",
"644 623 CURVE SMOOTH",
"644 529 OFFCURVE",
"533 471 OFFCURVE",
"420 468 CURVE SMOOTH",
"375 467 OFFCURVE",
"365 438 OFFCURVE",
"364 406 CURVE SMOOTH",
"363 375 OFFCURVE",
"370 364 OFFCURVE",
"400 363 CURVE SMOOTH",
"541 359 OFFCURVE",
"577 307 OFFCURVE",
"577 256 CURVE SMOOTH",
"577 179 OFFCURVE",
"504 112 OFFCURVE",
"313 112 CURVE SMOOTH",
"262 112 OFFCURVE",
"244 113 OFFCURVE",
"220 115 CURVE",
"227 227 OFFCURVE",
"272 472 OFFCURVE",
"309 582 CURVE SMOOTH",
"314 597 OFFCURVE",
"315 603 OFFCURVE",
"315 614 CURVE SMOOTH",
"315 641 OFFCURVE",
"288 650 OFFCURVE",
"251 650 CURVE SMOOTH",
"204 650 OFFCURVE",
"176 639 OFFCURVE",
"166 603 CURVE SMOOTH",
"113 411 OFFCURVE",
"87 262 OFFCURVE",
"73 76 CURVE SMOOTH",
"70 37 OFFCURVE",
"88 19 OFFCURVE",
"140 13 CURVE SMOOTH",
"191 7 OFFCURVE",
"220 3 OFFCURVE",
"309 3 CURVE SMOOTH",
"576 3 OFFCURVE",
"728 104 OFFCURVE",
"728 261 CURVE SMOOTH",
"728 347 OFFCURVE",
"670 399 OFFCURVE",
"539 419 CURVE",
"536 400 LINE",
"705 432 OFFCURVE",
"797 517 OFFCURVE",
"797 640 CURVE SMOOTH",
"797 765 OFFCURVE",
"680 862 OFFCURVE",
"462 862 CURVE SMOOTH",
"339 862 OFFCURVE",
"273 844 OFFCURVE",
"209 826 CURVE SMOOTH"
);
}
);
width = 784;
}
);
note = B;
},
{
color = 3;
glyphname = C.ss01;
lastChange = "2016-07-27 22:36:54 +0000";
layers = (
{
background = {
paths = (
{
closed = 1;
nodes = (
"1896 121 OFFCURVE",
"1820 197 OFFCURVE",
"1820 367 CURVE SMOOTH",
"1820 604 OFFCURVE",
"1947 730 OFFCURVE",
"2083 730 CURVE SMOOTH",
"2150 730 OFFCURVE",
"2178 694 OFFCURVE",
"2178 635 CURVE SMOOTH",
"2178 611 OFFCURVE",
"2168 584 OFFCURVE",
"2168 562 CURVE SMOOTH",
"2168 526 OFFCURVE",
"2192 506 OFFCURVE",
"2228 506 CURVE SMOOTH",
"2295 506 OFFCURVE",
"2323 567 OFFCURVE",
"2323 646 CURVE SMOOTH",
"2323 762 OFFCURVE",
"2250 848 OFFCURVE",
"2093 848 CURVE SMOOTH",
"1868 848 OFFCURVE",
"1669 663 OFFCURVE",
"1669 350 CURVE SMOOTH",
"1669 119 OFFCURVE",
"1801 -5 OFFCURVE",
"1999 -5 CURVE SMOOTH",
"2086 -5 OFFCURVE",
"2198 35 OFFCURVE",
"2280 121 CURVE SMOOTH",
"2331 175 OFFCURVE",
"2305 273 OFFCURVE",
"2243 218 CURVE SMOOTH",
"2168 152 OFFCURVE",
"2104 121 OFFCURVE",
"2019 121 CURVE SMOOTH"
);
},
{
closed = 1;
nodes = (
"1108 119 OFFCURVE",
"1020 212 OFFCURVE",
"1020 366 CURVE SMOOTH",
"1020 606 OFFCURVE",
"1152 730 OFFCURVE",
"1276 730 CURVE SMOOTH",
"1342 730 OFFCURVE",
"1369 694 OFFCURVE",
"1369 643 CURVE SMOOTH",
"1369 611 OFFCURVE",
"1359 584 OFFCURVE",
"1359 562 CURVE SMOOTH",
"1359 528 OFFCURVE",
"1383 510 OFFCURVE",
"1419 510 CURVE SMOOTH",
"1477 510 OFFCURVE",
"1506 567 OFFCURVE",
"1506 646 CURVE SMOOTH",
"1506 762 OFFCURVE",
"1435 848 OFFCURVE",
"1286 848 CURVE SMOOTH",
"1054 848 OFFCURVE",
"869 649 OFFCURVE",
"869 348 CURVE SMOOTH",
"869 134 OFFCURVE",
"1021 -5 OFFCURVE",
"1258 -5 CURVE SMOOTH",
"1361 -5 OFFCURVE",
"1469 15 OFFCURVE",
"1581 69 CURVE",
"1572 190 LINE",
"1477 146 OFFCURVE",
"1371 119 OFFCURVE",
"1281 119 CURVE SMOOTH"
);
},
{
closed = 1;
nodes = (
"617 -5 OFFCURVE",
"803 194 OFFCURVE",
"803 505 CURVE SMOOTH",
"803 729 OFFCURVE",
"661 848 OFFCURVE",
"487 848 CURVE SMOOTH",
"255 848 OFFCURVE",
"69 649 OFFCURVE",
"69 338 CURVE SMOOTH",
"69 114 OFFCURVE",
"211 -5 OFFCURVE",
"385 -5 CURVE SMOOTH"
);
},
{
closed = 1;
nodes = (
"298 117 OFFCURVE",
"220 192 OFFCURVE",
"220 356 CURVE SMOOTH",
"220 570 OFFCURVE",
"324 726 OFFCURVE",
"476 726 CURVE SMOOTH",
"574 726 OFFCURVE",
"652 651 OFFCURVE",
"652 487 CURVE SMOOTH",
"652 273 OFFCURVE",
"548 117 OFFCURVE",
"396 117 CURVE SMOOTH"
);
}
);
};
layerId = "ECEFE970-1BBB-4E0A-A452-CEB55884B4A3";
paths = (
{
closed = 1;
nodes = (
"298 121 OFFCURVE",
"220 189 OFFCURVE",
"220 367 CURVE SMOOTH",
"220 606 OFFCURVE",
"352 730 OFFCURVE",
"476 730 CURVE SMOOTH",
"542 730 OFFCURVE",
"569 694 OFFCURVE",
"569 643 CURVE SMOOTH",
"569 619 OFFCURVE",
"559 584 OFFCURVE",
"559 562 CURVE SMOOTH",
"559 528 OFFCURVE",
"583 510 OFFCURVE",
"619 510 CURVE SMOOTH",
"677 510 OFFCURVE",
"706 567 OFFCURVE",
"706 646 CURVE SMOOTH",
"706 762 OFFCURVE",
"635 848 OFFCURVE",
"486 848 CURVE SMOOTH",
"261 848 OFFCURVE",
"69 649 OFFCURVE",
"69 350 CURVE SMOOTH",
"69 114 OFFCURVE",
"211 -5 OFFCURVE",
"399 -5 CURVE SMOOTH",
"496 -5 OFFCURVE",
"599 34 OFFCURVE",
"680 121 CURVE SMOOTH",
"731 175 OFFCURVE",
"705 273 OFFCURVE",
"643 218 CURVE SMOOTH",
"568 152 OFFCURVE",
"499 121 OFFCURVE",
"419 121 CURVE SMOOTH"
);
}
);
width = 692;
}
);
note = C;
},
{
color = 3;
glyphname = D.ss01;
lastChange = "2016-07-27 22:36:54 +0000";
layers = (
{
background = {
paths = (
{
closed = 1;
nodes = (
"1135 860 OFFCURVE",
"1076 850 OFFCURVE",
"1031 834 CURVE SMOOTH",
"971 813 OFFCURVE",
"944 789 OFFCURVE",
"944 748 CURVE SMOOTH",
"944 719 OFFCURVE",
"966 696 OFFCURVE",
"1010 710 CURVE SMOOTH",
"1091 736 OFFCURVE",
"1139 742 OFFCURVE",
"1189 742 CURVE SMOOTH",
"1332 742 OFFCURVE",
"1429 665 OFFCURVE",
"1429 479 CURVE SMOOTH",
"1429 247 OFFCURVE",
"1290 112 OFFCURVE",
"1083 112 CURVE SMOOTH",
"1067 112 OFFCURVE",
"1047 113 OFFCURVE",
"1026 115 CURVE",
"1040 276 OFFCURVE",
"1083 488 OFFCURVE",
"1117 591 CURVE SMOOTH",
"1119 597 OFFCURVE",
"1120 603 OFFCURVE",
"1120 608 CURVE SMOOTH",
"1120 641 OFFCURVE",
"1083 652 OFFCURVE",
"1063 652 CURVE SMOOTH",
"1016 652 OFFCURVE",
"974 639 OFFCURVE",
"964 603 CURVE SMOOTH",
"911 411 OFFCURVE",
"885 254 OFFCURVE",
"871 68 CURVE SMOOTH",
"868 29 OFFCURVE",
"885 12 OFFCURVE",
"938 5 CURVE SMOOTH",
"989 -2 OFFCURVE",
"1018 -5 OFFCURVE",
"1069 -5 CURVE SMOOTH",
"1389 -5 OFFCURVE",
"1578 209 OFFCURVE",
"1578 494 CURVE SMOOTH",
"1578 714 OFFCURVE",
"1442 860 OFFCURVE",
"1202 860 CURVE SMOOTH"
);
},
{
closed = 1;
nodes = (
"276 860 OFFCURVE",
"139 830 OFFCURVE",
"42 764 CURVE SMOOTH",
"-25 718 OFFCURVE",
"-6 600 OFFCURVE",
"72 651 CURVE SMOOTH",
"151 702 OFFCURVE",
"260 742 OFFCURVE",
"372 742 CURVE SMOOTH",
"534 742 OFFCURVE",
"628 651 OFFCURVE",
"628 497 CURVE SMOOTH",
"628 273 OFFCURVE",
"524 112 OFFCURVE",
"284 112 CURVE SMOOTH",
"268 112 OFFCURVE",
"242 113 OFFCURVE",
"222 115 CURVE",
"237 283 OFFCURVE",
"277 479 OFFCURVE",
"311 582 CURVE SMOOTH",
"316 597 OFFCURVE",
"317 603 OFFCURVE",
"317 614 CURVE SMOOTH",
"317 641 OFFCURVE",
"290 650 OFFCURVE",
"253 650 CURVE SMOOTH",
"209 650 OFFCURVE",
"177 639 OFFCURVE",
"167 603 CURVE SMOOTH",
"114 411 OFFCURVE",
"81 199 OFFCURVE",
"71 78 CURVE SMOOTH",
"67 29 OFFCURVE",
"86 12 OFFCURVE",
"139 5 CURVE SMOOTH",
"190 -2 OFFCURVE",
"219 -5 OFFCURVE",
"270 -5 CURVE SMOOTH",
"593 -5 OFFCURVE",
"779 194 OFFCURVE",
"779 495 CURVE SMOOTH",
"779 729 OFFCURVE",
"627 860 OFFCURVE",
"383 860 CURVE SMOOTH"
);
}
);
};
layerId = "ECEFE970-1BBB-4E0A-A452-CEB55884B4A3";
paths = (
{
closed = 1;
nodes = (
"338 860 OFFCURVE",
"277 850 OFFCURVE",
"232 834 CURVE SMOOTH",
"163 810 OFFCURVE",
"145 788 OFFCURVE",
"145 745 CURVE SMOOTH",
"145 718 OFFCURVE",
"158 693 OFFCURVE",
"211 710 CURVE SMOOTH",
"292 736 OFFCURVE",
"340 742 OFFCURVE",
"392 742 CURVE SMOOTH",
"523 742 OFFCURVE",
"628 665 OFFCURVE",
"628 489 CURVE SMOOTH",
"628 276 OFFCURVE",
"524 112 OFFCURVE",
"284 112 CURVE SMOOTH",
"268 112 OFFCURVE",
"243 113 OFFCURVE",
"222 115 CURVE",
"237 283 OFFCURVE",
"277 479 OFFCURVE",
"311 582 CURVE SMOOTH",
"316 597 OFFCURVE",
"317 603 OFFCURVE",
"317 614 CURVE SMOOTH",
"317 642 OFFCURVE",
"290 650 OFFCURVE",
"253 650 CURVE SMOOTH",
"209 650 OFFCURVE",
"177 639 OFFCURVE",
"167 603 CURVE SMOOTH",
"114 411 OFFCURVE",
"81 199 OFFCURVE",
"71 78 CURVE SMOOTH",
"67 29 OFFCURVE",
"86 12 OFFCURVE",
"139 5 CURVE SMOOTH",
"190 -2 OFFCURVE",
"219 -5 OFFCURVE",
"270 -5 CURVE SMOOTH",
"593 -5 OFFCURVE",
"779 194 OFFCURVE",
"779 494 CURVE SMOOTH",
"779 714 OFFCURVE",
"642 860 OFFCURVE",
"403 860 CURVE SMOOTH"
);
}
);
width = 789;
}
);
note = D;
rightMetricsKey = O;
},
{
color = 3;
glyphname = E.ss01;
lastChange = "2016-07-27 22:36:54 +0000";
layers = (
{
background = {
paths = (
{
closed = 1;
nodes = (
"1514 733 OFFCURVE",
"1551 705 OFFCURVE",
"1578 653 CURVE SMOOTH",
"1599 613 OFFCURVE",
"1618 596 OFFCURVE",
"1657 596 CURVE SMOOTH",
"1699 596 OFFCURVE",
"1723 625 OFFCURVE",
"1723 664 CURVE SMOOTH",
"1723 754 OFFCURVE",
"1630 848 OFFCURVE",
"1453 848 CURVE SMOOTH",
"1265 848 OFFCURVE",
"1121 753 OFFCURVE",
"1121 607 CURVE SMOOTH",
"1121 527 OFFCURVE",
"1183 446 OFFCURVE",
"1302 439 CURVE",
"1303 458 LINE",
"1141 430 OFFCURVE",
"1051 341 OFFCURVE",
"1051 215 CURVE SMOOTH",
"1051 90 OFFCURVE",
"1168 -5 OFFCURVE",
"1364 -5 CURVE SMOOTH",
"1481 -5 OFFCURVE",
"1603 35 OFFCURVE",
"1687 121 CURVE SMOOTH",
"1739 174 OFFCURVE",
"1713 272 OFFCURVE",
"1650 218 CURVE SMOOTH",
"1573 152 OFFCURVE",
"1489 121 OFFCURVE",
"1391 121 CURVE SMOOTH",
"1275 121 OFFCURVE",
"1210 165 OFFCURVE",
"1210 239 CURVE SMOOTH",
"1210 309 OFFCURVE",
"1271 380 OFFCURVE",
"1426 384 CURVE SMOOTH",
"1466 385 OFFCURVE",
"1485 417 OFFCURVE",
"1486 449 CURVE SMOOTH",
"1487 480 OFFCURVE",
"1477 494 OFFCURVE",
"1442 495 CURVE SMOOTH",
"1311 499 OFFCURVE",
"1275 548 OFFCURVE",
"1275 603 CURVE SMOOTH",
"1275 677 OFFCURVE",
"1342 733 OFFCURVE",
"1447 733 CURVE SMOOTH"
);
}
);
};
layerId = "ECEFE970-1BBB-4E0A-A452-CEB55884B4A3";
paths = (
{
closed = 1;
nodes = (
"268 119 OFFCURVE",
"202 164 OFFCURVE",
"202 240 CURVE SMOOTH",
"202 309 OFFCURVE",
"256 382 OFFCURVE",
"426 386 CURVE SMOOTH",
"474 387 OFFCURVE",
"485 417 OFFCURVE",
"486 449 CURVE SMOOTH",
"487 480 OFFCURVE",
"477 492 OFFCURVE",
"446 493 CURVE SMOOTH",
"326 497 OFFCURVE",
"271 548 OFFCURVE",
"271 604 CURVE SMOOTH",
"271 681 OFFCURVE",
"351 733 OFFCURVE",
"462 733 CURVE SMOOTH",
"558 733 OFFCURVE",
"585 694 OFFCURVE",
"585 656 CURVE SMOOTH",
"585 621 OFFCURVE",
"575 603 OFFCURVE",
"575 574 CURVE SMOOTH",
"575 540 OFFCURVE",
"599 522 OFFCURVE",
"635 522 CURVE SMOOTH",
"693 522 OFFCURVE",
"722 579 OFFCURVE",
"722 656 CURVE SMOOTH",
"722 762 OFFCURVE",
"647 848 OFFCURVE",
"464 848 CURVE SMOOTH",
"281 848 OFFCURVE",
"121 753 OFFCURVE",
"121 612 CURVE SMOOTH",
"121 523 OFFCURVE",
"192 450 OFFCURVE",
"295 441 CURVE",
"316 460 LINE",
"141 433 OFFCURVE",
"51 341 OFFCURVE",
"51 215 CURVE SMOOTH",
"51 94 OFFCURVE",
"159 -5 OFFCURVE",
"359 -5 CURVE SMOOTH",
"501 -5 OFFCURVE",
"608 36 OFFCURVE",
"687 121 CURVE SMOOTH",
"737 176 OFFCURVE",
"713 272 OFFCURVE",
"650 218 CURVE SMOOTH",
"573 152 OFFCURVE",
"489 119 OFFCURVE",
"384 119 CURVE SMOOTH"
);
}
);
width = 688;
}
);
note = E;
},
{
color = 3;
glyphname = F.ss01;
lastChange = "2016-07-27 22:36:54 +0000";
layers = (
{
background = {
paths = (
{
closed = 1;
nodes = (
"185 334 OFFCURVE",
"288 338 OFFCURVE",
"333 338 CURVE SMOOTH",
"370 338 OFFCURVE",
"528 340 OFFCURVE",
"573 340 CURVE SMOOTH",
"624 340 OFFCURVE",
"650 369 OFFCURVE",
"650 413 CURVE SMOOTH",
"650 438 OFFCURVE",
"623 461 OFFCURVE",
"588 461 CURVE SMOOTH",
"545 461 OFFCURVE",
"202 454 OFFCURVE",
"168 454 CURVE SMOOTH",
"125 454 OFFCURVE",
"100 425 OFFCURVE",
"100 381 CURVE SMOOTH",
"100 337 OFFCURVE",
"130 334 OFFCURVE",
"151 334 CURVE SMOOTH"
);
},
{
closed = 1;
nodes = (
"285 716 OFFCURVE",
"361 716 OFFCURVE",
"462 716 CURVE SMOOTH",
"540 716 OFFCURVE",
"658 719 OFFCURVE",
"722 731 CURVE SMOOTH",
"766 739 OFFCURVE",
"784 764 OFFCURVE",
"784 796 CURVE SMOOTH",
"784 832 OFFCURVE",
"761 855 OFFCURVE",
"707 851 CURVE SMOOTH",
"603 843 OFFCURVE",
"531 840 OFFCURVE",
"442 840 CURVE SMOOTH",
"361 840 OFFCURVE",
"286 845 OFFCURVE",
"205 845 CURVE SMOOTH",
"152 845 OFFCURVE",
"129 831 OFFCURVE",
"129 793 CURVE SMOOTH",
"129 747 OFFCURVE",
"162 726 OFFCURVE",
"224 721 CURVE SMOOTH"
);
},
{
closed = 1;
nodes = (
"260 620 OFFCURVE",
"238 515 OFFCURVE",
"212 355 CURVE SMOOTH",
"191 228 OFFCURVE",
"168 105 OFFCURVE",
"168 55 CURVE SMOOTH",
"168 19 OFFCURVE",
"192 -5 OFFCURVE",
"241 -5 CURVE SMOOTH",
"283 -5 OFFCURVE",
"319 14 OFFCURVE",
"322 55 CURVE SMOOTH",
"327 128 OFFCURVE",
"346 267 OFFCURVE",
"361 357 CURVE SMOOTH",
"388 521 OFFCURVE",
"409 627 OFFCURVE",
"437 765 CURVE",
"287 754 LINE"
);
}
);
};
layerId = "ECEFE970-1BBB-4E0A-A452-CEB55884B4A3";
paths = (
{
closed = 1;
nodes = (
"185 334 OFFCURVE",
"288 338 OFFCURVE",
"333 338 CURVE SMOOTH",
"370 338 OFFCURVE",
"528 340 OFFCURVE",
"573 340 CURVE SMOOTH",
"624 340 OFFCURVE",
"650 369 OFFCURVE",
"650 413 CURVE SMOOTH",
"650 438 OFFCURVE",
"643 461 OFFCURVE",
"588 461 CURVE SMOOTH",
"545 461 OFFCURVE",
"202 454 OFFCURVE",
"168 454 CURVE SMOOTH",
"125 454 OFFCURVE",
"100 425 OFFCURVE",
"100 381 CURVE SMOOTH",
"100 337 OFFCURVE",
"130 334 OFFCURVE",
"151 334 CURVE SMOOTH"
);
},
{
closed = 1;
nodes = (
"285 716 OFFCURVE",
"361 716 OFFCURVE",
"462 716 CURVE SMOOTH",
"540 716 OFFCURVE",
"658 719 OFFCURVE",
"722 731 CURVE SMOOTH",
"766 739 OFFCURVE",
"784 764 OFFCURVE",
"784 796 CURVE SMOOTH",
"784 832 OFFCURVE",
"761 855 OFFCURVE",
"707 851 CURVE SMOOTH",
"603 843 OFFCURVE",
"531 840 OFFCURVE",
"442 840 CURVE SMOOTH",
"361 840 OFFCURVE",
"286 845 OFFCURVE",
"205 845 CURVE SMOOTH",
"152 845 OFFCURVE",
"129 831 OFFCURVE",
"129 793 CURVE SMOOTH",
"129 747 OFFCURVE",
"162 726 OFFCURVE",
"224 721 CURVE SMOOTH"
);
},
{
closed = 1;
nodes = (
"260 620 OFFCURVE",
"238 515 OFFCURVE",
"212 355 CURVE SMOOTH",
"191 228 OFFCURVE",
"168 105 OFFCURVE",
"168 55 CURVE SMOOTH",
"168 19 OFFCURVE",
"192 -5 OFFCURVE",
"241 -5 CURVE SMOOTH",
"283 -5 OFFCURVE",
"317 14 OFFCURVE",
"320 55 CURVE SMOOTH",
"325 128 OFFCURVE",
"344 267 OFFCURVE",
"359 357 CURVE SMOOTH",
"386 521 OFFCURVE",
"407 627 OFFCURVE",
"435 765 CURVE",
"287 754 LINE"
);
}
);
width = 714;
}
);
note = F;
},
{
color = 3;
glyphname = G.ss01;
lastChange = "2016-07-27 22:36:54 +0000";
layers = (
{
background = {
paths = (
{
closed = 1;
nodes = (
"630 156 LINE",
"575 126 OFFCURVE",
"513 118 OFFCURVE",
"471 118 CURVE SMOOTH",
"310 118 OFFCURVE",
"220 218 OFFCURVE",
"220 383 CURVE SMOOTH",
"220 604 OFFCURVE",
"355 730 OFFCURVE",
"495 730 CURVE SMOOTH",
"568 730 OFFCURVE",
"603 701 OFFCURVE",
"603 650 CURVE SMOOTH",
"603 624 OFFCURVE",
"596 601 OFFCURVE",
"596 585 CURVE SMOOTH",
"596 547 OFFCURVE",
"621 527 OFFCURVE",
"657 527 CURVE SMOOTH",
"707 527 OFFCURVE",
"740 570 OFFCURVE",
"740 654 CURVE SMOOTH",
"740 770 OFFCURVE",
"668 848 OFFCURVE",
"504 848 CURVE SMOOTH",
"276 848 OFFCURVE",
"69 663 OFFCURVE",
"69 363 CURVE SMOOTH",
"69 143 OFFCURVE",
"210 -5 OFFCURVE",
"435 -5 CURVE SMOOTH",
"494 -5 OFFCURVE",
"561 11 OFFCURVE",
"620 41 CURVE"
);
},
{
closed = 1;
nodes = (
"572 386 LINE SMOOTH",
"502 386 OFFCURVE",
"469 358 OFFCURVE",
"469 316 CURVE SMOOTH",
"469 278 OFFCURVE",
"499 268 OFFCURVE",
"547 268 CURVE SMOOTH",
"628 268 LINE",
"623 222 OFFCURVE",
"617 163 OFFCURVE",
"605 75 CURVE SMOOTH",
"589 -42 OFFCURVE",
"572 -149 OFFCURVE",
"572 -195 CURVE SMOOTH",
"572 -231 OFFCURVE",
"590 -255 OFFCURVE",
"639 -255 CURVE SMOOTH",
"677 -255 OFFCURVE",
"704 -236 OFFCURVE",
"711 -195 CURVE SMOOTH",
"723 -122 OFFCURVE",
"737 -18 OFFCURVE",
"749 87 CURVE SMOOTH",
"758 167 OFFCURVE",
"775 260 OFFCURVE",
"781 330 CURVE SMOOTH",
"784 368 OFFCURVE",
"758 386 OFFCURVE",
"702 386 CURVE SMOOTH"
);
}
);
};
layerId = "ECEFE970-1BBB-4E0A-A452-CEB55884B4A3";
paths = (
{
closed = 1;
nodes = (
"539 386 LINE SMOOTH",
"496 386 OFFCURVE",
"469 363 OFFCURVE",
"469 326 CURVE SMOOTH",
"469 283 OFFCURVE",
"496 268 OFFCURVE",
"542 268 CURVE SMOOTH",
"627 268 LINE",
"623 222 OFFCURVE",
"617 163 OFFCURVE",
"605 75 CURVE SMOOTH",
"589 -42 OFFCURVE",
"574 -119 OFFCURVE",
"568 -175 CURVE SMOOTH",
"563 -221 OFFCURVE",
"582 -247 OFFCURVE",
"624 -247 CURVE SMOOTH",
"664 -247 OFFCURVE",
"687 -226 OFFCURVE",
"695 -185 CURVE SMOOTH",
"710 -112 OFFCURVE",
"722 -18 OFFCURVE",
"737 87 CURVE SMOOTH",
"748 167 OFFCURVE",
"761 260 OFFCURVE",
"764 320 CURVE SMOOTH",
"766 368 OFFCURVE",
"740 386 OFFCURVE",
"694 386 CURVE SMOOTH"
);
},
{
closed = 1;
nodes = (
"629 146 LINE",
"578 129 OFFCURVE",
"527 119 OFFCURVE",
"481 119 CURVE SMOOTH",
"308 119 OFFCURVE",
"220 212 OFFCURVE",
"220 366 CURVE SMOOTH",
"220 606 OFFCURVE",
"352 730 OFFCURVE",
"490 730 CURVE SMOOTH",
"570 730 OFFCURVE",
"597 694 OFFCURVE",
"597 646 CURVE SMOOTH",
"597 617 OFFCURVE",
"587 590 OFFCURVE",
"587 568 CURVE SMOOTH",
"587 537 OFFCURVE",
"611 519 OFFCURVE",
"647 519 CURVE SMOOTH",
"705 519 OFFCURVE",
"734 573 OFFCURVE",
"734 649 CURVE SMOOTH",
"734 762 OFFCURVE",
"663 848 OFFCURVE",
"500 848 CURVE SMOOTH",
"254 848 OFFCURVE",
"69 649 OFFCURVE",
"69 348 CURVE SMOOTH",
"69 134 OFFCURVE",
"217 -5 OFFCURVE",
"458 -5 CURVE SMOOTH",
"511 -5 OFFCURVE",
"565 7 OFFCURVE",
"618 27 CURVE"
);
}
);
width = 794;
}
);
note = G;
},
{
color = 3;
glyphname = H.ss01;
lastChange = "2016-07-27 22:50:12 +0000";
layers = (
{
background = {
paths = (
{
closed = 1;
nodes = (
"166 365 OFFCURVE",
"348 371 OFFCURVE",
"418 371 CURVE SMOOTH",
"476 371 OFFCURVE",
"679 370 OFFCURVE",
"763 370 CURVE SMOOTH",
"833 370 OFFCURVE",
"854 399 OFFCURVE",
"854 443 CURVE SMOOTH",
"854 468 OFFCURVE",
"832 491 OFFCURVE",
"787 491 CURVE SMOOTH",
"744 491 OFFCURVE",
"577 487 OFFCURVE",
"436 485 CURVE SMOOTH",
"298 483 OFFCURVE",
"166 484 OFFCURVE",
"140 484 CURVE SMOOTH",
"72 484 OFFCURVE",
"53 455 OFFCURVE",
"53 411 CURVE SMOOTH",
"53 374 OFFCURVE",
"77 363 OFFCURVE",
"113 364 CURVE SMOOTH"
);
},
{
closed = 1;
nodes = (
"680 848 OFFCURVE",
"654 829 OFFCURVE",
"650 778 CURVE SMOOTH",
"645 715 OFFCURVE",
"628 576 OFFCURVE",
"612 486 CURVE SMOOTH",
"605 446 OFFCURVE",
"597 403 OFFCURVE",
"589 355 CURVE SMOOTH",
"568 228 OFFCURVE",
"545 105 OFFCURVE",
"545 55 CURVE SMOOTH",
"545 19 OFFCURVE",
"569 -5 OFFCURVE",
"618 -5 CURVE SMOOTH",
"670 -5 OFFCURVE",
"696 14 OFFCURVE",
"700 65 CURVE SMOOTH",
"705 128 OFFCURVE",
"723 267 OFFCURVE",
"738 357 CURVE SMOOTH",
"760 488 LINE SMOOTH",
"781 615 OFFCURVE",
"805 738 OFFCURVE",
"805 788 CURVE SMOOTH",
"805 824 OFFCURVE",
"781 848 OFFCURVE",
"732 848 CURVE SMOOTH"
);
},
{
closed = 1;
nodes = (
"230 848 OFFCURVE",
"204 829 OFFCURVE",
"200 778 CURVE SMOOTH",
"195 715 OFFCURVE",
"178 576 OFFCURVE",
"162 486 CURVE SMOOTH",
"155 446 OFFCURVE",
"147 403 OFFCURVE",
"139 355 CURVE SMOOTH",
"118 228 OFFCURVE",
"95 105 OFFCURVE",
"95 55 CURVE SMOOTH",
"95 19 OFFCURVE",
"119 -5 OFFCURVE",
"168 -5 CURVE SMOOTH",
"220 -5 OFFCURVE",
"246 14 OFFCURVE",
"250 65 CURVE SMOOTH",
"255 128 OFFCURVE",
"273 267 OFFCURVE",
"288 357 CURVE SMOOTH",
"310 488 LINE SMOOTH",
"331 615 OFFCURVE",
"355 738 OFFCURVE",
"355 788 CURVE SMOOTH",
"355 824 OFFCURVE",
"331 848 OFFCURVE",
"282 848 CURVE SMOOTH"
);
}
);
};
layerId = "ECEFE970-1BBB-4E0A-A452-CEB55884B4A3";
paths = (
{
closed = 1;
nodes = (
"166 366 OFFCURVE",
"348 371 OFFCURVE",
"418 371 CURVE SMOOTH",
"476 371 OFFCURVE",
"679 370 OFFCURVE",
"763 370 CURVE SMOOTH",
"833 370 OFFCURVE",
"848 399 OFFCURVE",
"848 440 CURVE SMOOTH",
"848 468 OFFCURVE",
"832 491 OFFCURVE",
"787 491 CURVE SMOOTH",
"744 491 OFFCURVE",
"577 487 OFFCURVE",
"436 485 CURVE SMOOTH",
"298 484 OFFCURVE",
"166 484 OFFCURVE",
"140 484 CURVE SMOOTH",
"75 484 OFFCURVE",
"56 455 OFFCURVE",
"56 411 CURVE SMOOTH",
"56 374 OFFCURVE",
"80 363 OFFCURVE",
"113 364 CURVE SMOOTH"
);
},
{
closed = 1;
nodes = (
"232 848 OFFCURVE",
"204 829 OFFCURVE",
"200 778 CURVE SMOOTH",
"196 715 OFFCURVE",
"178 576 OFFCURVE",
"162 486 CURVE SMOOTH",
"155 446 OFFCURVE",
"147 403 OFFCURVE",
"139 355 CURVE SMOOTH",
"118 228 OFFCURVE",
"95 105 OFFCURVE",
"95 55 CURVE SMOOTH",
"95 19 OFFCURVE",
"115 -5 OFFCURVE",
"166 -5 CURVE SMOOTH",
"216 -5 OFFCURVE",
"243 14 OFFCURVE",
"247 65 CURVE SMOOTH",
"251 128 OFFCURVE",
"270 267 OFFCURVE",
"285 357 CURVE SMOOTH",
"307 488 LINE SMOOTH",
"328 615 OFFCURVE",
"352 738 OFFCURVE",
"352 788 CURVE SMOOTH",
"352 824 OFFCURVE",
"333 848 OFFCURVE",
"284 848 CURVE SMOOTH"
);
},
{
closed = 1;
nodes = (
"683 848 OFFCURVE",
"655 829 OFFCURVE",
"651 778 CURVE SMOOTH",
"646 715 OFFCURVE",
"629 576 OFFCURVE",
"613 486 CURVE SMOOTH",
"606 446 OFFCURVE",
"598 403 OFFCURVE",
"590 355 CURVE SMOOTH",
"569 228 OFFCURVE",
"546 105 OFFCURVE",
"546 55 CURVE SMOOTH",
"546 19 OFFCURVE",
"566 -5 OFFCURVE",
"617 -5 CURVE SMOOTH",
"667 -5 OFFCURVE",
"694 14 OFFCURVE",
"698 65 CURVE SMOOTH",
"703 128 OFFCURVE",
"721 267 OFFCURVE",
"736 357 CURVE SMOOTH",
"758 488 LINE SMOOTH",
"779 615 OFFCURVE",
"803 738 OFFCURVE",
"803 788 CURVE SMOOTH",
"803 824 OFFCURVE",
"784 848 OFFCURVE",
"735 848 CURVE SMOOTH"
);
}
);
width = 843;
}
);
note = H;
},
{
color = 3;
glyphname = I.ss01;
lastChange = "2016-07-27 22:50:09 +0000";
layers = (
{
background = {
paths = (
{
closed = 1;
nodes = (
"62 -18 OFFCURVE",
"122 -2 OFFCURVE",
"215 -2 CURVE SMOOTH",
"252 -2 OFFCURVE",
"315 -6 OFFCURVE",
"360 -6 CURVE SMOOTH",
"411 -6 OFFCURVE",
"438 24 OFFCURVE",
"438 58 CURVE SMOOTH",
"439 93 OFFCURVE",
"422 116 OFFCURVE",
"347 116 CURVE SMOOTH",
"284 116 OFFCURVE",
"153 111 OFFCURVE",
"100 110 CURVE SMOOTH",
"23 108 OFFCURVE",
"-22 80 OFFCURVE",
"-22 30 CURVE SMOOTH",
"-22 -4 OFFCURVE",
"3 -18 OFFCURVE",
"30 -18 CURVE SMOOTH"
);
},
{
closed = 1;
nodes = (
"222 720 OFFCURVE",
"284 723 OFFCURVE",
"329 723 CURVE SMOOTH",
"366 723 OFFCURVE",
"429 724 OFFCURVE",
"474 724 CURVE SMOOTH",
"525 724 OFFCURVE",
"551 755 OFFCURVE",
"551 797 CURVE SMOOTH",
"551 822 OFFCURVE",
"524 842 OFFCURVE",
"489 842 CURVE SMOOTH",
"406 842 OFFCURVE",
"247 844 OFFCURVE",
"194 841 CURVE SMOOTH",
"121 838 OFFCURVE",
"96 806 OFFCURVE",
"96 765 CURVE SMOOTH",
"96 740 OFFCURVE",
"108 720 OFFCURVE",
"159 720 CURVE SMOOTH"
);
},
{
closed = 1;
nodes = (
"245 778 LINE",
"238 717 OFFCURVE",
"221 576 OFFCURVE",
"205 486 CURVE SMOOTH",
"198 446 OFFCURVE",
"190 403 OFFCURVE",
"182 355 CURVE SMOOTH",
"161 228 OFFCURVE",
"141 105 OFFCURVE",
"136 55 CURVE",
"288 65 LINE",
"295 128 OFFCURVE",
"313 267 OFFCURVE",
"328 357 CURVE SMOOTH",
"350 488 LINE SMOOTH",
"371 615 OFFCURVE",
"395 740 OFFCURVE",
"398 788 CURVE"
);
}
);
};
layerId = "ECEFE970-1BBB-4E0A-A452-CEB55884B4A3";
paths = (
{
closed = 1;
nodes = (
"218 848 OFFCURVE",
"190 829 OFFCURVE",
"186 778 CURVE SMOOTH",
"181 715 OFFCURVE",
"164 576 OFFCURVE",
"148 486 CURVE SMOOTH",
"141 446 OFFCURVE",
"133 403 OFFCURVE",
"125 355 CURVE SMOOTH",
"104 228 OFFCURVE",
"81 105 OFFCURVE",
"81 55 CURVE SMOOTH",
"81 19 OFFCURVE",
"101 -5 OFFCURVE",
"152 -5 CURVE SMOOTH",
"202 -5 OFFCURVE",
"229 14 OFFCURVE",
"233 65 CURVE SMOOTH",
"238 128 OFFCURVE",
"256 267 OFFCURVE",
"271 357 CURVE SMOOTH",
"293 488 LINE SMOOTH",
"314 615 OFFCURVE",
"338 738 OFFCURVE",
"338 788 CURVE SMOOTH",
"338 824 OFFCURVE",
"319 848 OFFCURVE",
"270 848 CURVE SMOOTH"
);
}
);
width = 357;
}
);
note = I;
},
{
color = 3;
glyphname = J.ss01;
lastChange = "2016-07-27 22:36:54 +0000";
layers = (
{
background = {
paths = (
{
closed = 1;
nodes = (
"483 -8 OFFCURVE",
"584 106 OFFCURVE",
"625 391 CURVE SMOOTH",
"644 522 OFFCURVE",
"656 593 OFFCURVE",
"679 765 CURVE",
"527 754 LINE",
"507 601 OFFCURVE",
"498 525 OFFCURVE",
"465 310 CURVE SMOOTH",
"437 127 OFFCURVE",
"376 98 OFFCURVE",
"316 96 CURVE SMOOTH",
"248 94 OFFCURVE",
"217 119 OFFCURVE",
"172 195 CURVE SMOOTH",
"160 215 OFFCURVE",
"144 224 OFFCURVE",
"127 224 CURVE SMOOTH",
"86 224 OFFCURVE",
"56 166 OFFCURVE",
"86 111 CURVE SMOOTH",
"123 43 OFFCURVE",
"213 -8 OFFCURVE",
"310 -8 CURVE SMOOTH"
);
},
{
closed = 1;
nodes = (
"142 438 OFFCURVE",
"248 493 OFFCURVE",
"216 548 CURVE SMOOTH",
"208 562 OFFCURVE",
"196 585 OFFCURVE",
"196 613 CURVE SMOOTH",
"196 696 OFFCURVE",
"284 724 OFFCURVE",
"417 724 CURVE SMOOTH",
"496 724 OFFCURVE",
"548 717 OFFCURVE",
"652 704 CURVE SMOOTH",
"706 697 OFFCURVE",
"729 723 OFFCURVE",
"729 767 CURVE SMOOTH",
"729 791 OFFCURVE",
"711 812 OFFCURVE",
"667 823 CURVE SMOOTH",
"603 839 OFFCURVE",
"525 847 OFFCURVE",
"457 847 CURVE SMOOTH",
"242 847 OFFCURVE",
"77 781 OFFCURVE",
"77 607 CURVE SMOOTH",
"77 566 OFFCURVE",
"88 528 OFFCURVE",
"105 500 CURVE SMOOTH"
);
}
);
};
layerId = "ECEFE970-1BBB-4E0A-A452-CEB55884B4A3";
paths = (
{
closed = 1;
nodes = (
"483 -8 OFFCURVE",
"581 107 OFFCURVE",
"625 391 CURVE SMOOTH",
"645 521 OFFCURVE",
"656 593 OFFCURVE",
"679 765 CURVE",
"528 754 LINE",
"508 601 OFFCURVE",
"497 525 OFFCURVE",
"462 280 CURVE SMOOTH",
"440 127 OFFCURVE",
"377 98 OFFCURVE",
"317 96 CURVE SMOOTH",
"254 94 OFFCURVE",
"215 126 OFFCURVE",
"180 181 CURVE SMOOTH",
"159 215 OFFCURVE",
"144 224 OFFCURVE",
"127 224 CURVE SMOOTH",
"76 224 OFFCURVE",
"60 158 OFFCURVE",
"86 111 CURVE SMOOTH",
"123 43 OFFCURVE",
"213 -8 OFFCURVE",
"310 -8 CURVE SMOOTH"
);
},
{
closed = 1;
nodes = (
"142 438 OFFCURVE",
"248 493 OFFCURVE",
"216 548 CURVE SMOOTH",
"208 562 OFFCURVE",
"196 585 OFFCURVE",
"196 613 CURVE SMOOTH",
"196 696 OFFCURVE",
"284 724 OFFCURVE",
"417 724 CURVE SMOOTH",
"496 724 OFFCURVE",
"548 717 OFFCURVE",
"652 704 CURVE SMOOTH",
"706 697 OFFCURVE",
"724 723 OFFCURVE",
"724 767 CURVE SMOOTH",
"724 791 OFFCURVE",
"711 812 OFFCURVE",
"667 823 CURVE SMOOTH",
"603 839 OFFCURVE",
"525 847 OFFCURVE",
"457 847 CURVE SMOOTH",
"242 847 OFFCURVE",
"77 781 OFFCURVE",
"77 607 CURVE SMOOTH",
"77 566 OFFCURVE",
"88 528 OFFCURVE",
"105 500 CURVE SMOOTH"
);
}
);
width = 684;
}
);
note = J;
},
{
color = 3;
glyphname = K.ss01;
lastChange = "2016-07-27 22:46:07 +0000";
layers = (
{
background = {
paths = (
{
closed = 1;
nodes = (
"1718 51 OFFCURVE",
"1699 135 OFFCURVE",
"1642 122 CURVE SMOOTH",
"1624 118 OFFCURVE",
"1607 114 OFFCURVE",
"1591 114 CURVE SMOOTH",
"1551 114 OFFCURVE",
"1527 147 OFFCURVE",
"1482 235 CURVE SMOOTH",
"1426 344 OFFCURVE",
"1391 390 OFFCURVE",
"1225 390 CURVE",
"1186 336 LINE",
"1255 336 OFFCURVE",
"1272 314 OFFCURVE",
"1340 174 CURVE SMOOTH",
"1395 61 OFFCURVE",
"1450 -5 OFFCURVE",
"1556 -5 CURVE SMOOTH",
"1594 -5 OFFCURVE",
"1632 6 OFFCURVE",
"1655 18 CURVE SMOOTH"
);
},
{
closed = 1;
nodes = (
"1701 814 OFFCURVE",
"1678 842 OFFCURVE",
"1627 842 CURVE SMOOTH",
"1578 842 OFFCURVE",
"1549 821 OFFCURVE",
"1537 784 CURVE SMOOTH",
"1474 591 OFFCURVE",
"1380 441 OFFCURVE",
"1189 441 CURVE SMOOTH",
"1143 441 OFFCURVE",
"1090 441 OFFCURVE",
"1031 441 CURVE SMOOTH",
"1006 441 OFFCURVE",
"984 420 OFFCURVE",
"984 384 CURVE SMOOTH",
"984 354 OFFCURVE",
"1002 335 OFFCURVE",
"1033 335 CURVE SMOOTH",
"1206 336 LINE",
"1260 367 LINE",
"1410 380 OFFCURVE",
"1604 493 OFFCURVE",
"1688 771 CURVE SMOOTH"
);
},
{
closed = 1;
nodes = (
"1135 848 OFFCURVE",
"1107 829 OFFCURVE",
"1103 778 CURVE SMOOTH",
"1098 715 OFFCURVE",
"1081 576 OFFCURVE",
"1065 486 CURVE SMOOTH",
"1058 446 OFFCURVE",
"1050 403 OFFCURVE",
"1042 355 CURVE SMOOTH",
"1021 228 OFFCURVE",
"998 105 OFFCURVE",
"998 55 CURVE SMOOTH",
"998 19 OFFCURVE",
"1018 -5 OFFCURVE",
"1069 -5 CURVE SMOOTH",
"1119 -5 OFFCURVE",
"1146 14 OFFCURVE",
"1150 65 CURVE SMOOTH",
"1155 128 OFFCURVE",
"1173 267 OFFCURVE",
"1188 357 CURVE SMOOTH",
"1210 488 LINE SMOOTH",
"1231 615 OFFCURVE",
"1255 738 OFFCURVE",
"1255 788 CURVE SMOOTH",
"1255 824 OFFCURVE",
"1236 848 OFFCURVE",
"1187 848 CURVE SMOOTH"
);
},
{
closed = 1;
nodes = (
"750 -5 OFFCURVE",
"810 49 OFFCURVE",
"865 116 CURVE",
"829 209 LINE",
"773 142 OFFCURVE",
"739 114 OFFCURVE",
"695 114 CURVE SMOOTH",
"647 114 OFFCURVE",
"615 147 OFFCURVE",
"574 235 CURVE SMOOTH",
"522 346 OFFCURVE",
"491 390 OFFCURVE",
"325 390 CURVE",
"286 336 LINE",
"355 336 OFFCURVE",
"376 315 OFFCURVE",
"440 174 CURVE SMOOTH",
"491 61 OFFCURVE",
"544 -5 OFFCURVE",
"652 -5 CURVE SMOOTH"
);
},
{
closed = 1;
nodes = (
"793 814 OFFCURVE",
"770 842 OFFCURVE",
"727 842 CURVE SMOOTH",
"678 842 OFFCURVE",
"649 821 OFFCURVE",
"637 784 CURVE SMOOTH",
"574 591 OFFCURVE",
"480 441 OFFCURVE",
"289 441 CURVE SMOOTH",
"243 441 OFFCURVE",
"210 441 OFFCURVE",
"151 441 CURVE SMOOTH",
"126 441 OFFCURVE",
"104 420 OFFCURVE",
"104 384 CURVE SMOOTH",
"104 354 OFFCURVE",
"122 335 OFFCURVE",
"153 335 CURVE SMOOTH",
"306 336 LINE",
"360 367 LINE",
"510 380 OFFCURVE",
"696 493 OFFCURVE",
"780 771 CURVE SMOOTH"
);
}
);
};
layerId = "ECEFE970-1BBB-4E0A-A452-CEB55884B4A3";
paths = (
{
closed = 1;
nodes = (
"818 52 OFFCURVE",
"799 136 OFFCURVE",
"742 122 CURVE SMOOTH",
"724 118 OFFCURVE",
"707 114 OFFCURVE",
"691 114 CURVE SMOOTH",
"651 114 OFFCURVE",
"619 147 OFFCURVE",
"574 235 CURVE SMOOTH",
"518 344 OFFCURVE",
"491 390 OFFCURVE",
"325 390 CURVE",
"286 336 LINE",
"355 336 OFFCURVE",
"372 314 OFFCURVE",
"440 174 CURVE SMOOTH",
"495 61 OFFCURVE",
"550 -5 OFFCURVE",
"656 -5 CURVE SMOOTH",
"694 -5 OFFCURVE",
"732 6 OFFCURVE",
"755 18 CURVE SMOOTH"
);
},
{
closed = 1;
nodes = (
"793 814 OFFCURVE",
"770 842 OFFCURVE",
"727 842 CURVE SMOOTH",
"678 842 OFFCURVE",
"649 821 OFFCURVE",
"637 784 CURVE SMOOTH",
"574 591 OFFCURVE",
"480 441 OFFCURVE",
"289 441 CURVE SMOOTH",
"243 441 OFFCURVE",
"190 441 OFFCURVE",
"131 441 CURVE SMOOTH",
"106 441 OFFCURVE",
"84 420 OFFCURVE",
"84 384 CURVE SMOOTH",
"84 354 OFFCURVE",
"102 335 OFFCURVE",
"133 335 CURVE SMOOTH",
"306 336 LINE",
"360 367 LINE",
"510 380 OFFCURVE",
"696 493 OFFCURVE",
"780 771 CURVE SMOOTH"
);
},
{
closed = 1;
nodes = (
"235 848 OFFCURVE",
"207 829 OFFCURVE",
"203 778 CURVE SMOOTH",
"199 715 OFFCURVE",
"181 576 OFFCURVE",
"165 486 CURVE SMOOTH",
"158 446 OFFCURVE",
"150 403 OFFCURVE",
"142 355 CURVE SMOOTH",
"121 228 OFFCURVE",
"98 105 OFFCURVE",
"98 55 CURVE SMOOTH",
"98 19 OFFCURVE",
"118 -5 OFFCURVE",
"169 -5 CURVE SMOOTH",
"219 -5 OFFCURVE",
"246 14 OFFCURVE",
"250 65 CURVE SMOOTH",
"254 128 OFFCURVE",
"273 267 OFFCURVE",
"288 357 CURVE SMOOTH",
"310 488 LINE SMOOTH",
"331 615 OFFCURVE",
"355 738 OFFCURVE",
"355 788 CURVE SMOOTH",
"355 824 OFFCURVE",
"336 848 OFFCURVE",
"287 848 CURVE SMOOTH"
);
}
);
width = 758;
}
);
note = K;
},
{
color = 3;
glyphname = L.ss01;
lastChange = "2016-07-27 22:36:54 +0000";
layers = (
{
background = {
paths = (
{
closed = 1;
nodes = (
"346 119 OFFCURVE",
"175 113 OFFCURVE",
"85 104 CURVE SMOOTH",
"31 99 OFFCURVE",
"13 72 OFFCURVE",
"13 38 CURVE SMOOTH",
"13 4 OFFCURVE",
"36 -20 OFFCURVE",
"100 -17 CURVE SMOOTH",
"215 -12 OFFCURVE",
"290 -7 OFFCURVE",
"532 -7 CURVE SMOOTH",
"595 -7 OFFCURVE",
"618 23 OFFCURVE",
"618 63 CURVE SMOOTH",
"618 107 OFFCURVE",
"585 119 OFFCURVE",
"513 119 CURVE SMOOTH"
);
},
{
closed = 1;
nodes = (
"217 848 OFFCURVE",
"191 829 OFFCURVE",
"187 778 CURVE SMOOTH",
"182 715 OFFCURVE",
"165 576 OFFCURVE",
"149 486 CURVE SMOOTH",
"142 446 OFFCURVE",
"134 403 OFFCURVE",
"126 355 CURVE SMOOTH",
"105 228 OFFCURVE",
"84 105 OFFCURVE",
"79 55 CURVE",
"234 65 LINE",
"242 128 OFFCURVE",
"262 267 OFFCURVE",
"277 357 CURVE SMOOTH",
"299 488 LINE SMOOTH",
"320 615 OFFCURVE",
"342 738 OFFCURVE",
"342 788 CURVE SMOOTH",
"342 824 OFFCURVE",
"318 848 OFFCURVE",
"269 848 CURVE SMOOTH"
);
}
);
};
layerId = "ECEFE970-1BBB-4E0A-A452-CEB55884B4A3";
paths = (
{
closed = 1;
nodes = (
"397 124 OFFCURVE",
"313 122 OFFCURVE",
"240 118 CURVE",
"249 187 OFFCURVE",
"263 285 OFFCURVE",
"275 357 CURVE SMOOTH",
"296 488 LINE SMOOTH",
"316 615 OFFCURVE",
"340 738 OFFCURVE",
"340 788 CURVE SMOOTH",
"340 824 OFFCURVE",
"321 848 OFFCURVE",
"271 848 CURVE SMOOTH",
"219 848 OFFCURVE",
"192 829 OFFCURVE",
"187 778 CURVE SMOOTH",
"176 657 OFFCURVE",
"149 511 OFFCURVE",
"126 355 CURVE SMOOTH",
"110 248 OFFCURVE",
"87 91 OFFCURVE",
"85 41 CURVE SMOOTH",
"84 9 OFFCURVE",
"107 -13 OFFCURVE",
"151 -11 CURVE SMOOTH",
"286 -5 OFFCURVE",
"372 -2 OFFCURVE",
"552 -2 CURVE SMOOTH",
"597 -2 OFFCURVE",
"620 28 OFFCURVE",
"620 68 CURVE SMOOTH",
"620 112 OFFCURVE",
"597 124 OFFCURVE",
"565 124 CURVE SMOOTH"
);
}
);
width = 616;
}
);
note = L;
},
{
color = 3;
glyphname = M.ss01;
lastChange = "2016-07-27 22:36:54 +0000";
layers = (
{
background = {
paths = (
{
closed = 1;
nodes = (
"2578 227 OFFCURVE",
"2568 222 OFFCURVE",
"2558 209 CURVE SMOOTH",
"2506 141 OFFCURVE",
"2468 114 OFFCURVE",
"2424 114 CURVE SMOOTH",
"2381 114 OFFCURVE",
"2351 141 OFFCURVE",
"2351 198 CURVE SMOOTH",
"2351 229 OFFCURVE",
"2355 254 OFFCURVE",
"2361 284 CURVE SMOOTH",
"2422 570 LINE SMOOTH",
"2431 609 OFFCURVE",
"2435 645 OFFCURVE",
"2435 677 CURVE SMOOTH",
"2435 783 OFFCURVE",
"2385 848 OFFCURVE",
"2284 848 CURVE SMOOTH",
"2173 848 OFFCURVE",
"2081 782 OFFCURVE",
"2011 590 CURVE",
"2019 628 OFFCURVE",
"2020 646 OFFCURVE",
"2020 669 CURVE SMOOTH",
"2020 785 OFFCURVE",
"1967 848 OFFCURVE",
"1873 848 CURVE SMOOTH",
"1763 848 OFFCURVE",
"1670 776 OFFCURVE",
"1594 553 CURVE",
"1610 647 OFFCURVE",
"1634 724 OFFCURVE",
"1646 782 CURVE SMOOTH",
"1656 829 OFFCURVE",
"1641 852 OFFCURVE",
"1582 852 CURVE SMOOTH",
"1547 852 OFFCURVE",
"1513 839 OFFCURVE",
"1503 794 CURVE SMOOTH",
"1458 592 OFFCURVE",
"1415 328 OFFCURVE",
"1400 103 CURVE SMOOTH",
"1395 24 OFFCURVE",
"1424 -5 OFFCURVE",
"1467 -5 CURVE SMOOTH",
"1518 -5 OFFCURVE",
"1536 25 OFFCURVE",
"1545 86 CURVE SMOOTH",
"1618 575 OFFCURVE",
"1747 721 OFFCURVE",
"1831 721 CURVE SMOOTH",
"1862 721 OFFCURVE",
"1881 698 OFFCURVE",
"1881 647 CURVE SMOOTH",
"1881 587 OFFCURVE",
"1855 456 OFFCURVE",
"1832 335 CURVE SMOOTH",
"1820 272 OFFCURVE",
"1793 135 OFFCURVE",
"1793 81 CURVE SMOOTH",
"1793 20 OFFCURVE",
"1824 -5 OFFCURVE",
"1867 -5 CURVE SMOOTH",
"1910 -5 OFFCURVE",
"1941 25 OFFCURVE",
"1951 96 CURVE SMOOTH",
"2019 575 OFFCURVE",
"2147 721 OFFCURVE",
"2231 721 CURVE SMOOTH",
"2262 721 OFFCURVE",
"2281 698 OFFCURVE",
"2281 651 CURVE SMOOTH",
"2281 607 OFFCURVE",
"2272 572 OFFCURVE",
"2263 535 CURVE SMOOTH",
"2222 352 LINE SMOOTH",
"2205 273 OFFCURVE",
"2198 221 OFFCURVE",
"2198 181 CURVE SMOOTH",
"2198 69 OFFCURVE",
"2265 -5 OFFCURVE",
"2377 -5 CURVE SMOOTH",
"2455 -5 OFFCURVE",
"2542 38 OFFCURVE",
"2589 124 CURVE SMOOTH",
"2601 146 OFFCURVE",
"2606 169 OFFCURVE",
"2606 187 CURVE SMOOTH",
"2606 210 OFFCURVE",
"2598 227 OFFCURVE",
"2585 227 CURVE SMOOTH"
);
},
{
closed = 1;
nodes = (
"1265 848 OFFCURVE",
"1173 782 OFFCURVE",
"1103 590 CURVE",
"1110 628 OFFCURVE",
"1112 653 OFFCURVE",
"1112 672 CURVE SMOOTH",
"1112 785 OFFCURVE",
"1059 848 OFFCURVE",
"972 848 CURVE SMOOTH",
"869 848 OFFCURVE",
"778 790 OFFCURVE",
"700 590 CURVE",
"713 666 OFFCURVE",
"727 744 OFFCURVE",
"731 782 CURVE SMOOTH",
"736 829 OFFCURVE",
"725 852 OFFCURVE",
"672 852 CURVE SMOOTH",
"637 852 OFFCURVE",
"601 839 OFFCURVE",
"594 794 CURVE SMOOTH",
"563 592 OFFCURVE",
"505 210 OFFCURVE",
"495 84 CURVE SMOOTH",
"490 20 OFFCURVE",
"520 -5 OFFCURVE",
"568 -5 CURVE SMOOTH",
"619 -5 OFFCURVE",
"638 25 OFFCURVE",
"646 86 CURVE SMOOTH",
"713 594 OFFCURVE",
"846 721 OFFCURVE",
"930 721 CURVE SMOOTH",
"966 721 OFFCURVE",
"985 698 OFFCURVE",
"985 647 CURVE SMOOTH",
"985 587 OFFCURVE",
"959 456 OFFCURVE",
"936 335 CURVE SMOOTH",
"924 272 OFFCURVE",
"897 135 OFFCURVE",
"897 81 CURVE SMOOTH",
"897 20 OFFCURVE",
"919 -5 OFFCURVE",
"966 -5 CURVE SMOOTH",
"1020 -5 OFFCURVE",
"1040 25 OFFCURVE",
"1049 96 CURVE SMOOTH",
"1108 565 OFFCURVE",
"1239 721 OFFCURVE",
"1323 721 CURVE SMOOTH",
"1354 721 OFFCURVE",
"1373 698 OFFCURVE",
"1373 651 CURVE SMOOTH",
"1373 619 OFFCURVE",
"1360 549 OFFCURVE",
"1350 486 CURVE SMOOTH",
"1328 353 LINE SMOOTH",
"1307 226 OFFCURVE",
"1284 105 OFFCURVE",
"1284 55 CURVE SMOOTH",
"1284 19 OFFCURVE",
"1304 -5 OFFCURVE",
"1355 -5 CURVE SMOOTH",
"1405 -5 OFFCURVE",
"1432 14 OFFCURVE",
"1436 65 CURVE SMOOTH",
"1441 128 OFFCURVE",
"1459 267 OFFCURVE",
"1475 357 CURVE SMOOTH",
"1506 530 LINE SMOOTH",
"1520 609 OFFCURVE",
"1523 645 OFFCURVE",
"1523 677 CURVE SMOOTH",
"1523 783 OFFCURVE",
"1473 848 OFFCURVE",
"1374 848 CURVE SMOOTH"
);
}
);
};
layerId = "ECEFE970-1BBB-4E0A-A452-CEB55884B4A3";
paths = (
{
closed = 1;
nodes = (
"864 848 OFFCURVE",
"772 782 OFFCURVE",
"702 590 CURVE",
"709 628 OFFCURVE",
"711 653 OFFCURVE",
"711 672 CURVE SMOOTH",
"711 785 OFFCURVE",
"658 848 OFFCURVE",
"571 848 CURVE SMOOTH",
"468 848 OFFCURVE",
"377 790 OFFCURVE",
"299 590 CURVE",
"312 666 OFFCURVE",
"326 744 OFFCURVE",
"330 782 CURVE SMOOTH",
"335 829 OFFCURVE",
"324 852 OFFCURVE",
"271 852 CURVE SMOOTH",
"236 852 OFFCURVE",
"200 839 OFFCURVE",
"193 794 CURVE SMOOTH",
"162 592 OFFCURVE",
"104 210 OFFCURVE",
"94 84 CURVE SMOOTH",
"89 20 OFFCURVE",
"119 -5 OFFCURVE",
"167 -5 CURVE SMOOTH",
"218 -5 OFFCURVE",
"237 25 OFFCURVE",
"245 86 CURVE SMOOTH",
"312 594 OFFCURVE",
"445 721 OFFCURVE",
"529 721 CURVE SMOOTH",
"565 721 OFFCURVE",
"584 698 OFFCURVE",
"584 647 CURVE SMOOTH",
"584 587 OFFCURVE",
"558 456 OFFCURVE",
"535 335 CURVE SMOOTH",
"523 272 OFFCURVE",
"496 135 OFFCURVE",
"496 81 CURVE SMOOTH",
"496 20 OFFCURVE",
"518 -5 OFFCURVE",
"565 -5 CURVE SMOOTH",
"619 -5 OFFCURVE",
"639 25 OFFCURVE",
"648 96 CURVE SMOOTH",
"707 565 OFFCURVE",
"846 721 OFFCURVE",
"930 721 CURVE SMOOTH",
"961 721 OFFCURVE",
"983 698 OFFCURVE",
"983 651 CURVE SMOOTH",
"983 619 OFFCURVE",
"973 549 OFFCURVE",
"962 486 CURVE SMOOTH",
"938 353 LINE SMOOTH",
"915 226 OFFCURVE",
"894 105 OFFCURVE",
"894 55 CURVE SMOOTH",
"894 19 OFFCURVE",
"914 -5 OFFCURVE",
"965 -5 CURVE SMOOTH",
"1015 -5 OFFCURVE",
"1042 14 OFFCURVE",
"1046 65 CURVE SMOOTH",
"1051 128 OFFCURVE",
"1069 267 OFFCURVE",
"1085 357 CURVE SMOOTH",
"1107 480 LINE SMOOTH",
"1120 551 OFFCURVE",
"1133 625 OFFCURVE",
"1133 677 CURVE SMOOTH",
"1133 783 OFFCURVE",
"1072 848 OFFCURVE",
"983 848 CURVE SMOOTH"
);
}
);
width = 1152;
}
);
leftMetricsKey = N.ss01;
note = M;
rightMetricsKey = N.ss01;
},
{
color = 3;
glyphname = N.ss01;
lastChange = "2016-07-27 22:36:54 +0000";
layers = (
{
background = {
paths = (
{
closed = 1;
nodes = (
"1262 848 OFFCURVE",
"1163 746 OFFCURVE",
"1096 590 CURVE",
"1109 666 OFFCURVE",
"1123 744 OFFCURVE",
"1127 782 CURVE SMOOTH",
"1132 829 OFFCURVE",
"1121 852 OFFCURVE",
"1068 852 CURVE SMOOTH",
"1033 852 OFFCURVE",
"997 840 OFFCURVE",
"990 794 CURVE SMOOTH",
"959 592 OFFCURVE",
"901 210 OFFCURVE",
"891 84 CURVE SMOOTH",
"886 20 OFFCURVE",
"916 -5 OFFCURVE",
"964 -5 CURVE SMOOTH",
"1012 -5 OFFCURVE",
"1034 25 OFFCURVE",
"1041 86 CURVE SMOOTH",
"1090 513 OFFCURVE",
"1238 721 OFFCURVE",
"1353 721 CURVE SMOOTH",
"1398 721 OFFCURVE",
"1425 693 OFFCURVE",
"1425 651 CURVE SMOOTH",
"1425 619 OFFCURVE",
"1412 549 OFFCURVE",
"1402 486 CURVE SMOOTH",
"1380 353 LINE SMOOTH",
"1359 226 OFFCURVE",
"1336 105 OFFCURVE",
"1336 55 CURVE SMOOTH",
"1336 19 OFFCURVE",
"1356 -5 OFFCURVE",
"1407 -5 CURVE SMOOTH",
"1457 -5 OFFCURVE",
"1484 14 OFFCURVE",
"1488 65 CURVE SMOOTH",
"1493 128 OFFCURVE",
"1511 267 OFFCURVE",
"1527 357 CURVE SMOOTH",
"1558 530 LINE SMOOTH",
"1572 609 OFFCURVE",
"1575 645 OFFCURVE",
"1575 677 CURVE SMOOTH",
"1575 776 OFFCURVE",
"1521 848 OFFCURVE",
"1402 848 CURVE SMOOTH"
);
},
{
closed = 1;
nodes = (
"504 848 OFFCURVE",
"412 782 OFFCURVE",
"342 590 CURVE",
"349 628 OFFCURVE",
"351 653 OFFCURVE",
"351 672 CURVE SMOOTH",
"351 785 OFFCURVE",
"298 848 OFFCURVE",
"211 848 CURVE SMOOTH",
"108 848 OFFCURVE",
"17 790 OFFCURVE",
"-61 590 CURVE",
"-48 666 OFFCURVE",
"-34 744 OFFCURVE",
"-30 782 CURVE SMOOTH",
"-25 829 OFFCURVE",
"-36 852 OFFCURVE",
"-89 852 CURVE SMOOTH",
"-124 852 OFFCURVE",
"-160 839 OFFCURVE",
"-167 794 CURVE SMOOTH",
"-198 592 OFFCURVE",
"-256 210 OFFCURVE",
"-266 84 CURVE SMOOTH",
"-271 20 OFFCURVE",
"-241 -5 OFFCURVE",
"-193 -5 CURVE SMOOTH",
"-142 -5 OFFCURVE",
"-123 25 OFFCURVE",
"-115 86 CURVE SMOOTH",
"-48 594 OFFCURVE",
"85 721 OFFCURVE",
"169 721 CURVE SMOOTH",
"205 721 OFFCURVE",
"224 698 OFFCURVE",
"224 647 CURVE SMOOTH",
"224 587 OFFCURVE",
"198 456 OFFCURVE",
"175 335 CURVE SMOOTH",
"163 272 OFFCURVE",
"136 135 OFFCURVE",
"136 81 CURVE SMOOTH",
"136 20 OFFCURVE",
"158 -5 OFFCURVE",
"205 -5 CURVE SMOOTH",
"259 -5 OFFCURVE",
"279 25 OFFCURVE",
"288 96 CURVE SMOOTH",
"347 565 OFFCURVE",
"486 721 OFFCURVE",
"570 721 CURVE SMOOTH",
"601 721 OFFCURVE",
"623 698 OFFCURVE",
"623 651 CURVE SMOOTH",
"623 619 OFFCURVE",
"613 549 OFFCURVE",
"602 486 CURVE SMOOTH",
"578 353 LINE SMOOTH",
"555 226 OFFCURVE",
"534 105 OFFCURVE",
"534 55 CURVE SMOOTH",
"534 19 OFFCURVE",
"554 -5 OFFCURVE",
"605 -5 CURVE SMOOTH",
"655 -5 OFFCURVE",
"682 14 OFFCURVE",
"686 65 CURVE SMOOTH",
"691 128 OFFCURVE",
"709 267 OFFCURVE",
"725 357 CURVE SMOOTH",
"747 480 LINE SMOOTH",
"760 551 OFFCURVE",
"773 625 OFFCURVE",
"773 677 CURVE SMOOTH",
"773 783 OFFCURVE",
"712 848 OFFCURVE",
"623 848 CURVE SMOOTH"
);
}
);
};
layerId = "ECEFE970-1BBB-4E0A-A452-CEB55884B4A3";
paths = (
{
closed = 1;
nodes = (
"462 848 OFFCURVE",
"363 746 OFFCURVE",
"296 590 CURVE",
"309 666 OFFCURVE",
"323 744 OFFCURVE",
"327 782 CURVE SMOOTH",
"332 829 OFFCURVE",
"321 852 OFFCURVE",
"268 852 CURVE SMOOTH",
"233 852 OFFCURVE",
"197 840 OFFCURVE",
"190 794 CURVE SMOOTH",
"159 592 OFFCURVE",
"104 210 OFFCURVE",
"94 84 CURVE SMOOTH",
"89 20 OFFCURVE",
"116 -5 OFFCURVE",
"164 -5 CURVE SMOOTH",
"212 -5 OFFCURVE",
"234 25 OFFCURVE",
"241 86 CURVE SMOOTH",
"290 513 OFFCURVE",
"438 721 OFFCURVE",
"564 721 CURVE SMOOTH",
"600 721 OFFCURVE",
"623 700 OFFCURVE",
"623 649 CURVE SMOOTH",
"623 619 OFFCURVE",
"613 549 OFFCURVE",
"602 486 CURVE SMOOTH",
"578 353 LINE SMOOTH",
"555 226 OFFCURVE",
"534 105 OFFCURVE",
"534 55 CURVE SMOOTH",
"534 19 OFFCURVE",
"554 -5 OFFCURVE",
"605 -5 CURVE SMOOTH",
"655 -5 OFFCURVE",
"682 14 OFFCURVE",
"686 65 CURVE SMOOTH",
"691 128 OFFCURVE",
"709 267 OFFCURVE",
"725 357 CURVE SMOOTH",
"747 480 LINE SMOOTH",
"760 551 OFFCURVE",
"773 625 OFFCURVE",
"773 677 CURVE SMOOTH",
"773 776 OFFCURVE",
"721 848 OFFCURVE",
"602 848 CURVE SMOOTH"
);
}
);
width = 792;
}
);
note = N;
},
{
color = 3;
glyphname = OE.ss01;
lastChange = "2016-07-27 22:36:54 +0000";
layers = (
{
background = {
paths = (
{
closed = 1;
nodes = (
"617 -5 OFFCURVE",
"787 217 OFFCURVE",
"787 505 CURVE SMOOTH",
"787 724 OFFCURVE",
"661 848 OFFCURVE",
"487 848 CURVE SMOOTH",
"212 848 OFFCURVE",
"69 592 OFFCURVE",
"69 338 CURVE SMOOTH",
"69 119 OFFCURVE",
"201 -5 OFFCURVE",
"385 -5 CURVE SMOOTH"
);
},
{
closed = 1;
nodes = (
"296 115 OFFCURVE",
"218 191 OFFCURVE",
"218 356 CURVE SMOOTH",
"218 570 OFFCURVE",
"322 728 OFFCURVE",
"476 728 CURVE SMOOTH",
"576 728 OFFCURVE",
"654 651 OFFCURVE",
"654 487 CURVE SMOOTH",
"654 245 OFFCURVE",
"532 115 OFFCURVE",
"396 115 CURVE SMOOTH"
);
},
{
closed = 1;
nodes = (
"1006 -5 OFFCURVE",
"1060 6 OFFCURVE",
"1107 28 CURVE SMOOTH",
"1149 48 OFFCURVE",
"1166 79 OFFCURVE",
"1166 108 CURVE SMOOTH",
"1166 136 OFFCURVE",
"1144 151 OFFCURVE",
"1098 139 CURVE SMOOTH",
"1053 127 OFFCURVE",
"1014 120 OFFCURVE",
"962 120 CURVE SMOOTH",
"805 120 OFFCURVE",
"769 212 OFFCURVE",
"803 361 CURVE",
"912 363 OFFCURVE",
"960 365 OFFCURVE",
"1038 367 CURVE SMOOTH",
"1101 369 OFFCURVE",
"1124 396 OFFCURVE",
"1124 436 CURVE SMOOTH",
"1124 464 OFFCURVE",
"1109 490 OFFCURVE",
"1060 490 CURVE SMOOTH",
"989 490 OFFCURVE",
"916 486 OFFCURVE",
"827 483 CURVE",
"843 556 OFFCURVE",
"865 651 OFFCURVE",
"885 713 CURVE",
"926 716 OFFCURVE",
"1026 720 OFFCURVE",
"1078 720 CURVE SMOOTH",
"1160 720 OFFCURVE",
"1190 751 OFFCURVE",
"1190 787 CURVE SMOOTH",
"1190 824 OFFCURVE",
"1165 849 OFFCURVE",
"1106 849 CURVE SMOOTH",
"1030 849 OFFCURVE",
"960 845 OFFCURVE",
"906 842 CURVE SMOOTH",
"819 837 OFFCURVE",
"759 802 OFFCURVE",
"728 691 CURVE SMOOTH",
"681 520 LINE",
"648 264 LINE",
"642 121 OFFCURVE",
"724 -5 OFFCURVE",
"939 -5 CURVE SMOOTH"
);
}
);
};
layerId = "ECEFE970-1BBB-4E0A-A452-CEB55884B4A3";
paths = (
{
closed = 1;
nodes = (
"617 -5 OFFCURVE",
"787 217 OFFCURVE",
"787 505 CURVE SMOOTH",
"787 724 OFFCURVE",
"661 848 OFFCURVE",
"487 848 CURVE SMOOTH",
"255 848 OFFCURVE",
"69 649 OFFCURVE",
"69 338 CURVE SMOOTH",
"69 114 OFFCURVE",
"211 -5 OFFCURVE",
"385 -5 CURVE SMOOTH"
);
},
{
closed = 1;
nodes = (
"298 117 OFFCURVE",
"220 192 OFFCURVE",
"220 356 CURVE SMOOTH",
"220 570 OFFCURVE",
"322 726 OFFCURVE",
"476 726 CURVE SMOOTH",
"576 726 OFFCURVE",
"652 651 OFFCURVE",
"652 487 CURVE SMOOTH",
"652 273 OFFCURVE",
"548 117 OFFCURVE",
"396 117 CURVE SMOOTH"
);
},
{
closed = 1;
nodes = (
"1158 38 OFFCURVE",
"1170 61 OFFCURVE",
"1170 98 CURVE SMOOTH",
"1170 126 OFFCURVE",
"1157 155 OFFCURVE",
"1111 144 CURVE SMOOTH",
"1057 131 OFFCURVE",
"1028 121 OFFCURVE",
"966 121 CURVE SMOOTH",
"809 121 OFFCURVE",
"769 212 OFFCURVE",
"803 361 CURVE",
"912 363 OFFCURVE",
"980 366 OFFCURVE",
"1058 368 CURVE SMOOTH",
"1101 369 OFFCURVE",
"1124 401 OFFCURVE",
"1124 441 CURVE SMOOTH",
"1124 471 OFFCURVE",
"1113 490 OFFCURVE",
"1071 490 CURVE SMOOTH",
"1000 490 OFFCURVE",
"916 486 OFFCURVE",
"827 483 CURVE",
"843 556 OFFCURVE",
"865 648 OFFCURVE",
"885 710 CURVE",
"926 713 OFFCURVE",
"1070 720 OFFCURVE",
"1122 720 CURVE SMOOTH",
"1174 720 OFFCURVE",
"1194 759 OFFCURVE",
"1194 795 CURVE SMOOTH",
"1194 832 OFFCURVE",
"1179 849 OFFCURVE",
"1130 849 CURVE SMOOTH",
"1054 849 OFFCURVE",
"934 842 OFFCURVE",
"880 840 CURVE SMOOTH",
"813 838 OFFCURVE",
"762 801 OFFCURVE",
"742 727 CURVE SMOOTH",
"661 431 LINE",
"652 264 LINE",
"646 121 OFFCURVE",
"728 -5 OFFCURVE",
"953 -5 CURVE SMOOTH",
"1010 -5 OFFCURVE",
"1064 4 OFFCURVE",
"1111 21 CURVE SMOOTH"
);
}
);
width = 1154;
}
);
note = OE;
},
{
color = 3;
glyphname = P.ss01;
lastChange = "2016-07-27 22:36:54 +0000";
layers = (
{
background = {
paths = (
{
closed = 1;
nodes = (
"48 744 OFFCURVE",
"77 652 OFFCURVE",
"151 696 CURVE SMOOTH",
"195 722 OFFCURVE",
"260 735 OFFCURVE",
"319 735 CURVE SMOOTH",
"445 735 OFFCURVE",
"501 664 OFFCURVE",
"501 577 CURVE SMOOTH",
"501 474 OFFCURVE",
"441 372 OFFCURVE",
"226 372 CURVE SMOOTH",
"181 372 OFFCURVE",
"142 375 OFFCURVE",
"109 381 CURVE SMOOTH",
"71 388 OFFCURVE",
"39 369 OFFCURVE",
"39 332 CURVE SMOOTH",
"39 310 OFFCURVE",
"51 287 OFFCURVE",
"95 279 CURVE SMOOTH",
"128 273 OFFCURVE",
"178 269 OFFCURVE",
"234 269 CURVE SMOOTH",
"508 269 OFFCURVE",
"649 417 OFFCURVE",
"649 593 CURVE SMOOTH",
"649 735 OFFCURVE",
"549 846 OFFCURVE",
"347 846 CURVE SMOOTH",
"264 846 OFFCURVE",
"183 826 OFFCURVE",
"134 796 CURVE SMOOTH"
);
},
{
closed = 1;
nodes = (
"206 778 LINE",
"201 715 OFFCURVE",
"181 576 OFFCURVE",
"165 486 CURVE SMOOTH",
"158 446 OFFCURVE",
"150 403 OFFCURVE",
"142 355 CURVE SMOOTH",
"121 228 OFFCURVE",
"98 105 OFFCURVE",
"98 55 CURVE SMOOTH",
"98 19 OFFCURVE",
"122 -5 OFFCURVE",
"171 -5 CURVE SMOOTH",
"223 -5 OFFCURVE",
"249 14 OFFCURVE",
"253 65 CURVE SMOOTH",
"258 128 OFFCURVE",
"276 267 OFFCURVE",
"291 357 CURVE SMOOTH",
"313 488 LINE SMOOTH",
"334 615 OFFCURVE",
"354 738 OFFCURVE",
"358 788 CURVE"
);
}
);
};
layerId = "ECEFE970-1BBB-4E0A-A452-CEB55884B4A3";
paths = (
{
closed = 1;
nodes = (
"56 748 OFFCURVE",
"99 668 OFFCURVE",
"151 696 CURVE SMOOTH",
"196 720 OFFCURVE",
"260 737 OFFCURVE",
"319 737 CURVE SMOOTH",
"455 737 OFFCURVE",
"511 683 OFFCURVE",
"511 577 CURVE SMOOTH",
"511 459 OFFCURVE",
"431 372 OFFCURVE",
"226 372 CURVE SMOOTH",
"181 372 OFFCURVE",
"142 375 OFFCURVE",
"109 381 CURVE SMOOTH",
"71 388 OFFCURVE",
"46 369 OFFCURVE",
"46 332 CURVE SMOOTH",
"46 310 OFFCURVE",
"51 287 OFFCURVE",
"95 279 CURVE SMOOTH",
"128 273 OFFCURVE",
"178 268 OFFCURVE",
"234 268 CURVE SMOOTH",
"518 268 OFFCURVE",
"659 417 OFFCURVE",
"659 593 CURVE SMOOTH",
"659 735 OFFCURVE",
"559 846 OFFCURVE",
"347 846 CURVE SMOOTH",
"264 846 OFFCURVE",
"183 826 OFFCURVE",
"134 796 CURVE SMOOTH"
);
},
{
closed = 1;
nodes = (
"208 778 LINE",
"201 715 OFFCURVE",
"181 576 OFFCURVE",
"165 486 CURVE SMOOTH",
"158 446 OFFCURVE",
"150 403 OFFCURVE",
"142 355 CURVE SMOOTH",
"121 228 OFFCURVE",
"99 105 OFFCURVE",
"99 55 CURVE SMOOTH",
"99 19 OFFCURVE",
"119 -5 OFFCURVE",
"168 -5 CURVE SMOOTH",
"220 -5 OFFCURVE",
"242 14 OFFCURVE",
"248 65 CURVE SMOOTH",
"255 128 OFFCURVE",
"276 267 OFFCURVE",
"291 357 CURVE SMOOTH",
"313 488 LINE SMOOTH",
"334 615 OFFCURVE",
"354 738 OFFCURVE",
"358 788 CURVE"
);
}
);
width = 641;
}
);
note = P;
},
{
color = 3;
glyphname = Thorn.ss01;
lastChange = "2016-07-27 22:36:54 +0000";
layers = (
{
background = {
paths = (
{
closed = 1;
nodes = (
"50 615 OFFCURVE",
"93 535 OFFCURVE",
"145 563 CURVE SMOOTH",
"190 587 OFFCURVE",
"254 604 OFFCURVE",
"313 604 CURVE SMOOTH",
"449 604 OFFCURVE",
"505 550 OFFCURVE",
"505 444 CURVE SMOOTH",
"505 326 OFFCURVE",
"425 239 OFFCURVE",
"220 239 CURVE SMOOTH",
"175 239 OFFCURVE",
"136 242 OFFCURVE",
"103 248 CURVE SMOOTH",
"65 255 OFFCURVE",
"40 236 OFFCURVE",
"40 199 CURVE SMOOTH",
"40 177 OFFCURVE",
"45 154 OFFCURVE",
"89 146 CURVE SMOOTH",
"122 140 OFFCURVE",
"172 135 OFFCURVE",
"228 135 CURVE SMOOTH",
"512 135 OFFCURVE",
"653 284 OFFCURVE",
"653 460 CURVE SMOOTH",
"653 602 OFFCURVE",
"553 713 OFFCURVE",
"341 713 CURVE SMOOTH",
"258 713 OFFCURVE",
"177 693 OFFCURVE",
"128 663 CURVE SMOOTH"
);
},
{
closed = 1;
nodes = (
"209 778 LINE",
"202 715 OFFCURVE",
"182 576 OFFCURVE",
"166 486 CURVE SMOOTH",
"159 446 OFFCURVE",
"151 403 OFFCURVE",
"143 355 CURVE SMOOTH",
"122 228 OFFCURVE",
"100 105 OFFCURVE",
"100 55 CURVE SMOOTH",
"100 19 OFFCURVE",
"120 -5 OFFCURVE",
"169 -5 CURVE SMOOTH",
"221 -5 OFFCURVE",
"243 14 OFFCURVE",
"249 65 CURVE SMOOTH",
"256 128 OFFCURVE",
"277 267 OFFCURVE",
"292 357 CURVE SMOOTH",
"314 488 LINE SMOOTH",
"335 615 OFFCURVE",
"355 738 OFFCURVE",
"359 788 CURVE"
);
}
);
};
layerId = "ECEFE970-1BBB-4E0A-A452-CEB55884B4A3";
paths = (
{
closed = 1;
nodes = (
"50 615 OFFCURVE",
"93 535 OFFCURVE",
"145 563 CURVE SMOOTH",
"190 587 OFFCURVE",
"260 605 OFFCURVE",
"319 605 CURVE SMOOTH",
"457 605 OFFCURVE",
"501 534 OFFCURVE",
"501 466 CURVE SMOOTH",
"501 374 OFFCURVE",
"453 282 OFFCURVE",
"236 282 CURVE SMOOTH",
"181 282 OFFCURVE",
"142 285 OFFCURVE",
"109 291 CURVE SMOOTH",
"71 298 OFFCURVE",
"44 279 OFFCURVE",
"44 242 CURVE SMOOTH",
"44 220 OFFCURVE",
"51 197 OFFCURVE",
"95 189 CURVE SMOOTH",
"128 183 OFFCURVE",
"178 179 OFFCURVE",
"244 179 CURVE SMOOTH",
"518 179 OFFCURVE",
"649 317 OFFCURVE",
"649 483 CURVE SMOOTH",
"649 605 OFFCURVE",
"559 713 OFFCURVE",
"347 713 CURVE SMOOTH",
"264 713 OFFCURVE",
"177 693 OFFCURVE",
"128 663 CURVE SMOOTH"
);
},
{
closed = 1;
nodes = (
"236 848 OFFCURVE",
"208 829 OFFCURVE",
"204 778 CURVE SMOOTH",
"200 715 OFFCURVE",
"182 576 OFFCURVE",
"166 486 CURVE SMOOTH",
"159 446 OFFCURVE",
"151 403 OFFCURVE",
"143 355 CURVE SMOOTH",
"122 228 OFFCURVE",
"99 105 OFFCURVE",
"99 55 CURVE SMOOTH",
"99 19 OFFCURVE",
"119 -5 OFFCURVE",
"170 -5 CURVE SMOOTH",
"220 -5 OFFCURVE",
"247 14 OFFCURVE",
"251 65 CURVE SMOOTH",
"255 128 OFFCURVE",
"274 267 OFFCURVE",
"289 357 CURVE SMOOTH",
"311 488 LINE SMOOTH",
"332 615 OFFCURVE",
"356 738 OFFCURVE",
"356 788 CURVE SMOOTH",
"356 824 OFFCURVE",
"337 848 OFFCURVE",
"288 848 CURVE SMOOTH"
);
}
);
width = 665;
}
);
note = Thorn;
},
{
color = 3;
glyphname = Q.ss01;
lastChange = "2016-07-27 22:50:33 +0000";
layers = (
{
background = {
paths = (
{
closed = 1;
nodes = (
"1015 570 OFFCURVE",
"1119 728 OFFCURVE",
"1273 728 CURVE SMOOTH",
"1373 728 OFFCURVE",
"1451 651 OFFCURVE",
"1451 487 CURVE SMOOTH",
"1451 245 OFFCURVE",
"1329 115 OFFCURVE",
"1193 115 CURVE SMOOTH",
"1093 115 OFFCURVE",
"1015 191 OFFCURVE",
"1015 356 CURVE SMOOTH"
);
},
{
closed = 1;
nodes = (
"1311 -248 OFFCURVE",
"1344 -260 OFFCURVE",
"1384 -260 CURVE SMOOTH",
"1441 -260 OFFCURVE",
"1492 -226 OFFCURVE",
"1456 -175 CURVE SMOOTH",
"1374 -58 LINE SMOOTH",
"1345 -17 OFFCURVE",
"1321 8 OFFCURVE",
"1276 22 CURVE",
"1277 8 LINE",
"1462 59 OFFCURVE",
"1600 257 OFFCURVE",
"1600 505 CURVE SMOOTH",
"1600 724 OFFCURVE",
"1458 848 OFFCURVE",
"1284 848 CURVE SMOOTH",
"1009 848 OFFCURVE",
"866 592 OFFCURVE",
"866 338 CURVE SMOOTH",
"866 148 OFFCURVE",
"966 30 OFFCURVE",
"1112 1 CURVE SMOOTH",
"1152 -7 OFFCURVE",
"1163 -12 OFFCURVE",
"1204 -77 CURVE SMOOTH",
"1291 -216 LINE SMOOTH"
);
},
{
closed = 1;
nodes = (
"295 117 OFFCURVE",
"217 192 OFFCURVE",
"217 356 CURVE SMOOTH",
"217 570 OFFCURVE",
"321 726 OFFCURVE",
"473 726 CURVE SMOOTH",
"571 726 OFFCURVE",
"649 651 OFFCURVE",
"649 487 CURVE SMOOTH",
"649 273 OFFCURVE",
"545 117 OFFCURVE",
"393 117 CURVE SMOOTH"
);
},
{
closed = 1;
nodes = (
"532 -328 OFFCURVE",
"669 -271 OFFCURVE",
"627 -186 CURVE SMOOTH",
"615 -162 OFFCURVE",
"601 -131 OFFCURVE",
"589 -104 CURVE SMOOTH",
"552 -24 OFFCURVE",
"528 10 OFFCURVE",
"476 27 CURVE",
"477 8 LINE",
"662 54 OFFCURVE",
"800 234 OFFCURVE",
"800 505 CURVE SMOOTH",
"800 729 OFFCURVE",
"658 848 OFFCURVE",
"484 848 CURVE SMOOTH",
"252 848 OFFCURVE",
"66 649 OFFCURVE",
"66 338 CURVE SMOOTH",
"66 148 OFFCURVE",
"168 30 OFFCURVE",
"312 1 CURVE SMOOTH",
"371 -11 OFFCURVE",
"383 -40 OFFCURVE",
"442 -156 CURVE SMOOTH",
"465 -202 OFFCURVE",
"484 -238 OFFCURVE",
"498 -265 CURVE SMOOTH"
);
}
);
};
layerId = "ECEFE970-1BBB-4E0A-A452-CEB55884B4A3";
paths = (
{
closed = 1;
nodes = (
"295 117 OFFCURVE",
"217 192 OFFCURVE",
"217 356 CURVE SMOOTH",
"217 570 OFFCURVE",
"321 726 OFFCURVE",
"473 726 CURVE SMOOTH",
"571 726 OFFCURVE",
"649 651 OFFCURVE",
"649 487 CURVE SMOOTH",
"649 273 OFFCURVE",
"545 117 OFFCURVE",
"393 117 CURVE SMOOTH"
);
},
{
closed = 1;
nodes = (
"561 -329 OFFCURVE",
"697 -266 OFFCURVE",
"647 -186 CURVE SMOOTH",
"562 -51 LINE SMOOTH",
"545 -24 OFFCURVE",
"519 8 OFFCURVE",
"476 24 CURVE",
"477 8 LINE",
"662 54 OFFCURVE",
"800 234 OFFCURVE",
"800 505 CURVE SMOOTH",
"800 729 OFFCURVE",
"658 848 OFFCURVE",
"484 848 CURVE SMOOTH",
"252 848 OFFCURVE",
"66 649 OFFCURVE",
"66 338 CURVE SMOOTH",
"66 148 OFFCURVE",
"168 30 OFFCURVE",
"312 1 CURVE SMOOTH",
"361 -9 OFFCURVE",
"383 -40 OFFCURVE",
"430 -116 CURVE SMOOTH",
"513 -251 LINE SMOOTH"
);
}
);
width = 810;
}
);
leftKerningGroup = O;
leftMetricsKey = O;
widthMetricsKey = O;
note = Q;
rightKerningGroup = O;
},
{
color = 3;
glyphname = R.ss01;
lastChange = "2016-07-27 22:36:54 +0000";
layers = (
{
background = {
paths = (
{
closed = 1;
nodes = (
"1778 -5 OFFCURVE",
"1865 38 OFFCURVE",
"1912 124 CURVE SMOOTH",
"1924 146 OFFCURVE",
"1929 169 OFFCURVE",
"1929 187 CURVE SMOOTH",
"1929 210 OFFCURVE",
"1921 227 OFFCURVE",
"1908 227 CURVE SMOOTH",
"1901 227 OFFCURVE",
"1891 222 OFFCURVE",
"1881 209 CURVE SMOOTH",
"1829 141 OFFCURVE",
"1791 114 OFFCURVE",
"1747 114 CURVE SMOOTH",
"1697 114 OFFCURVE",
"1676 150 OFFCURVE",
"1635 235 CURVE SMOOTH",
"1591 326 OFFCURVE",
"1543 362 OFFCURVE",
"1417 362 CURVE",
"1358 316 LINE",
"1427 316 OFFCURVE",
"1440 283 OFFCURVE",
"1484 174 CURVE SMOOTH",
"1519 88 OFFCURVE",
"1556 -5 OFFCURVE",
"1699 -5 CURVE SMOOTH"
);
},
{
closed = 1;
nodes = (
"1158 744 OFFCURVE",
"1187 652 OFFCURVE",
"1261 696 CURVE SMOOTH",
"1305 722 OFFCURVE",
"1370 735 OFFCURVE",
"1439 735 CURVE SMOOTH",
"1533 735 OFFCURVE",
"1609 691 OFFCURVE",
"1609 602 CURVE SMOOTH",
"1609 481 OFFCURVE",
"1512 419 OFFCURVE",
"1361 419 CURVE SMOOTH",
"1295 419 OFFCURVE",
"1266 419 OFFCURVE",
"1237 419 CURVE SMOOTH",
"1212 419 OFFCURVE",
"1186 400 OFFCURVE",
"1186 367 CURVE SMOOTH",
"1186 347 OFFCURVE",
"1194 315 OFFCURVE",
"1245 315 CURVE",
"1372 339 LINE",
"1631 339 OFFCURVE",
"1758 477 OFFCURVE",
"1758 622 CURVE SMOOTH",
"1758 757 OFFCURVE",
"1651 846 OFFCURVE",
"1459 846 CURVE SMOOTH",
"1374 846 OFFCURVE",
"1293 826 OFFCURVE",
"1244 796 CURVE SMOOTH"
);
},
{
closed = 1;
nodes = (
"1316 778 LINE",
"1311 715 OFFCURVE",
"1291 576 OFFCURVE",
"1275 486 CURVE SMOOTH",
"1268 446 OFFCURVE",
"1260 403 OFFCURVE",
"1252 355 CURVE SMOOTH",
"1231 228 OFFCURVE",
"1208 105 OFFCURVE",
"1208 55 CURVE SMOOTH",
"1208 19 OFFCURVE",
"1232 -5 OFFCURVE",
"1281 -5 CURVE SMOOTH",
"1333 -5 OFFCURVE",
"1359 14 OFFCURVE",
"1363 65 CURVE SMOOTH",
"1368 128 OFFCURVE",
"1386 267 OFFCURVE",
"1401 357 CURVE SMOOTH",
"1423 488 LINE SMOOTH",
"1444 615 OFFCURVE",
"1464 738 OFFCURVE",
"1468 788 CURVE"
);
},
{
closed = 1;
nodes = (
"46 748 OFFCURVE",
"89 668 OFFCURVE",
"141 696 CURVE SMOOTH",
"186 720 OFFCURVE",
"250 737 OFFCURVE",
"309 737 CURVE SMOOTH",
"445 737 OFFCURVE",
"501 690 OFFCURVE",
"501 597 CURVE SMOOTH",
"501 495 OFFCURVE",
"421 419 OFFCURVE",
"216 419 CURVE SMOOTH",
"171 419 OFFCURVE",
"132 421 OFFCURVE",
"99 427 CURVE SMOOTH",
"61 388 OFFCURVE",
"36 369 OFFCURVE",
"36 332 CURVE SMOOTH",
"36 372 OFFCURVE",
"41 351 OFFCURVE",
"85 344 CURVE SMOOTH",
"118 339 OFFCURVE",
"168 335 OFFCURVE",
"224 335 CURVE SMOOTH",
"508 335 OFFCURVE",
"649 466 OFFCURVE",
"649 622 CURVE SMOOTH",
"649 748 OFFCURVE",
"549 846 OFFCURVE",
"337 846 CURVE SMOOTH",
"254 846 OFFCURVE",
"173 826 OFFCURVE",
"124 796 CURVE SMOOTH"
);
}
);
};
layerId = "ECEFE970-1BBB-4E0A-A452-CEB55884B4A3";
paths = (
{
closed = 1;
nodes = (
"49 744 OFFCURVE",
"93 661 OFFCURVE",
"152 696 CURVE SMOOTH",
"196 722 OFFCURVE",
"261 737 OFFCURVE",
"320 737 CURVE SMOOTH",
"445 737 OFFCURVE",
"501 690 OFFCURVE",
"501 597 CURVE SMOOTH",
"501 495 OFFCURVE",
"418 419 OFFCURVE",
"228 419 CURVE SMOOTH",
"202 419 OFFCURVE",
"157 419 OFFCURVE",
"128 419 CURVE SMOOTH",
"103 419 OFFCURVE",
"83 400 OFFCURVE",
"83 367 CURVE SMOOTH",
"83 335 OFFCURVE",
"94 315 OFFCURVE",
"146 315 CURVE",
"263 336 LINE",
"522 340 OFFCURVE",
"649 477 OFFCURVE",
"649 622 CURVE SMOOTH",
"649 747 OFFCURVE",
"549 846 OFFCURVE",
"350 846 CURVE SMOOTH",
"265 846 OFFCURVE",
"184 826 OFFCURVE",
"135 796 CURVE SMOOTH"
);
},
{
closed = 1;
nodes = (
"208 778 LINE",
"201 715 OFFCURVE",
"181 576 OFFCURVE",
"165 486 CURVE SMOOTH",
"158 446 OFFCURVE",
"150 403 OFFCURVE",
"142 355 CURVE SMOOTH",
"121 228 OFFCURVE",
"99 105 OFFCURVE",
"99 55 CURVE SMOOTH",
"99 19 OFFCURVE",
"119 -5 OFFCURVE",
"168 -5 CURVE SMOOTH",
"220 -5 OFFCURVE",
"240 14 OFFCURVE",
"246 65 CURVE SMOOTH",
"253 128 OFFCURVE",
"274 267 OFFCURVE",
"289 357 CURVE SMOOTH",
"311 488 LINE SMOOTH",
"332 615 OFFCURVE",
"352 738 OFFCURVE",
"356 788 CURVE"
);
},
{
closed = 1;
nodes = (
"649 -5 OFFCURVE",
"687 6 OFFCURVE",
"710 18 CURVE SMOOTH",
"773 51 OFFCURVE",
"754 135 OFFCURVE",
"697 122 CURVE SMOOTH",
"679 118 OFFCURVE",
"662 114 OFFCURVE",
"646 114 CURVE SMOOTH",
"606 114 OFFCURVE",
"574 147 OFFCURVE",
"531 230 CURVE SMOOTH",
"483 323 OFFCURVE",
"451 366 OFFCURVE",
"289 366 CURVE",
"251 315 LINE",
"320 315 OFFCURVE",
"337 293 OFFCURVE",
"395 174 CURVE SMOOTH",
"450 61 OFFCURVE",
"505 -5 OFFCURVE",
"611 -5 CURVE SMOOTH"
);
}
);
width = 703;
}
);
note = R;
},
{
color = 3;
glyphname = T.ss01;
lastChange = "2016-07-27 22:36:54 +0000";
layers = (
{
background = {
paths = (
{
closed = 1;
nodes = (
"341 620 OFFCURVE",
"320 515 OFFCURVE",
"294 355 CURVE SMOOTH",
"273 228 OFFCURVE",
"250 105 OFFCURVE",
"250 55 CURVE SMOOTH",
"250 19 OFFCURVE",
"274 -5 OFFCURVE",
"323 -5 CURVE SMOOTH",
"365 -5 OFFCURVE",
"401 14 OFFCURVE",
"404 55 CURVE SMOOTH",
"410 128 OFFCURVE",
"428 267 OFFCURVE",
"443 357 CURVE SMOOTH",
"471 521 OFFCURVE",
"491 627 OFFCURVE",
"519 765 CURVE",
"367 754 LINE"
);
},
{
closed = 1;
nodes = (
"71 460 OFFCURVE",
"152 510 OFFCURVE",
"128 548 CURVE SMOOTH",
"119 562 OFFCURVE",
"108 585 OFFCURVE",
"108 613 CURVE SMOOTH",
"108 695 OFFCURVE",
"186 724 OFFCURVE",
"455 724 CURVE SMOOTH",
"614 724 OFFCURVE",
"676 719 OFFCURVE",
"780 711 CURVE SMOOTH",
"834 707 OFFCURVE",
"857 730 OFFCURVE",
"857 774 CURVE SMOOTH",
"857 798 OFFCURVE",
"839 822 OFFCURVE",
"795 830 CURVE SMOOTH",
"731 842 OFFCURVE",
"653 847 OFFCURVE",
"525 847 CURVE SMOOTH",
"154 847 OFFCURVE",
"-11 781 OFFCURVE",
"-11 611 CURVE SMOOTH",
"-11 556 OFFCURVE",
"9 513 OFFCURVE",
"35 491 CURVE SMOOTH"
);
}
);
};
layerId = "ECEFE970-1BBB-4E0A-A452-CEB55884B4A3";
paths = (
{
closed = 1;
nodes = (
"322 620 OFFCURVE",
"301 515 OFFCURVE",
"275 355 CURVE SMOOTH",
"254 228 OFFCURVE",
"231 105 OFFCURVE",
"231 55 CURVE SMOOTH",
"231 19 OFFCURVE",
"255 -5 OFFCURVE",
"304 -5 CURVE SMOOTH",
"346 -5 OFFCURVE",
"382 14 OFFCURVE",
"385 55 CURVE SMOOTH",
"390 128 OFFCURVE",
"409 267 OFFCURVE",
"424 357 CURVE SMOOTH",
"451 521 OFFCURVE",
"472 627 OFFCURVE",
"500 765 CURVE",
"348 754 LINE"
);
},
{
closed = 1;
nodes = (
"607 849 OFFCURVE",
"509 847 OFFCURVE",
"408 847 CURVE SMOOTH",
"330 847 OFFCURVE",
"242 844 OFFCURVE",
"148 832 CURVE SMOOTH",
"104 826 OFFCURVE",
"86 799 OFFCURVE",
"86 767 CURVE SMOOTH",
"86 731 OFFCURVE",
"109 708 OFFCURVE",
"163 712 CURVE SMOOTH",
"267 720 OFFCURVE",
"339 723 OFFCURVE",
"428 723 CURVE SMOOTH",
"509 723 OFFCURVE",
"606 720 OFFCURVE",
"687 720 CURVE SMOOTH",
"740 720 OFFCURVE",
"763 734 OFFCURVE",
"763 772 CURVE SMOOTH",
"763 818 OFFCURVE",
"730 839 OFFCURVE",
"668 844 CURVE SMOOTH"
);
}
);
width = 648;
}
);
note = T;
},
{
color = 3;
glyphname = U.ss01;
lastChange = "2016-07-27 22:36:54 +0000";
layers = (
{
background = {
paths = (
{
closed = 1;
nodes = (
"911 227 OFFCURVE",
"901 222 OFFCURVE",
"891 209 CURVE SMOOTH",
"839 141 OFFCURVE",
"801 114 OFFCURVE",
"757 114 CURVE SMOOTH",
"718 114 OFFCURVE",
"697 138 OFFCURVE",
"697 189 CURVE SMOOTH",
"697 302 OFFCURVE",
"763 622 OFFCURVE",
"779 769 CURVE SMOOTH",
"784 816 OFFCURVE",
"766 848 OFFCURVE",
"713 848 CURVE SMOOTH",
"668 848 OFFCURVE",
"639 828 OFFCURVE",
"631 767 CURVE SMOOTH",
"568 287 OFFCURVE",
"427 122 OFFCURVE",
"326 122 CURVE SMOOTH",
"271 122 OFFCURVE",
"246 151 OFFCURVE",
"246 216 CURVE SMOOTH",
"246 327 OFFCURVE",
"346 642 OFFCURVE",
"346 788 CURVE SMOOTH",
"346 824 OFFCURVE",
"322 848 OFFCURVE",
"273 848 CURVE SMOOTH",
"231 848 OFFCURVE",
"193 829 OFFCURVE",
"192 788 CURVE SMOOTH",
"186 570 OFFCURVE",
"95 336 OFFCURVE",
"95 186 CURVE SMOOTH",
"95 77 OFFCURVE",
"159 -5 OFFCURVE",
"278 -5 CURVE SMOOTH",
"408 -5 OFFCURVE",
"510 93 OFFCURVE",
"578 296 CURVE",
"565 234 OFFCURVE",
"559 195 OFFCURVE",
"559 148 CURVE SMOOTH",
"559 62 OFFCURVE",
"605 -5 OFFCURVE",
"712 -5 CURVE SMOOTH",
"788 -5 OFFCURVE",
"875 38 OFFCURVE",
"922 124 CURVE SMOOTH",
"934 146 OFFCURVE",
"939 164 OFFCURVE",
"939 187 CURVE SMOOTH",
"939 210 OFFCURVE",
"931 227 OFFCURVE",
"918 227 CURVE SMOOTH"
);
}
);
};
layerId = "ECEFE970-1BBB-4E0A-A452-CEB55884B4A3";
paths = (
{
closed = 1;
nodes = (
"405 -1 OFFCURVE",
"504 101 OFFCURVE",
"571 257 CURVE",
"558 181 OFFCURVE",
"544 103 OFFCURVE",
"540 65 CURVE SMOOTH",
"535 18 OFFCURVE",
"546 -5 OFFCURVE",
"599 -5 CURVE SMOOTH",
"634 -5 OFFCURVE",
"670 7 OFFCURVE",
"677 53 CURVE SMOOTH",
"708 255 OFFCURVE",
"763 637 OFFCURVE",
"772 763 CURVE SMOOTH",
"778 827 OFFCURVE",
"751 852 OFFCURVE",
"703 852 CURVE SMOOTH",
"657 852 OFFCURVE",
"635 822 OFFCURVE",
"628 761 CURVE SMOOTH",
"579 334 OFFCURVE",
"435 126 OFFCURVE",
"303 126 CURVE SMOOTH",
"267 126 OFFCURVE",
"244 147 OFFCURVE",
"244 198 CURVE SMOOTH",
"244 228 OFFCURVE",
"254 298 OFFCURVE",
"265 361 CURVE SMOOTH",
"289 494 LINE SMOOTH",
"312 621 OFFCURVE",
"333 742 OFFCURVE",
"333 792 CURVE SMOOTH",
"333 828 OFFCURVE",
"313 852 OFFCURVE",
"262 852 CURVE SMOOTH",
"212 852 OFFCURVE",
"185 833 OFFCURVE",
"181 782 CURVE SMOOTH",
"176 719 OFFCURVE",
"160 580 OFFCURVE",
"142 490 CURVE SMOOTH",
"118 367 LINE SMOOTH",
"104 296 OFFCURVE",
"94 222 OFFCURVE",
"94 170 CURVE SMOOTH",
"94 71 OFFCURVE",
"146 -1 OFFCURVE",
"265 -1 CURVE SMOOTH"
);
}
);
width = 792;
}
);
note = U;
},
{
color = 3;
glyphname = V.ss01;
lastChange = "2016-07-27 22:36:54 +0000";
layers = (
{
background = {
paths = (
{
closed = 1;
nodes = (
"505 -5 OFFCURVE",
"695 221 OFFCURVE",
"811 763 CURVE SMOOTH",
"823 819 OFFCURVE",
"809 848 OFFCURVE",
"751 848 CURVE SMOOTH",
"698 848 OFFCURVE",
"667 832 OFFCURVE",
"656 767 CURVE SMOOTH",
"585 345 OFFCURVE",
"453 136 OFFCURVE",
"370 136 CURVE SMOOTH",
"291 136 OFFCURVE",
"239 361 OFFCURVE",
"300 760 CURVE SMOOTH",
"311 833 OFFCURVE",
"279 848 OFFCURVE",
"231 848 CURVE SMOOTH",
"178 848 OFFCURVE",
"153 826 OFFCURVE",
"143 759 CURVE SMOOTH",
"78 341 OFFCURVE",
"140 -5 OFFCURVE",
"338 -5 CURVE SMOOTH"
);
}
);
};
layerId = "ECEFE970-1BBB-4E0A-A452-CEB55884B4A3";
paths = (
{
closed = 1;
nodes = (
"508 -5 OFFCURVE",
"695 221 OFFCURVE",
"811 763 CURVE SMOOTH",
"823 819 OFFCURVE",
"809 848 OFFCURVE",
"751 848 CURVE SMOOTH",
"698 848 OFFCURVE",
"667 832 OFFCURVE",
"656 767 CURVE SMOOTH",
"585 345 OFFCURVE",
"453 136 OFFCURVE",
"370 136 CURVE SMOOTH",
"291 136 OFFCURVE",
"239 361 OFFCURVE",
"300 760 CURVE SMOOTH",
"311 833 OFFCURVE",
"279 848 OFFCURVE",
"231 848 CURVE SMOOTH",
"183 848 OFFCURVE",
"159 826 OFFCURVE",
"148 759 CURVE SMOOTH",
"84 341 OFFCURVE",
"145 -5 OFFCURVE",
"338 -5 CURVE SMOOTH"
);
}
);
width = 781;
}
);
leftMetricsKey = V;
note = V;
},
